{
.appVersion = "117";
DisplayStrings = (
"/one.tf",
"/two.tf"
);
copyright = "Copyright 2021 The Azeret Project Authors (https://github.com/displaay/azeret)";
date = "2021-03-23 22:42:24 +0000";
designer = "Martin Vácha";
designerURL = "https://displaay.net";
familyName = "Azeret Mono Thin";
featurePrefixes = (
{
automatic = 1;
code = "languagesystem DFLT dflt;\012languagesystem latn dflt;\012languagesystem latn CAT;\012languagesystem latn ROM;\012languagesystem latn MOL;\012languagesystem latn KAZ;\012languagesystem latn TAT;\012languagesystem latn TRK;\012languagesystem latn CRT;\012languagesystem latn AZE;\012";
name = Languagesystems;
}
);
features = (
{
automatic = 1;
code = "feature locl;\012feature frac;\012feature ordn;\012";
name = aalt;
},
{
automatic = 1;
code = "script latn;\012language CAT;\012sub  l' periodcentered' l by ldot;\012sub  L' periodcentered' L by Ldot;\012language ROM;\012sub Scedilla by Scommaaccent;\012sub scedilla by scommaaccent;\012sub Tcedilla by Tcommaaccent;\012sub tcedilla by tcommaaccent;\012language MOL;\012sub Scedilla by Scommaaccent;\012sub scedilla by scommaaccent;\012sub Tcedilla by Tcommaaccent;\012sub tcedilla by tcommaaccent;\012language KAZ;\012sub i by idotaccent;\012language TAT;\012sub i by idotaccent;\012language TRK;\012sub i by idotaccent;\012language CRT;\012sub i by idotaccent;\012language AZE;\012sub i by idotaccent;\012";
name = locl;
},
{
automatic = 1;

glyphs = (
{
glyphname = A;
layers = (
{
layerId = "1F6A8684-966D-4E56-8239-254FA8D05321";
paths = (
{
closed = 1;
nodes = (
"143 217 LINE",
"507 217 LINE",
"507 262 LINE",
"143 262 LINE",
"143 217 LINE"
);
},
{
closed = 1;
nodes = (
"296 698 LINE",
"41 0 LINE",
"92 0 LINE",
"284 526 LINE",
"326 647 LINE",
"367 528 LINE",
"559 0 LINE",
"609 0 LINE",
"354 698 LINE",
"296 698 LINE"
);
}
);
width = 650;
}
);
note = A;
unicode = 0041;
},
{
glyphname = AE;
layers = (
{
layerId = "1F6A8684-966D-4E56-8239-254FA8D05321";
paths = (
{
closed = 1;
nodes = (
"22 0 LINE",
"70 0 LINE",
"374 698 LINE",
"326 698 LINE",
"22 0 LINE"
);
},
{
closed = 1;
nodes = (
"133 179 LINE",
"373 179 LINE",
"373 224 LINE",
"133 224 LINE",
"133 179 LINE"
);
},
{
closed = 1;
nodes = (
"333 0 LINE",
"642 0 LINE",
"642 45 LINE",
"380 45 LINE",
"380 340 LINE",
"567 340 LINE",
"567 385 LINE",
"380 385 LINE",
"380 653 LINE",
"638 653 LINE",
"638 698 LINE",
"333 698 LINE",
"333 0 LINE"
);
}
);
width = 650;
}
);
note = AE;
unicode = 00C6;
},
{
glyphname = B;
layers = (
{
layerId = "1F6A8684-966D-4E56-8239-254FA8D05321";
paths = (
{
closed = 1;
nodes = (
"460 371.333 OFFCURVE",
"483.5 382.167 OFFCURVE",
"502.5 398.5 CURVE SMOOTH",
"521.5 414.833 OFFCURVE",
"535.833 434.667 OFFCURVE",
"545.5 458 CURVE SMOOTH",
"555.167 481.333 OFFCURVE",
"560 505.333 OFFCURVE",
"560 530 CURVE SMOOTH",
"560 581.333 OFFCURVE",
"540.5 622.167 OFFCURVE",
"501.5 652.5 CURVE SMOOTH",
"462.5 682.833 OFFCURVE",
"409.667 698 OFFCURVE",
"343 698 CURVE SMOOTH",
"103 698 LINE",
"103 0 LINE",
"354 0 LINE SMOOTH",
"400 0 OFFCURVE",
"439.833 8 OFFCURVE",
"473.5 24 CURVE SMOOTH",
"507.167 40 OFFCURVE",
"533 62.167 OFFCURVE",
"551 90.5 CURVE SMOOTH",
"569 118.833 OFFCURVE",
"578 151.667 OFFCURVE",
"578 189 CURVE SMOOTH",
"578 223.667 OFFCURVE",
"570.833 253.333 OFFCURVE",
"556.5 278 CURVE SMOOTH",
"542.167 302.667 OFFCURVE",
"524 322.333 OFFCURVE",
"502 337 CURVE SMOOTH",
"480 351.667 OFFCURVE",
"456.667 361.333 OFFCURVE",
"432 366 CURVE",
"432 366 LINE"
);
},
{
closed = 1;
nodes = (
"394.667 653 OFFCURVE",
"434.667 641.833 OFFCURVE",
"464 619.5 CURVE SMOOTH",
"493.333 597.167 OFFCURVE",
"508 565 OFFCURVE",
"508 523 CURVE SMOOTH",
"508 481 OFFCURVE",
"493.5 447.5 OFFCURVE",
"464.5 422.5 CURVE SMOOTH",
"435.5 397.5 OFFCURVE",
"395.333 385 OFFCURVE",
"344 385 CURVE SMOOTH",
"150 385 LINE",
"150 653 LINE",
"344 653 LINE",
"344 653 LINE"
);
},
{
closed = 1;
nodes = (
"150 45 LINE",
"150 340 LINE",
"336 340 LINE SMOOTH",
"395.333 340 OFFCURVE",
"441.833 327.167 OFFCURVE",
"475.5 301.5 CURVE SMOOTH",
"509.167 275.833 OFFCURVE",
"526 239.333 OFFCURVE",
"526 192 CURVE SMOOTH",
"526 147.333 OFFCURVE",
"510.667 111.667 OFFCURVE",
"480 85 CURVE SMOOTH",
"449.333 58.333 OFFCURVE",
"407.333 45 OFFCURVE",
"354 45 CURVE SMOOTH",
"150 45 LINE"
);
}
);
width = 650;
}
);
note = B;
unicode = 0042;
},
{
glyphname = C;
layers = (
{
layerId = "1F6A8684-966D-4E56-8239-254FA8D05321";
paths = (
{
closed = 1;
nodes = (
"392 -12 OFFCURVE",
"436.167 -2 OFFCURVE",
"474.5 18 CURVE SMOOTH",
"512.833 38 OFFCURVE",
"543.5 66.167 OFFCURVE",
"566.5 102.5 CURVE SMOOTH",
"589.5 138.833 OFFCURVE",
"603 180.667 OFFCURVE",
"607 228 CURVE",
"554 228 LINE",
"550.667 190 OFFCURVE",
"539.667 156.333 OFFCURVE",
"521 127 CURVE SMOOTH",
"502.333 97.667 OFFCURVE",
"477.833 74.667 OFFCURVE",
"447.5 58 CURVE SMOOTH",
"417.167 41.333 OFFCURVE",
"382 33 OFFCURVE",
"342 33 CURVE SMOOTH",
"295.333 33 OFFCURVE",
"253.667 46 OFFCURVE",
"217 72 CURVE SMOOTH",
"180.333 98 OFFCURVE",
"151.5 134.667 OFFCURVE",
"130.5 182 CURVE SMOOTH",
"109.5 229.333 OFFCURVE",
"99 285 OFFCURVE",
"99 349 CURVE SMOOTH",
"99 411 OFFCURVE",
"109 465.833 OFFCURVE",
"129 513.5 CURVE SMOOTH",
"149 561.167 OFFCURVE",
"177.167 598.333 OFFCURVE",
"213.5 625 CURVE SMOOTH",
"249.833 651.667 OFFCURVE",
"292.333 665 OFFCURVE",
"341 665 CURVE SMOOTH",
"398.333 665 OFFCURVE",
"446 648.167 OFFCURVE",
"484 614.5 CURVE SMOOTH",
"522 580.833 OFFCURVE",
"544.333 536.333 OFFCURVE",
"551 481 CURVE",
"604 481 LINE",
"598.667 527 OFFCURVE",
"584.333 567.167 OFFCURVE",
"561 601.5 CURVE SMOOTH",
"537.667 635.833 OFFCURVE",
"507.5 662.5 OFFCURVE",
"470.5 681.5 CURVE SMOOTH",
"433.5 700.5 OFFCURVE",
"391 710 OFFCURVE",
"343 710 CURVE SMOOTH",
"285.667 710 OFFCURVE",
"234.667 695.333 OFFCURVE",
"190 666 CURVE SMOOTH",
"145.333 636.667 OFFCURVE",
"110.333 595 OFFCURVE",
"85 541 CURVE SMOOTH",
"59.667 487 OFFCURVE",
"47 423.333 OFFCURVE",
"47 350 CURVE SMOOTH",
"47 282 OFFCURVE",
"58.833 220.667 OFFCURVE",
"82.5 166 CURVE SMOOTH",
"106.167 111.333 OFFCURVE",
"140.167 68 OFFCURVE",
"184.5 36 CURVE SMOOTH",
"228.833 4 OFFCURVE",
"281.333 -12 OFFCURVE",
"342 -12 CURVE",
"342 -12 LINE"
);
}
);
width = 650;
}
);
note = C;
unicode = 0043;
},
{
glyphname = D;
layers = (
{
layerId = "1F6A8684-966D-4E56-8239-254FA8D05321";
paths = (
{
closed = 1;
nodes = (
"83 0 LINE",
"278 0 LINE SMOOTH",
"327.333 0 OFFCURVE",
"371.833 8.167 OFFCURVE",
"411.5 24.5 CURVE SMOOTH",
"451.167 40.833 OFFCURVE",
"485 64.5 OFFCURVE",
"513 95.5 CURVE SMOOTH",
"541 126.5 OFFCURVE",
"562.667 163.5 OFFCURVE",
"578 206.5 CURVE SMOOTH",
"593.333 249.5 OFFCURVE",
"601 297.667 OFFCURVE",
"601 351 CURVE SMOOTH",
"601 403.667 OFFCURVE",
"593.333 451.333 OFFCURVE",
"578 494 CURVE SMOOTH",
"562.667 536.667 OFFCURVE",
"541 573.167 OFFCURVE",
"513 603.5 CURVE SMOOTH",
"485 633.833 OFFCURVE",
"451.167 657.167 OFFCURVE",
"411.5 673.5 CURVE SMOOTH",
"371.833 689.833 OFFCURVE",
"327.333 698 OFFCURVE",
"278 698 CURVE SMOOTH",
"83 698 LINE",
"83 0 LINE"
);
},
{
closed = 1;
nodes = (
"130 45 LINE",
"130 653 LINE",
"278 653 LINE SMOOTH",
"332.667 653 OFFCURVE",
"380.333 640.667 OFFCURVE",
"421 616 CURVE SMOOTH",
"461.667 591.333 OFFCURVE",
"493.167 556.333 OFFCURVE",
"515.5 511 CURVE SMOOTH",
"537.833 465.667 OFFCURVE",
"549 412.333 OFFCURVE",
"549 351 CURVE SMOOTH",
"549 289.667 OFFCURVE",
"537.833 236 OFFCURVE",
"515.5 190 CURVE SMOOTH",
"493.167 144 OFFCURVE",
"461.667 108.333 OFFCURVE",
"421 83 CURVE SMOOTH",
"380.333 57.667 OFFCURVE",
"332.667 45 OFFCURVE",
"278 45 CURVE SMOOTH",
"130 45 LINE"
);
}
);
width = 650;
}
);
note = D;
unicode = 0044;
},
{
glyphname = Eth;
layers = (
{
layerId = "1F6A8684-966D-4E56-8239-254FA8D05321";
paths = (
{
closed = 1;
nodes = (
"3 331 LINE",
"364 331 LINE",
"364 369 LINE",
"3 369 LINE",
"3 331 LINE"
);
},
{
closed = 1;
nodes = (
"83 0 LINE",
"278 0 LINE SMOOTH",
"327.333 0 OFFCURVE",
"371.833 8.167 OFFCURVE",
"411.5 24.5 CURVE SMOOTH",
"451.167 40.833 OFFCURVE",
"485 64.5 OFFCURVE",
"513 95.5 CURVE SMOOTH",
"541 126.5 OFFCURVE",
"562.667 163.5 OFFCURVE",
"578 206.5 CURVE SMOOTH",
"593.333 249.5 OFFCURVE",
"601 297.667 OFFCURVE",
"601 351 CURVE SMOOTH",
"601 403.667 OFFCURVE",
"593.333 451.333 OFFCURVE",
"578 494 CURVE SMOOTH",
"562.667 536.667 OFFCURVE",
"541 573.167 OFFCURVE",
"513 603.5 CURVE SMOOTH",
"485 633.833 OFFCURVE",
"451.167 657.167 OFFCURVE",
"411.5 673.5 CURVE SMOOTH",
"371.833 689.833 OFFCURVE",
"327.333 698 OFFCURVE",
"278 698 CURVE SMOOTH",
"83 698 LINE",
"83 0 LINE"
);
},
{
closed = 1;
nodes = (
"130 45 LINE",
"130 653 LINE",
"278 653 LINE SMOOTH",
"332.667 653 OFFCURVE",
"380.333 640.667 OFFCURVE",
"421 616 CURVE SMOOTH",
"461.667 591.333 OFFCURVE",
"493.167 556.333 OFFCURVE",
"515.5 511 CURVE SMOOTH",
"537.833 465.667 OFFCURVE",
"549 412.333 OFFCURVE",
"549 351 CURVE SMOOTH",
"549 289.667 OFFCURVE",
"537.833 236 OFFCURVE",
"515.5 190 CURVE SMOOTH",
"493.167 144 OFFCURVE",
"461.667 108.333 OFFCURVE",
"421 83 CURVE SMOOTH",
"380.333 57.667 OFFCURVE",
"332.667 45 OFFCURVE",
"278 45 CURVE SMOOTH",
"130 45 LINE"
);
}
);
width = 650;
}
);
note = Eth;
unicode = 00D0;
},
{
glyphname = E;
layers = (
{
layerId = "1F6A8684-966D-4E56-8239-254FA8D05321";
paths = (
{
closed = 1;
nodes = (
"93 0 LINE",
"582 0 LINE",
"582 45 LINE",
"140 45 LINE",
"140 340 LINE",
"457 340 LINE",
"457 385 LINE",
"140 385 LINE",
"140 653 LINE",
"578 653 LINE",
"578 698 LINE",
"93 698 LINE",
"93 0 LINE"
);
}
);
width = 650;
}
);
note = E;
unicode = 0045;
},
{
glyphname = F;
layers = (
{
layerId = "1F6A8684-966D-4E56-8239-254FA8D05321";
paths = (
{
closed = 1;
nodes = (
"90 0 LINE",
"137 0 LINE",
"137 340 LINE",
"454 340 LINE",
"454 385 LINE",
"137 385 LINE",
"137 653 LINE",
"575 653 LINE",
"575 698 LINE",
"90 698 LINE",
"90 0 LINE"
);
}
);
width = 650;
}
);
note = F;
unicode = 0046;
},
{
glyphname = G;
layers = (
{
layerId = "1F6A8684-966D-4E56-8239-254FA8D05321";
paths = (
{
closed = 1;
nodes = (
"400.333 -12 OFFCURVE",
"447.333 -1.667 OFFCURVE",
"492 19 CURVE SMOOTH",
"536.667 39.667 OFFCURVE",
"571.667 68.667 OFFCURVE",
"597 106 CURVE",
"597 362 LINE",
"400 362 LINE",
"398 317 LINE",
"549 320 LINE",
"549 122 LINE",
"530.333 98 OFFCURVE",
"503.5 77.167 OFFCURVE",
"468.5 59.5 CURVE SMOOTH",
"433.5 41.833 OFFCURVE",
"394.333 33 OFFCURVE",
"351 33 CURVE SMOOTH",
"303.667 33 OFFCURVE",
"260.667 45 OFFCURVE",
"222 69 CURVE SMOOTH",
"183.333 93 OFFCURVE",
"152.5 128.5 OFFCURVE",
"129.5 175.5 CURVE SMOOTH",
"106.5 222.5 OFFCURVE",
"95 280.333 OFFCURVE",
"95 349 CURVE SMOOTH",
"95 413.667 OFFCURVE",
"106.167 469.5 OFFCURVE",
"128.5 516.5 CURVE SMOOTH",
"150.833 563.5 OFFCURVE",
"181 600 OFFCURVE",
"219 626 CURVE SMOOTH",
"257 652 OFFCURVE",
"299 665 OFFCURVE",
"345 665 CURVE SMOOTH",
"399 665 OFFCURVE",
"443.667 648.833 OFFCURVE",
"479 616.5 CURVE SMOOTH",
"514.333 584.167 OFFCURVE",
"535.667 539.333 OFFCURVE",
"543 482 CURVE",
"597 482 LINE",
"591.667 528.667 OFFCURVE",
"578.167 569 OFFCURVE",
"556.5 603 CURVE SMOOTH",
"534.833 637 OFFCURVE",
"506.167 663.333 OFFCURVE",
"470.5 682 CURVE SMOOTH",
"434.833 700.667 OFFCURVE",
"393.333 710 OFFCURVE",
"346 710 CURVE SMOOTH",
"287.333 710 OFFCURVE",
"235.167 694.667 OFFCURVE",
"189.5 664 CURVE SMOOTH",
"143.833 633.333 OFFCURVE",
"107.833 591 OFFCURVE",
"81.5 537 CURVE SMOOTH",
"55.167 483 OFFCURVE",
"42 420.333 OFFCURVE",
"42 349 CURVE SMOOTH",
"42 275.667 OFFCURVE",
"54.833 212 OFFCURVE",
"80.5 158 CURVE SMOOTH",
"106.167 104 OFFCURVE",
"142.333 62.167 OFFCURVE",
"189 32.5 CURVE SMOOTH",
"235.667 2.833 OFFCURVE",
"289.667 -12 OFFCURVE",
"351 -12 CURVE",
"351 -12 LINE"
);
}
);
width = 650;
}
);
note = G;
unicode = 0047;
},
{
glyphname = H;
layers = (
{
layerId = "1F6A8684-966D-4E56-8239-254FA8D05321";
paths = (
{
closed = 1;
nodes = (
"515 0 LINE",
"562 0 LINE",
"562 698 LINE",
"515 698 LINE",
"515 0 LINE"
);
},
{
closed = 1;
nodes = (
"88 0 LINE",
"135 0 LINE",
"135 698 LINE",
"88 698 LINE",
"88 0 LINE"
);
},
{
closed = 1;
nodes = (
"123 340 LINE",
"527 340 LINE",
"527 385 LINE",
"123 385 LINE",
"123 340 LINE"
);
}
);
width = 650;
}
);
note = H;
unicode = 0048;
},
{
glyphname = I;
layers = (
{
layerId = "1F6A8684-966D-4E56-8239-254FA8D05321";
paths = (
{
closed = 1;
nodes = (
"301 0 LINE",
"348 0 LINE",
"348 698 LINE",
"301 698 LINE",
"301 0 LINE"
);
},
{
closed = 1;
nodes = (
"112 698 LINE",
"112 653 LINE",
"537 653 LINE",
"537 698 LINE",
"112 698 LINE"
);
},
{
closed = 1;
nodes = (
"112 45 LINE",
"112 0 LINE",
"537 0 LINE",
"537 45 LINE",
"112 45 LINE"
);
}
);
width = 650;
}
);
note = I;
unicode = 0049;
},
{
glyphname = J;
layers = (
{
layerId = "1F6A8684-966D-4E56-8239-254FA8D05321";
paths = (
{
closed = 1;
nodes = (
"111 0 LINE",
"364 0 LINE SMOOTH",
"390 0 OFFCURVE",
"413 3.833 OFFCURVE",
"433 11.5 CURVE SMOOTH",
"453 19.167 OFFCURVE",
"469.833 30.167 OFFCURVE",
"483.5 44.5 CURVE SMOOTH",
"497.167 58.833 OFFCURVE",
"507.667 76 OFFCURVE",
"515 96 CURVE SMOOTH",
"522.333 116 OFFCURVE",
"526 138.333 OFFCURVE",
"526 163 CURVE SMOOTH",
"526 698 LINE",
"479 698 LINE",
"479 163 LINE SMOOTH",
"479 127 OFFCURVE",
"469.167 98.333 OFFCURVE",
"449.5 77 CURVE SMOOTH",
"429.833 55.667 OFFCURVE",
"402 45 OFFCURVE",
"366 45 CURVE SMOOTH",
"111 45 LINE",
"111 0 LINE"
);
},
{
closed = 1;
nodes = (
"182 698 LINE",
"182 653 LINE",
"525 653 LINE",
"525 698 LINE",
"182 698 LINE"
);
}
);
width = 650;
}
);
note = J;
unicode = 004A;
},
{
glyphname = K;
layers = (
{
layerId = "1F6A8684-966D-4E56-8239-254FA8D05321";
paths = (
{
closed = 1;
nodes = (
"110 0 LINE",
"157 0 LINE",
"157 282 LINE",
"581 698 LINE",
"513 698 LINE",
"255 444 LINE",
"157 347 LINE",
"157 484 LINE",
"157 698 LINE",
"110 698 LINE",
"110 0 LINE"
);
},
{
closed = 1;
nodes = (
"549 0 LINE",
"611 0 LINE",
"273 436 LINE",
"236 405 LINE",
"549 0 LINE"
);
}
);
width = 650;
}
);
note = K;
unicode = 004B;
},
{
glyphname = L;
layers = (
{
layerId = "1F6A8684-966D-4E56-8239-254FA8D05321";
paths = (
{
closed = 1;
nodes = (
"137 0 LINE",
"577 0 LINE",
"577 45 LINE",
"184 45 LINE",
"184 698 LINE",
"137 698 LINE",
"137 0 LINE"
);
}
);
width = 650;
}
);
note = L;
unicode = 004C;
},
{
glyphname = Lslash;
layers = (
{
layerId = "1F6A8684-966D-4E56-8239-254FA8D05321";
paths = (
{
closed = 1;
nodes = (
"28 290 LINE",
"344 401 LINE",
"344 443 LINE",
"28 332 LINE",
"28 290 LINE"
);
},
{
closed = 1;
nodes = (
"137 0 LINE",
"577 0 LINE",
"577 45 LINE",
"184 45 LINE",
"184 698 LINE",
"137 698 LINE",
"137 0 LINE"
);
}
);
width = 650;
}
);
note = Lslash;
unicode = 0141;
},
{
glyphname = M;
layers = (
{
layerId = "1F6A8684-966D-4E56-8239-254FA8D05321";
paths = (
{
closed = 1;
nodes = (
"36 0 LINE",
"82 0 LINE",
"125 528 LINE",
"134 645 LINE",
"159 528 LINE",
"296 0 LINE",
"350 0 LINE",
"490 528 LINE",
"518 642 LINE",
"525 528 LINE",
"569 0 LINE",
"616 0 LINE",
"558 698 LINE",
"492 698 LINE",
"347 163 LINE",
"324 72 LINE",
"301 163 LINE",
"162 698 LINE",
"93 698 LINE",
"36 0 LINE"
);
}
);
width = 650;
}
);
note = M;
unicode = 004D;
},
{
glyphname = N;
layers = (
{
layerId = "1F6A8684-966D-4E56-8239-254FA8D05321";
paths = (
{
closed = 1;
nodes = (
"83 0 LINE",
"132 0 LINE",
"132 450 LINE",
"127 623 LINE",
"515 0 LINE",
"568 0 LINE",
"568 698 LINE",
"519 698 LINE",
"519 249 LINE",
"524 72 LINE",
"137 698 LINE",
"83 698 LINE",
"83 0 LINE"
);
}
);
width = 650;
}
);
note = N;
unicode = 004E;
},
{
glyphname = Eng;
layers = (
{
layerId = "1F6A8684-966D-4E56-8239-254FA8D05321";
paths = (
{
closed = 1;
nodes = (
"527 -20 LINE",
"568 0 LINE",
"568 698 LINE",
"519 698 LINE",
"519 249 LINE",
"524 69 LINE",
"137 698 LINE",
"83 698 LINE",
"83 0 LINE",
"132 0 LINE",
"132 450 LINE",
"127 627 LINE",
"527 -20 LINE"
);
},
{
closed = 1;
nodes = (
"374 -178 LINE",
"431 -178 LINE SMOOTH",
"465 -178 OFFCURVE",
"492 -172.333 OFFCURVE",
"512 -161 CURVE SMOOTH",
"532 -149.667 OFFCURVE",
"546.333 -133.333 OFFCURVE",
"555 -112 CURVE SMOOTH",
"563.667 -90.667 OFFCURVE",
"568 -65.333 OFFCURVE",
"568 -36 CURVE SMOOTH",
"568 38 LINE",
"522 38 LINE",
"522 -42 LINE SMOOTH",
"522 -78.667 OFFCURVE",
"514 -104.167 OFFCURVE",
"498 -118.5 CURVE SMOOTH",
"482 -132.833 OFFCURVE",
"460 -140 OFFCURVE",
"432 -140 CURVE SMOOTH",
"374 -140 LINE",
"374 -178 LINE"
);
}
);
width = 650;
}
);
note = Eng;
unicode = 014A;
},
{
glyphname = O;
layers = (
{
layerId = "1F6A8684-966D-4E56-8239-254FA8D05321";
paths = (
{
closed = 1;
nodes = (
"383.333 -12 OFFCURVE",
"433 3 OFFCURVE",
"475 33 CURVE SMOOTH",
"517 63 OFFCURVE",
"549.333 105.167 OFFCURVE",
"572 159.5 CURVE SMOOTH",
"594.667 213.833 OFFCURVE",
"606 277 OFFCURVE",
"606 349 CURVE SMOOTH",
"606 421 OFFCURVE",
"594.667 484.167 OFFCURVE",
"572 538.5 CURVE SMOOTH",
"549.333 592.833 OFFCURVE",
"517 635 OFFCURVE",
"475 665 CURVE SMOOTH",
"433 695 OFFCURVE",
"383.333 710 OFFCURVE",
"326 710 CURVE SMOOTH",
"268.667 710 OFFCURVE",
"219 695 OFFCURVE",
"177 665 CURVE SMOOTH",
"135 635 OFFCURVE",
"102.667 592.833 OFFCURVE",
"80 538.5 CURVE SMOOTH",
"57.333 484.167 OFFCURVE",
"46 421 OFFCURVE",
"46 349 CURVE SMOOTH",
"46 277 OFFCURVE",
"57.333 213.833 OFFCURVE",
"80 159.5 CURVE SMOOTH",
"102.667 105.167 OFFCURVE",
"135 63 OFFCURVE",
"177 33 CURVE SMOOTH",
"219 3 OFFCURVE",
"268.667 -12 OFFCURVE",
"326 -12 CURVE",
"326 -12 LINE"
);
},
{
closed = 1;
nodes = (
"279.333 33 OFFCURVE",
"238.833 46.167 OFFCURVE",
"204.5 72.5 CURVE SMOOTH",
"170.167 98.833 OFFCURVE",
"143.667 135.833 OFFCURVE",
"125 183.5 CURVE SMOOTH",
"106.333 231.167 OFFCURVE",
"97 286.333 OFFCURVE",
"97 349 CURVE SMOOTH",
"97 411.667 OFFCURVE",
"106.333 466.667 OFFCURVE",
"125 514 CURVE SMOOTH",
"143.667 561.333 OFFCURVE",
"170.167 598.333 OFFCURVE",
"204.5 625 CURVE SMOOTH",
"238.833 651.667 OFFCURVE",
"279.333 665 OFFCURVE",
"326 665 CURVE SMOOTH",
"372.667 665 OFFCURVE",
"413.167 651.667 OFFCURVE",
"447.5 625 CURVE SMOOTH",
"481.833 598.333 OFFCURVE",
"508.333 561.333 OFFCURVE",
"527 514 CURVE SMOOTH",
"545.667 466.667 OFFCURVE",
"555 411.667 OFFCURVE",
"555 349 CURVE SMOOTH",
"555 286.333 OFFCURVE",
"545.667 231.167 OFFCURVE",
"527 183.5 CURVE SMOOTH",
"508.333 135.833 OFFCURVE",
"481.833 98.833 OFFCURVE",
"447.5 72.5 CURVE SMOOTH",
"413.167 46.167 OFFCURVE",
"372.667 33 OFFCURVE",
"326 33 CURVE SMOOTH",
"326 33 LINE SMOOTH"
);
}
);
width = 650;
}
);
note = O;
unicode = 004F;
},
{
glyphname = Oslash;
layers = (
{
layerId = "1F6A8684-966D-4E56-8239-254FA8D05321";
paths = (
{
closed = 1;
nodes = (
"382 -12 OFFCURVE",
"431.833 3.667 OFFCURVE",
"475.5 35 CURVE SMOOTH",
"519.167 66.333 OFFCURVE",
"553.5 109.167 OFFCURVE",
"578.5 163.5 CURVE SMOOTH",
"603.5 217.833 OFFCURVE",
"616 279.667 OFFCURVE",
"616 349 CURVE SMOOTH",
"616 419 OFFCURVE",
"603.5 481.167 OFFCURVE",
"578.5 535.5 CURVE SMOOTH",
"553.5 589.833 OFFCURVE",
"519.167 632.5 OFFCURVE",
"475.5 663.5 CURVE SMOOTH",
"431.833 694.5 OFFCURVE",
"382 710 OFFCURVE",
"326 710 CURVE SMOOTH",
"270 710 OFFCURVE",
"220.167 694.5 OFFCURVE",
"176.5 663.5 CURVE SMOOTH",
"132.833 632.5 OFFCURVE",
"98.5 590 OFFCURVE",
"73.5 536 CURVE SMOOTH",
"48.5 482 OFFCURVE",
"36 419.667 OFFCURVE",
"36 349 CURVE SMOOTH",
"36 279 OFFCURVE",
"48.5 216.833 OFFCURVE",
"73.5 162.5 CURVE SMOOTH",
"98.5 108.167 OFFCURVE",
"132.833 65.5 OFFCURVE",
"176.5 34.5 CURVE SMOOTH",
"220.167 3.5 OFFCURVE",
"270 -12 OFFCURVE",
"326 -12 CURVE",
"326 -12 LINE"
);
},
{
closed = 1;
nodes = (
"280.667 33 OFFCURVE",
"240 46.667 OFFCURVE",
"204 74 CURVE SMOOTH",
"168 101.333 OFFCURVE",
"139.667 138.833 OFFCURVE",
"119 186.5 CURVE SMOOTH",
"98.333 234.167 OFFCURVE",
"88 288.333 OFFCURVE",
"88 349 CURVE SMOOTH",
"88 411 OFFCURVE",
"98.333 465.667 OFFCURVE",
"119 513 CURVE SMOOTH",
"139.667 560.333 OFFCURVE",
"168 597.5 OFFCURVE",
"204 624.5 CURVE SMOOTH",
"240 651.5 OFFCURVE",
"280.667 665 OFFCURVE",
"326 665 CURVE SMOOTH",
"372 665 OFFCURVE",
"412.833 651.333 OFFCURVE",
"448.5 624 CURVE SMOOTH",
"484.167 596.667 OFFCURVE",
"512.333 559.333 OFFCURVE",
"533 512 CURVE SMOOTH",
"553.667 464.667 OFFCURVE",
"564 410.333 OFFCURVE",
"564 349 CURVE SMOOTH",
"564 289 OFFCURVE",
"553.667 235.167 OFFCURVE",
"533 187.5 CURVE SMOOTH",
"512.333 139.833 OFFCURVE",
"484.167 102.167 OFFCURVE",
"448.5 74.5 CURVE SMOOTH",
"412.833 46.833 OFFCURVE",
"372 33 OFFCURVE",
"326 33 CURVE SMOOTH",
"326 33 LINE SMOOTH"
);
},
{
closed = 1;
nodes = (
"162 -47 LINE",
"533 726 LINE",
"490 745 LINE",
"119 -28 LINE",
"162 -47 LINE"
);
}
);
width = 650;
}
);
note = Oslash;
unicode = 00D8;
},
{
glyphname = OE;
layers = (
{
layerId = "1F6A8684-966D-4E56-8239-254FA8D05321";
paths = (
{
closed = 1;
nodes = (
"370 340 LINE",
"557 340 LINE",
"557 385 LINE",
"370 385 LINE",
"370 653 LINE",
"628 653 LINE",
"628 698 LINE",
"315 698 LINE SMOOTH",
"275 698 OFFCURVE",
"237.333 689.833 OFFCURVE",
"202 673.5 CURVE SMOOTH",
"166.667 657.167 OFFCURVE",
"135.5 633.833 OFFCURVE",
"108.5 603.5 CURVE SMOOTH",
"81.5 573.167 OFFCURVE",
"60.333 536.667 OFFCURVE",
"45 494 CURVE SMOOTH",
"29.667 451.333 OFFCURVE",
"22 403.667 OFFCURVE",
"22 351 CURVE SMOOTH",
"22 297.667 OFFCURVE",
"29.667 249.5 OFFCURVE",
"45 206.5 CURVE SMOOTH",
"60.333 163.5 OFFCURVE",
"81.5 126.5 OFFCURVE",
"108.5 95.5 CURVE SMOOTH",
"135.5 64.5 OFFCURVE",
"166.667 40.833 OFFCURVE",
"202 24.5 CURVE SMOOTH",
"237.333 8.167 OFFCURVE",
"275 0 OFFCURVE",
"315 0 CURVE SMOOTH",
"632 0 LINE",
"632 45 LINE",
"370 45 LINE",
"370 340 LINE"
);
},
{
closed = 1;
nodes = (
"272.333 45 OFFCURVE",
"232.667 57.667 OFFCURVE",
"196 83 CURVE SMOOTH",
"159.333 108.333 OFFCURVE",
"129.833 144 OFFCURVE",
"107.5 190 CURVE SMOOTH",
"85.167 236 OFFCURVE",
"74 289.667 OFFCURVE",
"74 351 CURVE SMOOTH",
"74 412.333 OFFCURVE",
"85.167 465.5 OFFCURVE",
"107.5 510.5 CURVE SMOOTH",
"129.833 555.5 OFFCURVE",
"159.333 590.5 OFFCURVE",
"196 615.5 CURVE SMOOTH",
"232.667 640.5 OFFCURVE",
"272.333 653 OFFCURVE",
"315 653 CURVE SMOOTH",
"323 653 LINE",
"323 45 LINE",
"315 45 LINE",
"315 45 LINE SMOOTH"
);
}
);
width = 650;
}
);
note = OE;
unicode = 0152;
},
{
glyphname = P;
layers = (
{
layerId = "1F6A8684-966D-4E56-8239-254FA8D05321";
paths = (
{
closed = 1;
nodes = (
"136 291 LINE",
"341 291 LINE SMOOTH",
"389.667 291 OFFCURVE",
"432.333 299.5 OFFCURVE",
"469 316.5 CURVE SMOOTH",
"505.667 333.5 OFFCURVE",
"534.167 357.5 OFFCURVE",
"554.5 388.5 CURVE SMOOTH",
"574.833 419.5 OFFCURVE",
"585 455.333 OFFCURVE",
"585 496 CURVE SMOOTH",
"585 537.333 OFFCURVE",
"575.667 573 OFFCURVE",
"557 603 CURVE SMOOTH",
"538.333 633 OFFCURVE",
"512.167 656.333 OFFCURVE",
"478.5 673 CURVE SMOOTH",
"444.833 689.667 OFFCURVE",
"405.333 698 OFFCURVE",
"360 698 CURVE SMOOTH",
"136 698 LINE",
"136 653 LINE",
"360 653 LINE SMOOTH",
"412 653 OFFCURVE",
"453.833 638.667 OFFCURVE",
"485.5 610 CURVE SMOOTH",
"517.167 581.333 OFFCURVE",
"533 543.333 OFFCURVE",
"533 496 CURVE SMOOTH",
"533 448 OFFCURVE",
"515.333 409.333 OFFCURVE",
"480 380 CURVE SMOOTH",
"444.667 350.667 OFFCURVE",
"398.333 336 OFFCURVE",
"341 336 CURVE SMOOTH",
"136 336 LINE",
"136 291 LINE"
);
},
{
closed = 1;
nodes = (
"102 0 LINE",
"149 0 LINE",
"149 698 LINE",
"102 698 LINE",
"102 0 LINE"
);
}
);
width = 650;
}
);
note = P;
unicode = 0050;
},
{
glyphname = Thorn;
layers = (
{
layerId = "1F6A8684-966D-4E56-8239-254FA8D05321";
paths = (
{
closed = 1;
nodes = (
"144 150 LINE",
"349 150 LINE SMOOTH",
"397.667 150 OFFCURVE",
"440.333 158.5 OFFCURVE",
"477 175.5 CURVE SMOOTH",
"513.667 192.5 OFFCURVE",
"542.167 216.333 OFFCURVE",
"562.5 247 CURVE SMOOTH",
"582.833 277.667 OFFCURVE",
"593 313.333 OFFCURVE",
"593 354 CURVE SMOOTH",
"593 395.333 OFFCURVE",
"583.667 431.333 OFFCURVE",
"565 462 CURVE SMOOTH",
"546.333 492.667 OFFCURVE",
"520.167 516.333 OFFCURVE",
"486.5 533 CURVE SMOOTH",
"452.833 549.667 OFFCURVE",
"413.333 558 OFFCURVE",
"368 558 CURVE SMOOTH",
"144 558 LINE",
"144 513 LINE",
"368 513 LINE SMOOTH",
"420 513 OFFCURVE",
"461.833 498.5 OFFCURVE",
"493.5 469.5 CURVE SMOOTH",
"525.167 440.5 OFFCURVE",
"541 402 OFFCURVE",
"541 354 CURVE SMOOTH",
"541 306.667 OFFCURVE",
"523.333 268.333 OFFCURVE",
"488 239 CURVE SMOOTH",
"452.667 209.667 OFFCURVE",
"406.333 195 OFFCURVE",
"349 195 CURVE SMOOTH",
"144 195 LINE",
"144 150 LINE"
);
},
{
closed = 1;
nodes = (
"109 0 LINE",
"157 0 LINE",
"157 699 LINE",
"109 699 LINE",
"109 0 LINE"
);
}
);
width = 650;
}
);
note = Thorn;
unicode = 00DE;
},
{
glyphname = Q;
layers = (
{
layerId = "1F6A8684-966D-4E56-8239-254FA8D05321";
paths = (
{
closed = 1;
nodes = (
"328 -12 LINE",
"608 -12 LINE",
"639 31 LINE",
"525 24 LINE",
"439 15 LINE",
"475 29.667 OFFCURVE",
"506.5 52.667 OFFCURVE",
"533.5 84 CURVE SMOOTH",
"560.5 115.333 OFFCURVE",
"581.667 153.5 OFFCURVE",
"597 198.5 CURVE SMOOTH",
"612.333 243.5 OFFCURVE",
"620 293.667 OFFCURVE",
"620 349 CURVE SMOOTH",
"620 419.667 OFFCURVE",
"607.333 482 OFFCURVE",
"582 536 CURVE SMOOTH",
"556.667 590 OFFCURVE",
"522.167 632.5 OFFCURVE",
"478.5 663.5 CURVE SMOOTH",
"434.833 694.5 OFFCURVE",
"384.667 710 OFFCURVE",
"328 710 CURVE SMOOTH",
"272 710 OFFCURVE",
"222 694.5 OFFCURVE",
"178 663.5 CURVE SMOOTH",
"134 632.5 OFFCURVE",
"99.333 589.833 OFFCURVE",
"74 535.5 CURVE SMOOTH",
"48.667 481.167 OFFCURVE",
"36 419 OFFCURVE",
"36 349 CURVE SMOOTH",
"36 281 OFFCURVE",
"48.333 219.667 OFFCURVE",
"73 165 CURVE SMOOTH",
"97.667 110.333 OFFCURVE",
"132 67.167 OFFCURVE",
"176 35.5 CURVE SMOOTH",
"220 3.833 OFFCURVE",
"270.667 -12 OFFCURVE",
"328 -12 CURVE"
);
},
{
closed = 1;
nodes = (
"282.667 33 OFFCURVE",
"241.833 46.667 OFFCURVE",
"205.5 74 CURVE SMOOTH",
"169.167 101.333 OFFCURVE",
"140.5 138.833 OFFCURVE",
"119.5 186.5 CURVE SMOOTH",
"98.5 234.167 OFFCURVE",
"88 288.333 OFFCURVE",
"88 349 CURVE SMOOTH",
"88 411 OFFCURVE",
"98.5 465.667 OFFCURVE",
"119.5 513 CURVE SMOOTH",
"140.5 560.333 OFFCURVE",
"169.167 597.5 OFFCURVE",
"205.5 624.5 CURVE SMOOTH",
"241.833 651.5 OFFCURVE",
"282.667 665 OFFCURVE",
"328 665 CURVE SMOOTH",
"374 665 OFFCURVE",
"415 651.5 OFFCURVE",
"451 624.5 CURVE SMOOTH",
"487 597.5 OFFCURVE",
"515.5 560.167 OFFCURVE",
"536.5 512.5 CURVE SMOOTH",
"557.5 464.833 OFFCURVE",
"568 410.333 OFFCURVE",
"568 349 CURVE SMOOTH",
"568 288.333 OFFCURVE",
"557.5 234.167 OFFCURVE",
"536.5 186.5 CURVE SMOOTH",
"515.5 138.833 OFFCURVE",
"487 101.333 OFFCURVE",
"451 74 CURVE SMOOTH",
"415 46.667 OFFCURVE",
"374 33 OFFCURVE",
"328 33 CURVE SMOOTH",
"328 33 LINE SMOOTH"
);
}
);
width = 650;
}
);
note = Q;
unicode = 0051;
},
{
glyphname = R;
layers = (
{
layerId = "1F6A8684-966D-4E56-8239-254FA8D05321";
paths = (
{
closed = 1;
nodes = (
"140 323 LINE",
"337 323 LINE SMOOTH",
"377 323 OFFCURVE",
"412.5 328.167 OFFCURVE",
"443.5 338.5 CURVE SMOOTH",
"474.5 348.833 OFFCURVE",
"500.833 363 OFFCURVE",
"522.5 381 CURVE SMOOTH",
"544.167 399 OFFCURVE",
"560.667 419.667 OFFCURVE",
"572 443 CURVE SMOOTH",
"583.333 466.333 OFFCURVE",
"589 491 OFFCURVE",
"589 517 CURVE SMOOTH",
"589 555 OFFCURVE",
"579.333 587.5 OFFCURVE",
"560 614.5 CURVE SMOOTH",
"540.667 641.5 OFFCURVE",
"514.5 662.167 OFFCURVE",
"481.5 676.5 CURVE SMOOTH",
"448.5 690.833 OFFCURVE",
"411.333 698 OFFCURVE",
"370 698 CURVE SMOOTH",
"140 698 LINE",
"140 653 LINE",
"370 653 LINE SMOOTH",
"400.667 653 OFFCURVE",
"428.667 647.5 OFFCURVE",
"454 636.5 CURVE SMOOTH",
"479.333 625.5 OFFCURVE",
"499.5 610 OFFCURVE",
"514.5 590 CURVE SMOOTH",
"529.5 570 OFFCURVE",
"537 545.667 OFFCURVE",
"537 517 CURVE SMOOTH",
"537 486.333 OFFCURVE",
"528.333 459.667 OFFCURVE",
"511 437 CURVE SMOOTH",
"493.667 414.333 OFFCURVE",
"470 397 OFFCURVE",
"440 385 CURVE SMOOTH",
"410 373 OFFCURVE",
"375.667 367 OFFCURVE",
"337 367 CURVE SMOOTH",
"140 367 LINE",
"140 323 LINE"
);
},
{
closed = 1;
nodes = (
"107 0 LINE",
"154 0 LINE",
"154 698 LINE",
"107 698 LINE",
"107 0 LINE"
);
},
{
closed = 1;
nodes = (
"529 0 LINE",
"575 0 LINE",
"569 35.333 OFFCURVE",
"559.667 69 OFFCURVE",
"547 101 CURVE SMOOTH",
"534.333 133 OFFCURVE",
"516.5 163.667 OFFCURVE",
"493.5 193 CURVE SMOOTH",
"470.5 222.333 OFFCURVE",
"441.667 250.5 OFFCURVE",
"407 277.5 CURVE SMOOTH",
"372.333 304.5 OFFCURVE",
"330 330.333 OFFCURVE",
"280 355 CURVE",
"227 340 LINE",
"273.667 316 OFFCURVE",
"314.333 291.167 OFFCURVE",
"349 265.5 CURVE SMOOTH",
"383.667 239.833 OFFCURVE",
"412.833 212.833 OFFCURVE",
"436.5 184.5 CURVE SMOOTH",
"460.167 156.167 OFFCURVE",
"479.5 126.667 OFFCURVE",
"494.5 96 CURVE SMOOTH",
"509.5 65.333 OFFCURVE",
"521 33.333 OFFCURVE",
"529 0 CURVE"
);
}
);
width = 650;
}
);
note = R;
unicode = 0052;
},
{
glyphname = S;
layers = (
{
layerId = "1F6A8684-966D-4E56-8239-254FA8D05321";
paths = (
{
closed = 1;
nodes = (
"384 -12 OFFCURVE",
"423.833 -4.5 OFFCURVE",
"459.5 10.5 CURVE SMOOTH",
"495.167 25.5 OFFCURVE",
"523.5 47.5 OFFCURVE",
"544.5 76.5 CURVE SMOOTH",
"565.5 105.5 OFFCURVE",
"576 141 OFFCURVE",
"576 183 CURVE SMOOTH",
"576 219.667 OFFCURVE",
"568.167 249.833 OFFCURVE",
"552.5 273.5 CURVE SMOOTH",
"536.833 297.167 OFFCURVE",
"516.167 316.167 OFFCURVE",
"490.5 330.5 CURVE SMOOTH",
"464.833 344.833 OFFCURVE",
"436.833 356.5 OFFCURVE",
"406.5 365.5 CURVE SMOOTH",
"376.167 374.5 OFFCURVE",
"345.667 383 OFFCURVE",
"315 391 CURVE SMOOTH",
"284.333 399 OFFCURVE",
"256.167 408.167 OFFCURVE",
"230.5 418.5 CURVE SMOOTH",
"204.833 428.833 OFFCURVE",
"184.167 442.333 OFFCURVE",
"168.5 459 CURVE SMOOTH",
"152.833 475.667 OFFCURVE",
"145 497.667 OFFCURVE",
"145 525 CURVE SMOOTH",
"145 567 OFFCURVE",
"161 600.833 OFFCURVE",
"193 626.5 CURVE SMOOTH",
"225 652.167 OFFCURVE",
"268 665 OFFCURVE",
"322 665 CURVE SMOOTH",
"359.333 665 OFFCURVE",
"392.5 658.333 OFFCURVE",
"421.5 645 CURVE SMOOTH",
"450.5 631.667 OFFCURVE",
"473.333 613.167 OFFCURVE",
"490 589.5 CURVE SMOOTH",
"506.667 565.833 OFFCURVE",
"515 538.667 OFFCURVE",
"515 508 CURVE",
"563 508 LINE",
"562.333 548.667 OFFCURVE",
"551.833 584 OFFCURVE",
"531.5 614 CURVE SMOOTH",
"511.167 644 OFFCURVE",
"483.167 667.5 OFFCURVE",
"447.5 684.5 CURVE SMOOTH",
"411.833 701.5 OFFCURVE",
"370 710 OFFCURVE",
"322 710 CURVE SMOOTH",
"275.333 710 OFFCURVE",
"234.833 702.333 OFFCURVE",
"200.5 687 CURVE SMOOTH",
"166.167 671.667 OFFCURVE",
"139.667 650 OFFCURVE",
"121 622 CURVE SMOOTH",
"102.333 594 OFFCURVE",
"93 561.333 OFFCURVE",
"93 524 CURVE SMOOTH",
"93 490 OFFCURVE",
"100.833 462.167 OFFCURVE",
"116.5 440.5 CURVE SMOOTH",
"132.167 418.833 OFFCURVE",
"152.833 401.5 OFFCURVE",
"178.5 388.5 CURVE SMOOTH",
"204.167 375.5 OFFCURVE",
"232.333 364.667 OFFCURVE",
"263 356 CURVE SMOOTH",
"293.667 347.333 OFFCURVE",
"324.167 338.833 OFFCURVE",
"354.5 330.5 CURVE SMOOTH",
"384.833 322.167 OFFCURVE",
"412.833 312.333 OFFCURVE",
"438.5 301 CURVE SMOOTH",
"464.167 289.667 OFFCURVE",
"484.833 274.5 OFFCURVE",
"500.5 255.5 CURVE SMOOTH",
"516.167 236.5 OFFCURVE",
"524 211.667 OFFCURVE",
"524 181 CURVE SMOOTH",
"524 134.333 OFFCURVE",
"506.833 98 OFFCURVE",
"472.5 72 CURVE SMOOTH",
"438.167 46 OFFCURVE",
"393.667 33 OFFCURVE",
"339 33 CURVE SMOOTH",
"276.333 33 OFFCURVE",
"225.667 51.333 OFFCURVE",
"187 88 CURVE SMOOTH",
"148.333 124.667 OFFCURVE",
"129 176.667 OFFCURVE",
"129 244 CURVE",
"81 244 LINE",
"81 188 OFFCURVE",
"92 141 OFFCURVE",
"114 103 CURVE SMOOTH",
"136 65 OFFCURVE",
"166.5 36.333 OFFCURVE",
"205.5 17 CURVE SMOOTH",
"244.5 -2.333 OFFCURVE",
"289.333 -12 OFFCURVE",
"340 -12 CURVE",
"340 -12 LINE"
);
}
);
width = 650;
}
);
note = S;
unicode = 0053;
},
{
glyphname = Germandbls;
layers = (
{
layerId = "1F6A8684-966D-4E56-8239-254FA8D05321";
paths = (
{
closed = 1;
nodes = (
"416.667 -12 OFFCURVE",
"476.167 6.333 OFFCURVE",
"520.5 43 CURVE SMOOTH",
"564.833 79.667 OFFCURVE",
"587.333 129.333 OFFCURVE",
"588 192 CURVE SMOOTH",
"588.667 226 OFFCURVE",
"581.167 255.5 OFFCURVE",
"565.5 280.5 CURVE SMOOTH",
"549.833 305.5 OFFCURVE",
"529.333 325.5 OFFCURVE",
"504 340.5 CURVE SMOOTH",
"478.667 355.5 OFFCURVE",
"451.333 364.667 OFFCURVE",
"422 368 CURVE",
"409 364 LINE",
"443 366.667 OFFCURVE",
"470.833 376.333 OFFCURVE",
"492.5 393 CURVE SMOOTH",
"514.167 409.667 OFFCURVE",
"530 430.167 OFFCURVE",
"540 454.5 CURVE SMOOTH",
"550 478.833 OFFCURVE",
"555 504 OFFCURVE",
"555 530 CURVE SMOOTH",
"555 564.667 OFFCURVE",
"546.167 594.5 OFFCURVE",
"528.5 619.5 CURVE SMOOTH",
"510.833 644.5 OFFCURVE",
"485.5 663.833 OFFCURVE",
"452.5 677.5 CURVE SMOOTH",
"419.5 691.167 OFFCURVE",
"380 698 OFFCURVE",
"334 698 CURVE SMOOTH",
"103 698 LINE",
"103 0 LINE",
"150 0 LINE",
"150 653 LINE",
"335 653 LINE SMOOTH",
"388.333 653 OFFCURVE",
"429.833 641.833 OFFCURVE",
"459.5 619.5 CURVE SMOOTH",
"489.167 597.167 OFFCURVE",
"504 565 OFFCURVE",
"504 523 CURVE SMOOTH",
"504 481 OFFCURVE",
"489.167 447.5 OFFCURVE",
"459.5 422.5 CURVE SMOOTH",
"429.833 397.5 OFFCURVE",
"388.333 385 OFFCURVE",
"335 385 CURVE SMOOTH",
"233 385 LINE",
"233 340 LINE",
"346 340 LINE SMOOTH",
"405.333 340 OFFCURVE",
"451.833 327.333 OFFCURVE",
"485.5 302 CURVE SMOOTH",
"519.167 276.667 OFFCURVE",
"536.333 240 OFFCURVE",
"537 192 CURVE SMOOTH",
"537.667 154.667 OFFCURVE",
"529.167 124 OFFCURVE",
"511.5 100 CURVE SMOOTH",
"493.833 76 OFFCURVE",
"470 58.333 OFFCURVE",
"440 47 CURVE SMOOTH",
"410 35.667 OFFCURVE",
"376.667 30 OFFCURVE",
"340 30 CURVE SMOOTH",
"324.667 30 OFFCURVE",
"307.5 31.5 OFFCURVE",
"288.5 34.5 CURVE SMOOTH",
"269.5 37.5 OFFCURVE",
"251 41.667 OFFCURVE",
"233 47 CURVE",
"233 5 LINE",
"251 -0.333 OFFCURVE",
"269.667 -4.5 OFFCURVE",
"289 -7.5 CURVE SMOOTH",
"308.333 -10.5 OFFCURVE",
"326 -12 OFFCURVE",
"342 -12 CURVE",
"342 -12 LINE"
);
}
);
width = 650;
}
);
note = uni1E9E;
unicode = 1E9E;
},
{
glyphname = T;
layers = (
{
layerId = "1F6A8684-966D-4E56-8239-254FA8D05321";
paths = (
{
closed = 1;
nodes = (
"301 0 LINE",
"348 0 LINE",
"348 653 LINE",
"594 653 LINE",
"594 698 LINE",
"55 698 LINE",
"55 653 LINE",
"301 653 LINE",
"301 0 LINE"
);
}
);
width = 650;
}
);
note = T;
unicode = 0054;
},
{
glyphname = U;
layers = (
{
layerId = "1F6A8684-966D-4E56-8239-254FA8D05321";
paths = (
{
closed = 1;
nodes = (
"374.667 -12 OFFCURVE",
"418.167 -1.167 OFFCURVE",
"456.5 20.5 CURVE SMOOTH",
"494.833 42.167 OFFCURVE",
"525.167 72.333 OFFCURVE",
"547.5 111 CURVE SMOOTH",
"569.833 149.667 OFFCURVE",
"581 194.333 OFFCURVE",
"581 245 CURVE SMOOTH",
"581 698 LINE",
"532 698 LINE",
"532 245 LINE SMOOTH",
"532 203 OFFCURVE",
"523.333 166.167 OFFCURVE",
"506 134.5 CURVE SMOOTH",
"488.667 102.833 OFFCURVE",
"464.667 78 OFFCURVE",
"434 60 CURVE SMOOTH",
"403.333 42 OFFCURVE",
"367.333 33 OFFCURVE",
"326 33 CURVE SMOOTH",
"284.667 33 OFFCURVE",
"248.5 42 OFFCURVE",
"217.5 60 CURVE SMOOTH",
"186.5 78 OFFCURVE",
"162.333 102.833 OFFCURVE",
"145 134.5 CURVE SMOOTH",
"127.667 166.167 OFFCURVE",
"119 203 OFFCURVE",
"119 245 CURVE SMOOTH",
"119 698 LINE",
"70 698 LINE",
"70 245 LINE SMOOTH",
"70 194.333 OFFCURVE",
"81.167 149.667 OFFCURVE",
"103.5 111 CURVE SMOOTH",
"125.833 72.333 OFFCURVE",
"156.333 42.167 OFFCURVE",
"195 20.5 CURVE SMOOTH",
"233.667 -1.167 OFFCURVE",
"277.333 -12 OFFCURVE",
"326 -12 CURVE",
"326 -12 LINE"
);
}
);
width = 650;
}
);
note = U;
unicode = 0055;
},
{
glyphname = V;
layers = (
{
layerId = "1F6A8684-966D-4E56-8239-254FA8D05321";
paths = (
{
closed = 1;
nodes = (
"296 0 LINE",
"354 0 LINE",
"614 698 LINE",
"565 698 LINE",
"368 170 LINE",
"326 51 LINE",
"283 172 LINE",
"87 698 LINE",
"36 698 LINE",
"296 0 LINE"
);
}
);
width = 650;
}
);
note = V;
unicode = 0056;
},
{
glyphname = W;
layers = (
{
layerId = "1F6A8684-966D-4E56-8239-254FA8D05321";
paths = (
{
closed = 1;
nodes = (
"126 0 LINE",
"196 0 LINE",
"308 512 LINE",
"329 623 LINE",
"349 512 LINE",
"457 0 LINE",
"524 0 LINE",
"632 698 LINE",
"584 698 LINE",
"504 178 LINE",
"489 53 LINE",
"466 178 LINE",
"356 698 LINE",
"302 698 LINE",
"189 178 LINE",
"164 53 LINE",
"147 178 LINE",
"67 698 LINE",
"18 698 LINE",
"126 0 LINE"
);
}
);
width = 650;
}
);
note = W;
unicode = 0057;
},
{
glyphname = X;
layers = (
{
layerId = "1F6A8684-966D-4E56-8239-254FA8D05321";
paths = (
{
closed = 1;
nodes = (
"56 0 LINE",
"109 0 LINE",
"242 199 LINE",
"323 325 LINE",
"406 200 LINE",
"536 0 LINE",
"591 0 LINE",
"356 360 LINE",
"579 698 LINE",
"526 698 LINE",
"407 517 LINE",
"323 391 LINE",
"240 516 LINE",
"121 698 LINE",
"66 698 LINE",
"290 356 LINE",
"56 0 LINE"
);
}
);
width = 650;
}
);
note = X;
unicode = 0058;
},
{
glyphname = Y;
layers = (
{
layerId = "1F6A8684-966D-4E56-8239-254FA8D05321";
paths = (
{
closed = 1;
nodes = (
"300 0 LINE",
"347 0 LINE",
"347 283 LINE",
"591 698 LINE",
"536 698 LINE",
"394 454 LINE",
"324 330 LINE",
"255 453 LINE",
"113 698 LINE",
"58 698 LINE",
"300 283 LINE",
"300 0 LINE"
);
}
);
width = 650;
}
);
note = Y;
unicode = 0059;
},
{
glyphname = Z;
layers = (
{
layerId = "1F6A8684-966D-4E56-8239-254FA8D05321";
paths = (
{
closed = 1;
nodes = (
"63 0 LINE",
"584 0 LINE",
"584 45 LINE",
"265 45 LINE",
"127 45 LINE",
"209 155 LINE",
"584 660 LINE",
"584 698 LINE",
"79 698 LINE",
"79 653 LINE",
"382 653 LINE",
"520 653 LINE",
"438 543 LINE",
"63 38 LINE",
"63 0 LINE"
);
}
);
width = 650;
}
);
note = Z;
unicode = 005A;
},
{
glyphname = Q.ss03;
layers = (
{
layerId = "1F6A8684-966D-4E56-8239-254FA8D05321";
paths = (
{
closed = 1;
nodes = (
"303 -178 LINE",
"350 -178 LINE",
"350 22 LINE",
"303 22 LINE",
"303 -178 LINE"
);
},
{
closed = 1;
nodes = (
"383.333 -12 OFFCURVE",
"433 3 OFFCURVE",
"475 33 CURVE SMOOTH",
"517 63 OFFCURVE",
"549.333 105.167 OFFCURVE",
"572 159.5 CURVE SMOOTH",
"594.667 213.833 OFFCURVE",
"606 277 OFFCURVE",
"606 349 CURVE SMOOTH",
"606 421 OFFCURVE",
"594.667 484.167 OFFCURVE",
"572 538.5 CURVE SMOOTH",
"549.333 592.833 OFFCURVE",
"517 635 OFFCURVE",
"475 665 CURVE SMOOTH",
"433 695 OFFCURVE",
"383.333 710 OFFCURVE",
"326 710 CURVE SMOOTH",
"268.667 710 OFFCURVE",
"219 695 OFFCURVE",
"177 665 CURVE SMOOTH",
"135 635 OFFCURVE",
"102.667 592.833 OFFCURVE",
"80 538.5 CURVE SMOOTH",
"57.333 484.167 OFFCURVE",
"46 421 OFFCURVE",
"46 349 CURVE SMOOTH",
"46 277 OFFCURVE",
"57.333 213.833 OFFCURVE",
"80 159.5 CURVE SMOOTH",
"102.667 105.167 OFFCURVE",
"135 63 OFFCURVE",
"177 33 CURVE SMOOTH",
"219 3 OFFCURVE",
"268.667 -12 OFFCURVE",
"326 -12 CURVE",
"326 -12 LINE"
);
},
{
closed = 1;
nodes = (
"279.333 33 OFFCURVE",
"238.833 46.167 OFFCURVE",
"204.5 72.5 CURVE SMOOTH",
"170.167 98.833 OFFCURVE",
"143.667 135.833 OFFCURVE",
"125 183.5 CURVE SMOOTH",
"106.333 231.167 OFFCURVE",
"97 286.333 OFFCURVE",
"97 349 CURVE SMOOTH",
"97 411.667 OFFCURVE",
"106.333 466.667 OFFCURVE",
"125 514 CURVE SMOOTH",
"143.667 561.333 OFFCURVE",
"170.167 598.333 OFFCURVE",
"204.5 625 CURVE SMOOTH",
"238.833 651.667 OFFCURVE",
"279.333 665 OFFCURVE",
"326 665 CURVE SMOOTH",
"372.667 665 OFFCURVE",
"413.167 651.667 OFFCURVE",
"447.5 625 CURVE SMOOTH",
"481.833 598.333 OFFCURVE",
"508.333 561.333 OFFCURVE",
"527 514 CURVE SMOOTH",
"545.667 466.667 OFFCURVE",
"555 411.667 OFFCURVE",
"555 349 CURVE SMOOTH",
"555 286.333 OFFCURVE",
"545.667 231.167 OFFCURVE",
"527 183.5 CURVE SMOOTH",
"508.333 135.833 OFFCURVE",
"481.833 98.833 OFFCURVE",
"447.5 72.5 CURVE SMOOTH",
"413.167 46.167 OFFCURVE",
"372.667 33 OFFCURVE",
"326 33 CURVE SMOOTH",
"326 33 LINE SMOOTH"
);
}
);
width = 650;
}
);
note = Q.ss03;
},
{
glyphname = C.ss04;
layers = (
{
layerId = "1F6A8684-966D-4E56-8239-254FA8D05321";
paths = (
{
closed = 1;
nodes = (
"381 0 LINE",
"599 0 LINE",
"599 45 LINE",
"381 45 LINE SMOOTH",
"328.333 45 OFFCURVE",
"281.167 57.667 OFFCURVE",
"239.5 83 CURVE SMOOTH",
"197.833 108.333 OFFCURVE",
"165 143.833 OFFCURVE",
"141 189.5 CURVE SMOOTH",
"117 235.167 OFFCURVE",
"105 288.667 OFFCURVE",
"105 350 CURVE SMOOTH",
"105 411.333 OFFCURVE",
"117 464.667 OFFCURVE",
"141 510 CURVE SMOOTH",
"165 555.333 OFFCURVE",
"197.833 590.5 OFFCURVE",
"239.5 615.5 CURVE SMOOTH",
"281.167 640.5 OFFCURVE",
"328.333 653 OFFCURVE",
"381 653 CURVE SMOOTH",
"599 653 LINE",
"599 698 LINE",
"381 698 LINE SMOOTH",
"318.333 698 OFFCURVE",
"262.333 683.5 OFFCURVE",
"213 654.5 CURVE SMOOTH",
"163.667 625.5 OFFCURVE",
"124.833 585 OFFCURVE",
"96.5 533 CURVE SMOOTH",
"68.167 481 OFFCURVE",
"54 420 OFFCURVE",
"54 350 CURVE SMOOTH",
"54 280 OFFCURVE",
"68.167 218.833 OFFCURVE",
"96.5 166.5 CURVE SMOOTH",
"124.833 114.167 OFFCURVE",
"163.667 73.333 OFFCURVE",
"213 44 CURVE SMOOTH",
"262.333 14.667 OFFCURVE",
"318.333 0 OFFCURVE",
"381 0 CURVE"
);
}
);
width = 650;
}
);
note = C.ss04;
},
{
glyphname = G.ss05;
layers = (
{
layerId = "1F6A8684-966D-4E56-8239-254FA8D05321";
paths = (
{
closed = 1;
nodes = (
"357 0 LINE",
"615 0 LINE",
"615 363 LINE",
"569 363 LINE",
"569 45 LINE",
"357 45 LINE SMOOTH",
"304.333 45 OFFCURVE",
"257.167 57.667 OFFCURVE",
"215.5 83 CURVE SMOOTH",
"173.833 108.333 OFFCURVE",
"141 143.833 OFFCURVE",
"117 189.5 CURVE SMOOTH",
"93 235.167 OFFCURVE",
"81 288.667 OFFCURVE",
"81 350 CURVE SMOOTH",
"81 411.333 OFFCURVE",
"93 464.667 OFFCURVE",
"117 510 CURVE SMOOTH",
"141 555.333 OFFCURVE",
"173.833 590.5 OFFCURVE",
"215.5 615.5 CURVE SMOOTH",
"257.167 640.5 OFFCURVE",
"304.333 653 OFFCURVE",
"357 653 CURVE SMOOTH",
"615 653 LINE",
"615 698 LINE",
"357 698 LINE SMOOTH",
"294.333 698 OFFCURVE",
"238.333 683.5 OFFCURVE",
"189 654.5 CURVE SMOOTH",
"139.667 625.5 OFFCURVE",
"100.833 585 OFFCURVE",
"72.5 533 CURVE SMOOTH",
"44.167 481 OFFCURVE",
"30 420 OFFCURVE",
"30 350 CURVE SMOOTH",
"30 280 OFFCURVE",
"44.167 218.833 OFFCURVE",
"72.5 166.5 CURVE SMOOTH",
"100.833 114.167 OFFCURVE",
"139.667 73.333 OFFCURVE",
"189 44 CURVE SMOOTH",
"238.333 14.667 OFFCURVE",
"294.333 0 OFFCURVE",
"357 0 CURVE"
);
}
);
width = 650;
}
);
note = G.ss05;
},
{
glyphname = M.ss09;
layers = (
{
layerId = "1F6A8684-966D-4E56-8239-254FA8D05321";
paths = (
{
closed = 1;
nodes = (
"48 0 LINE",
"95 0 LINE",
"95 490 LINE",
"93 628 LINE",
"138 490 LINE",
"299 0 LINE",
"351 0 LINE",
"513 490 LINE",
"558 628 LINE",
"555 490 LINE",
"555 0 LINE",
"602 0 LINE",
"602 698 LINE",
"533 698 LINE",
"359 171 LINE",
"326 65 LINE",
"293 171 LINE",
"120 698 LINE",
"48 698 LINE",
"48 0 LINE"
);
}
);
width = 650;
}
);
note = M.ss09;
},
{
glyphname = S.ss11;
layers = (
{
layerId = "1F6A8684-966D-4E56-8239-254FA8D05321";
paths = (
{
closed = 1;
nodes = (
"91 0 LINE",
"363 0 LINE SMOOTH",
"402.333 0 OFFCURVE",
"436.5 8.167 OFFCURVE",
"465.5 24.5 CURVE SMOOTH",
"494.5 40.833 OFFCURVE",
"517.167 63.333 OFFCURVE",
"533.5 92 CURVE SMOOTH",
"549.833 120.667 OFFCURVE",
"558 154 OFFCURVE",
"558 192 CURVE SMOOTH",
"558 230.667 OFFCURVE",
"549.833 264.333 OFFCURVE",
"533.5 293 CURVE SMOOTH",
"517.167 321.667 OFFCURVE",
"494.5 344.167 OFFCURVE",
"465.5 360.5 CURVE SMOOTH",
"436.5 376.833 OFFCURVE",
"402.333 385 OFFCURVE",
"363 385 CURVE SMOOTH",
"286 385 LINE SMOOTH",
"241.333 385 OFFCURVE",
"205.5 397.333 OFFCURVE",
"178.5 422 CURVE SMOOTH",
"151.5 446.667 OFFCURVE",
"138 479.333 OFFCURVE",
"138 520 CURVE SMOOTH",
"138 560.667 OFFCURVE",
"151.667 593 OFFCURVE",
"179 617 CURVE SMOOTH",
"206.333 641 OFFCURVE",
"242 653 OFFCURVE",
"286 653 CURVE SMOOTH",
"538 653 LINE",
"538 698 LINE",
"286 698 LINE SMOOTH",
"247.333 698 OFFCURVE",
"213.333 690.667 OFFCURVE",
"184 676 CURVE SMOOTH",
"154.667 661.333 OFFCURVE",
"131.833 640.667 OFFCURVE",
"115.5 614 CURVE SMOOTH",
"99.167 587.333 OFFCURVE",
"91 556 OFFCURVE",
"91 520 CURVE SMOOTH",
"91 484 OFFCURVE",
"99.167 452.5 OFFCURVE",
"115.5 425.5 CURVE SMOOTH",
"131.833 398.5 OFFCURVE",
"154.667 377.5 OFFCURVE",
"184 362.5 CURVE SMOOTH",
"213.333 347.5 OFFCURVE",
"247.333 340 OFFCURVE",
"286 340 CURVE SMOOTH",
"363 340 LINE SMOOTH",
"407.667 340 OFFCURVE",
"443.5 326.333 OFFCURVE",
"470.5 299 CURVE SMOOTH",
"497.5 271.667 OFFCURVE",
"511 236 OFFCURVE",
"511 192 CURVE SMOOTH",
"511 148.667 OFFCURVE",
"497.5 113.333 OFFCURVE",
"470.5 86 CURVE SMOOTH",
"443.5 58.667 OFFCURVE",
"407.667 45 OFFCURVE",
"363 45 CURVE SMOOTH",
"91 45 LINE",
"91 0 LINE"
);
}
);
width = 650;
}
);
note = S.ss11;
},
{
glyphname = U.ss13;
layers = (
{
layerId = "1F6A8684-966D-4E56-8239-254FA8D05321";
paths = (
{
closed = 1;
nodes = (
"333.667 -12 OFFCURVE",
"367.167 -6 OFFCURVE",
"399.5 6 CURVE SMOOTH",
"431.833 18 OFFCURVE",
"461 34.667 OFFCURVE",
"487 56 CURVE SMOOTH",
"513 77.333 OFFCURVE",
"533.333 102.333 OFFCURVE",
"548 131 CURVE",
"553 0 LINE",
"595 0 LINE",
"595 699 LINE",
"548 699 LINE",
"548 216 LINE",
"537.333 180 OFFCURVE",
"519.833 148.333 OFFCURVE",
"495.5 121 CURVE SMOOTH",
"471.167 93.667 OFFCURVE",
"442.333 72.167 OFFCURVE",
"409 56.5 CURVE SMOOTH",
"375.667 40.833 OFFCURVE",
"339.667 33 OFFCURVE",
"301 33 CURVE SMOOTH",
"235.667 33 OFFCURVE",
"184.333 53 OFFCURVE",
"147 93 CURVE SMOOTH",
"109.667 133 OFFCURVE",
"91 187 OFFCURVE",
"91 255 CURVE SMOOTH",
"91 699 LINE",
"44 699 LINE",
"44 248 LINE SMOOTH",
"44 195.333 OFFCURVE",
"54.333 149.5 OFFCURVE",
"75 110.5 CURVE SMOOTH",
"95.667 71.5 OFFCURVE",
"125 41.333 OFFCURVE",
"163 20 CURVE SMOOTH",
"201 -1.333 OFFCURVE",
"246.333 -12 OFFCURVE",
"299 -12 CURVE",
"299 -12 LINE"
);
}
);
width = 650;
}
);
note = U.ss13;
},
{
glyphname = U.ss14;
layers = (
{
layerId = "1F6A8684-966D-4E56-8239-254FA8D05321";
paths = (
{
closed = 1;
nodes = (
"299 0 LINE",
"595 0 LINE",
"595 699 LINE",
"548 699 LINE",
"548 45 LINE",
"301 45 LINE SMOOTH",
"235.667 45 OFFCURVE",
"184.333 63 OFFCURVE",
"147 99 CURVE SMOOTH",
"109.667 135 OFFCURVE",
"91 187 OFFCURVE",
"91 255 CURVE SMOOTH",
"91 699 LINE",
"44 699 LINE",
"44 248 LINE SMOOTH",
"44 168.667 OFFCURVE",
"66.833 107.5 OFFCURVE",
"112.5 64.5 CURVE SMOOTH",
"158.167 21.5 OFFCURVE",
"220.333 0 OFFCURVE",
"299 0 CURVE"
);
}
);
width = 650;
}
);
note = U.ss14;
},
{
glyphname = Y.ss15;
layers = (
{
layerId = "1F6A8684-966D-4E56-8239-254FA8D05321";
paths = (
{
closed = 1;
nodes = (
"175 0 LINE",
"222 0 LINE",
"609 698 LINE",
"562 698 LINE",
"311 245 LINE",
"175 0 LINE"
);
},
{
closed = 1;
nodes = (
"307 203 LINE",
"333 242 LINE",
"93 698 LINE",
"41 698 LINE",
"307 203 LINE"
);
}
);
width = 650;
}
);
note = Y.ss15;
},
{
glyphname = a;
layers = (
{
layerId = "1F6A8684-966D-4E56-8239-254FA8D05321";
paths = (
{
closed = 1;
nodes = (
"505 0 LINE",
"547 0 LINE",
"547 346 LINE SMOOTH",
"547 389.333 OFFCURVE",
"537.833 426.667 OFFCURVE",
"519.5 458 CURVE SMOOTH",
"501.167 489.333 OFFCURVE",
"475.167 513.5 OFFCURVE",
"441.5 530.5 CURVE SMOOTH",
"407.833 547.5 OFFCURVE",
"367.667 556 OFFCURVE",
"321 556 CURVE SMOOTH",
"278.333 556 OFFCURVE",
"240 548.5 OFFCURVE",
"206 533.5 CURVE SMOOTH",
"172 518.5 OFFCURVE",
"144.667 497.167 OFFCURVE",
"124 469.5 CURVE SMOOTH",
"103.333 441.833 OFFCURVE",
"91.667 408.333 OFFCURVE",
"89 369 CURVE",
"135 369 LINE",
"137.667 413.667 OFFCURVE",
"156.167 449 OFFCURVE",
"190.5 475 CURVE SMOOTH",
"224.833 501 OFFCURVE",
"268.667 514 OFFCURVE",
"322 514 CURVE SMOOTH",
"377.333 514 OFFCURVE",
"421 499 OFFCURVE",
"453 469 CURVE SMOOTH",
"485 439 OFFCURVE",
"501 398 OFFCURVE",
"501 346 CURVE SMOOTH",
"501 150 LINE",
"505 0 LINE"
);
},
{
closed = 1;
nodes = (
"342.333 -12 OFFCURVE",
"389.833 2 OFFCURVE",
"427.5 30 CURVE SMOOTH",
"465.167 58 OFFCURVE",
"493.333 96 OFFCURVE",
"512 144 CURVE",
"506 187 LINE",
"483.333 138.333 OFFCURVE",
"453.167 100 OFFCURVE",
"415.5 72 CURVE SMOOTH",
"377.833 44 OFFCURVE",
"334.667 30 OFFCURVE",
"286 30 CURVE SMOOTH",
"246.667 30 OFFCURVE",
"214.667 39.5 OFFCURVE",
"190 58.5 CURVE SMOOTH",
"165.333 77.5 OFFCURVE",
"153 105.333 OFFCURVE",
"153 142 CURVE SMOOTH",
"153 184.667 OFFCURVE",
"170.167 218 OFFCURVE",
"204.5 242 CURVE SMOOTH",
"238.833 266 OFFCURVE",
"287 278 OFFCURVE",
"349 278 CURVE SMOOTH",
"513 278 LINE",
"513 320 LINE",
"353 320 LINE SMOOTH",
"274.333 320 OFFCURVE",
"213.5 304.333 OFFCURVE",
"170.5 273 CURVE SMOOTH",
"127.5 241.667 OFFCURVE",
"106 198 OFFCURVE",
"106 142 CURVE SMOOTH",
"106 108.667 OFFCURVE",
"113.5 80.5 OFFCURVE",
"128.5 57.5 CURVE SMOOTH",
"143.5 34.5 OFFCURVE",
"164.5 17.167 OFFCURVE",
"191.5 5.5 CURVE SMOOTH",
"218.5 -6.167 OFFCURVE",
"249.667 -12 OFFCURVE",
"285 -12 CURVE",
"285 -12 LINE"
);
}
);
width = 650;
}
);
note = a;
unicode = 0061;
},
{
glyphname = ae;
layers = (
{
layerId = "1F6A8684-966D-4E56-8239-254FA8D05321";
paths = (
{
closed = 1;
nodes = (
"283 116 LINE",
"327 116 LINE",
"327 365 LINE SMOOTH",
"327 431.667 OFFCURVE",
"312.833 480.167 OFFCURVE",
"284.5 510.5 CURVE SMOOTH",
"256.167 540.833 OFFCURVE",
"217.667 556 OFFCURVE",
"169 556 CURVE SMOOTH",
"141.667 556 OFFCURVE",
"116 548.5 OFFCURVE",
"92 533.5 CURVE SMOOTH",
"68 518.5 OFFCURVE",
"48.333 497 OFFCURVE",
"33 469 CURVE SMOOTH",
"17.667 441 OFFCURVE",
"8.667 407.333 OFFCURVE",
"6 368 CURVE",
"50 368 LINE",
"51.333 399.333 OFFCURVE",
"58 425.833 OFFCURVE",
"70 447.5 CURVE SMOOTH",
"82 469.167 OFFCURVE",
"96.833 485.833 OFFCURVE",
"114.5 497.5 CURVE SMOOTH",
"132.167 509.167 OFFCURVE",
"150.667 515 OFFCURVE",
"170 515 CURVE SMOOTH",
"204 515 OFFCURVE",
"231.333 503.333 OFFCURVE",
"252 480 CURVE SMOOTH",
"272.667 456.667 OFFCURVE",
"283 418.333 OFFCURVE",
"283 365 CURVE SMOOTH",
"283 116 LINE"
);
},
{
closed = 1;
nodes = (
"197.333 -12 OFFCURVE",
"229.333 -0.333 OFFCURVE",
"256 23 CURVE SMOOTH",
"282.667 46.333 OFFCURVE",
"301.333 76.667 OFFCURVE",
"312 114 CURVE",
"292 155 LINE",
"281.333 118.333 OFFCURVE",
"265 88 OFFCURVE",
"243 64 CURVE SMOOTH",
"221 40 OFFCURVE",
"193.667 28 OFFCURVE",
"161 28 CURVE SMOOTH",
"130.333 28 OFFCURVE",
"105.667 38.167 OFFCURVE",
"87 58.5 CURVE SMOOTH",
"68.333 78.833 OFFCURVE",
"59 105.667 OFFCURVE",
"59 139 CURVE SMOOTH",
"59 181 OFFCURVE",
"73.667 213 OFFCURVE",
"103 235 CURVE SMOOTH",
"132.333 257 OFFCURVE",
"169.667 268 OFFCURVE",
"215 268 CURVE SMOOTH",
"292 268 LINE",
"292 309 LINE",
"216 309 LINE SMOOTH",
"176.667 309 OFFCURVE",
"141.667 302.167 OFFCURVE",
"111 288.5 CURVE SMOOTH",
"80.333 274.833 OFFCURVE",
"56.5 255.333 OFFCURVE",
"39.5 230 CURVE SMOOTH",
"22.5 204.667 OFFCURVE",
"14 173.667 OFFCURVE",
"14 137 CURVE SMOOTH",
"14 89.667 OFFCURVE",
"27.333 53 OFFCURVE",
"54 27 CURVE SMOOTH",
"80.667 1 OFFCURVE",
"116 -12 OFFCURVE",
"160 -12 CURVE",
"160 -12 LINE"
);
},
{
closed = 1;
nodes = (
"509.333 -12 OFFCURVE",
"550 4.667 OFFCURVE",
"582 38 CURVE SMOOTH",
"614 71.333 OFFCURVE",
"633.333 117 OFFCURVE",
"640 175 CURVE",
"596 175 LINE",
"590.667 129.667 OFFCURVE",
"575.167 93.833 OFFCURVE",
"549.5 67.5 CURVE SMOOTH",
"523.833 41.167 OFFCURVE",
"494 28 OFFCURVE",
"460 28 CURVE SMOOTH",
"432 28 OFFCURVE",
"408 37.167 OFFCURVE",
"388 55.5 CURVE SMOOTH",
"368 73.833 OFFCURVE",
"352.833 101.333 OFFCURVE",
"342.5 138 CURVE SMOOTH",
"332.167 174.667 OFFCURVE",
"327 220 OFFCURVE",
"327 274 CURVE SMOOTH",
"327 348.667 OFFCURVE",
"340.5 407.5 OFFCURVE",
"367.5 450.5 CURVE SMOOTH",
"394.5 493.5 OFFCURVE",
"431 515 OFFCURVE",
"477 515 CURVE SMOOTH",
"511.667 515 OFFCURVE",
"538.667 501.167 OFFCURVE",
"558 473.5 CURVE SMOOTH",
"577.333 445.833 OFFCURVE",
"588 407 OFFCURVE",
"590 357 CURVE",
"323 358 LINE",
"323 316 LINE",
"635 316 LINE",
"637.667 391.333 OFFCURVE",
"625.333 450.167 OFFCURVE",
"598 492.5 CURVE SMOOTH",
"570.667 534.833 OFFCURVE",
"530.333 556 OFFCURVE",
"477 556 CURVE SMOOTH",
"418.333 556 OFFCURVE",
"371.333 530.667 OFFCURVE",
"336 480 CURVE SMOOTH",
"300.667 429.333 OFFCURVE",
"283 360.333 OFFCURVE",
"283 273 CURVE SMOOTH",
"283 180.333 OFFCURVE",
"298 109.667 OFFCURVE",
"328 61 CURVE SMOOTH",
"358 12.333 OFFCURVE",
"402 -12 OFFCURVE",
"460 -12 CURVE",
"460 -12 LINE"
);
}
);
width = 650;
}
);
note = ae;
unicode = 00E6;
},
{
glyphname = b;
layers = (
{
layerId = "1F6A8684-966D-4E56-8239-254FA8D05321";
paths = (
{
closed = 1;
nodes = (
"301.667 556 OFFCURVE",
"262.667 546.667 OFFCURVE",
"228 528 CURVE SMOOTH",
"193.333 509.333 OFFCURVE",
"166 483.667 OFFCURVE",
"146 451 CURVE",
"146 730 LINE",
"100 730 LINE",
"100 0 LINE",
"141 0 LINE",
"144 97 LINE",
"163.333 64.333 OFFCURVE",
"190.667 38 OFFCURVE",
"226 18 CURVE SMOOTH",
"261.333 -2 OFFCURVE",
"301 -12 OFFCURVE",
"345 -12 CURVE SMOOTH",
"394.333 -12 OFFCURVE",
"437.667 -0.333 OFFCURVE",
"475 23 CURVE SMOOTH",
"512.333 46.333 OFFCURVE",
"541.5 79.333 OFFCURVE",
"562.5 122 CURVE SMOOTH",
"583.5 164.667 OFFCURVE",
"594 214.667 OFFCURVE",
"594 272 CURVE SMOOTH",
"594 330 OFFCURVE",
"583.5 380.167 OFFCURVE",
"562.5 422.5 CURVE SMOOTH",
"541.5 464.833 OFFCURVE",
"512.333 497.667 OFFCURVE",
"475 521 CURVE SMOOTH",
"437.667 544.333 OFFCURVE",
"394.333 556 OFFCURVE",
"345 556 CURVE SMOOTH",
"345 556 LINE SMOOTH"
);
},
{
closed = 1;
nodes = (
"298.333 30 OFFCURVE",
"259.5 41.5 OFFCURVE",
"224.5 64.5 CURVE SMOOTH",
"189.5 87.5 OFFCURVE",
"163.333 119.333 OFFCURVE",
"146 160 CURVE",
"146 385 LINE",
"163.333 426.333 OFFCURVE",
"189.5 458.167 OFFCURVE",
"224.5 480.5 CURVE SMOOTH",
"259.5 502.833 OFFCURVE",
"298.333 514 OFFCURVE",
"341 514 CURVE SMOOTH",
"383 514 OFFCURVE",
"419.333 504.167 OFFCURVE",
"450 484.5 CURVE SMOOTH",
"480.667 464.833 OFFCURVE",
"504.5 436.833 OFFCURVE",
"521.5 400.5 CURVE SMOOTH",
"538.5 364.167 OFFCURVE",
"547 321.333 OFFCURVE",
"547 272 CURVE SMOOTH",
"547 223.333 OFFCURVE",
"538.5 180.833 OFFCURVE",
"521.5 144.5 CURVE SMOOTH",
"504.5 108.167 OFFCURVE",
"480.667 80 OFFCURVE",
"450 60 CURVE SMOOTH",
"419.333 40 OFFCURVE",
"383 30 OFFCURVE",
"341 30 CURVE SMOOTH",
"341 30 LINE SMOOTH"
);
}
);
width = 650;
}
);
note = b;
unicode = 0062;
},
{
glyphname = c;
layers = (
{
layerId = "1F6A8684-966D-4E56-8239-254FA8D05321";
paths = (
{
closed = 1;
nodes = (
"382.667 -12 OFFCURVE",
"416 -4.5 OFFCURVE",
"448 10.5 CURVE SMOOTH",
"480 25.5 OFFCURVE",
"507.833 46.667 OFFCURVE",
"531.5 74 CURVE SMOOTH",
"555.167 101.333 OFFCURVE",
"571.333 134.333 OFFCURVE",
"580 173 CURVE",
"533 173 LINE",
"526.333 143.667 OFFCURVE",
"513.5 118.333 OFFCURVE",
"494.5 97 CURVE SMOOTH",
"475.5 75.667 OFFCURVE",
"453.167 59.167 OFFCURVE",
"427.5 47.5 CURVE SMOOTH",
"401.833 35.833 OFFCURVE",
"375.333 30 OFFCURVE",
"348 30 CURVE SMOOTH",
"278 30 OFFCURVE",
"222.833 51.833 OFFCURVE",
"182.5 95.5 CURVE SMOOTH",
"142.167 139.167 OFFCURVE",
"122 198 OFFCURVE",
"122 272 CURVE SMOOTH",
"122 321.333 OFFCURVE",
"131.167 364 OFFCURVE",
"149.5 400 CURVE SMOOTH",
"167.833 436 OFFCURVE",
"194 464 OFFCURVE",
"228 484 CURVE SMOOTH",
"262 504 OFFCURVE",
"302 514 OFFCURVE",
"348 514 CURVE SMOOTH",
"395.333 514 OFFCURVE",
"436 501.333 OFFCURVE",
"470 476 CURVE SMOOTH",
"504 450.667 OFFCURVE",
"524 416 OFFCURVE",
"530 372 CURVE",
"576 372 LINE",
"571.333 410 OFFCURVE",
"558.167 442.667 OFFCURVE",
"536.5 470 CURVE SMOOTH",
"514.833 497.333 OFFCURVE",
"487.667 518.5 OFFCURVE",
"455 533.5 CURVE SMOOTH",
"422.333 548.5 OFFCURVE",
"386.667 556 OFFCURVE",
"348 556 CURVE SMOOTH",
"294 556 OFFCURVE",
"246.5 544.167 OFFCURVE",
"205.5 520.5 CURVE SMOOTH",
"164.5 496.833 OFFCURVE",
"132.5 463.667 OFFCURVE",
"109.5 421 CURVE SMOOTH",
"86.5 378.333 OFFCURVE",
"75 328.667 OFFCURVE",
"75 272 CURVE SMOOTH",
"75 215.333 OFFCURVE",
"86.333 165.667 OFFCURVE",
"109 123 CURVE SMOOTH",
"131.667 80.333 OFFCURVE",
"163.5 47.167 OFFCURVE",
"204.5 23.5 CURVE SMOOTH",
"245.5 -0.167 OFFCURVE",
"293.333 -12 OFFCURVE",
"348 -12 CURVE",
"348 -12 LINE"
);
}
);
width = 650;
}
);
note = c;
unicode = 0063;
},
{
glyphname = d;
layers = (
{
layerId = "1F6A8684-966D-4E56-8239-254FA8D05321";
paths = (
{
closed = 1;
nodes = (
"255.667 556 OFFCURVE",
"212.333 544.333 OFFCURVE",
"175 521 CURVE SMOOTH",
"137.667 497.667 OFFCURVE",
"108.5 464.833 OFFCURVE",
"87.5 422.5 CURVE SMOOTH",
"66.5 380.167 OFFCURVE",
"56 330 OFFCURVE",
"56 272 CURVE SMOOTH",
"56 214.667 OFFCURVE",
"66.5 164.667 OFFCURVE",
"87.5 122 CURVE SMOOTH",
"108.5 79.333 OFFCURVE",
"137.667 46.333 OFFCURVE",
"175 23 CURVE SMOOTH",
"212.333 -0.333 OFFCURVE",
"255.667 -12 OFFCURVE",
"305 -12 CURVE SMOOTH",
"349 -12 OFFCURVE",
"388.667 -2 OFFCURVE",
"424 18 CURVE SMOOTH",
"459.333 38 OFFCURVE",
"486.667 64.333 OFFCURVE",
"506 97 CURVE",
"509 0 LINE",
"550 0 LINE",
"550 730 LINE",
"504 730 LINE",
"504 451 LINE",
"484 483.667 OFFCURVE",
"456.667 509.333 OFFCURVE",
"422 528 CURVE SMOOTH",
"387.333 546.667 OFFCURVE",
"348.333 556 OFFCURVE",
"305 556 CURVE SMOOTH",
"305 556 LINE SMOOTH"
);
},
{
closed = 1;
nodes = (
"267 30 OFFCURVE",
"230.667 40 OFFCURVE",
"200 60 CURVE SMOOTH",
"169.333 80 OFFCURVE",
"145.5 108.167 OFFCURVE",
"128.5 144.5 CURVE SMOOTH",
"111.5 180.833 OFFCURVE",
"103 223.333 OFFCURVE",
"103 272 CURVE SMOOTH",
"103 321.333 OFFCURVE",
"111.5 364.167 OFFCURVE",
"128.5 400.5 CURVE SMOOTH",
"145.5 436.833 OFFCURVE",
"169.333 464.833 OFFCURVE",
"200 484.5 CURVE SMOOTH",
"230.667 504.167 OFFCURVE",
"267 514 OFFCURVE",
"309 514 CURVE SMOOTH",
"352.333 514 OFFCURVE",
"391.5 502.833 OFFCURVE",
"426.5 480.5 CURVE SMOOTH",
"461.5 458.167 OFFCURVE",
"487.333 426.333 OFFCURVE",
"504 385 CURVE",
"504 160 LINE",
"487.333 119.333 OFFCURVE",
"461.5 87.5 OFFCURVE",
"426.5 64.5 CURVE SMOOTH",
"391.5 41.5 OFFCURVE",
"352.333 30 OFFCURVE",
"309 30 CURVE SMOOTH",
"309 30 LINE SMOOTH"
);
}
);
width = 650;
}
);
note = d;
unicode = 0064;
},
{
glyphname = eth;
layers = (
{
layerId = "1F6A8684-966D-4E56-8239-254FA8D05321";
paths = (
{
closed = 1;
nodes = (
"276.667 707.333 OFFCURVE",
"320 682.667 OFFCURVE",
"358 656 CURVE SMOOTH",
"396 629.333 OFFCURVE",
"428.333 600 OFFCURVE",
"455 568 CURVE SMOOTH",
"481.667 536 OFFCURVE",
"502 501.5 OFFCURVE",
"516 464.5 CURVE SMOOTH",
"530 427.5 OFFCURVE",
"537 387.667 OFFCURVE",
"537 345 CURVE SMOOTH",
"537 281 OFFCURVE",
"528.167 225.5 OFFCURVE",
"510.5 178.5 CURVE SMOOTH",
"492.833 131.5 OFFCURVE",
"467 95 OFFCURVE",
"433 69 CURVE SMOOTH",
"399 43 OFFCURVE",
"358 30 OFFCURVE",
"310 30 CURVE SMOOTH",
"273.333 30 OFFCURVE",
"240.333 39.333 OFFCURVE",
"211 58 CURVE SMOOTH",
"181.667 76.667 OFFCURVE",
"158.5 102.667 OFFCURVE",
"141.5 136 CURVE SMOOTH",
"124.5 169.333 OFFCURVE",
"116 207.667 OFFCURVE",
"116 251 CURVE SMOOTH",
"116 293 OFFCURVE",
"124.333 329.833 OFFCURVE",
"141 361.5 CURVE SMOOTH",
"157.667 393.167 OFFCURVE",
"180.5 418 OFFCURVE",
"209.5 436 CURVE SMOOTH",
"238.5 454 OFFCURVE",
"272 463 OFFCURVE",
"310 463 CURVE SMOOTH",
"354 463 OFFCURVE",
"392.167 453 OFFCURVE",
"424.5 433 CURVE SMOOTH",
"456.833 413 OFFCURVE",
"482.667 385.667 OFFCURVE",
"502 351 CURVE SMOOTH",
"521.333 316.333 OFFCURVE",
"532.667 277.333 OFFCURVE",
"536 234 CURVE",
"546 320 LINE",
"536.667 358 OFFCURVE",
"520.833 390.833 OFFCURVE",
"498.5 418.5 CURVE SMOOTH",
"476.167 446.167 OFFCURVE",
"449 467.5 OFFCURVE",
"417 482.5 CURVE SMOOTH",
"385 497.5 OFFCURVE",
"349.667 505 OFFCURVE",
"311 505 CURVE SMOOTH",
"263 505 OFFCURVE",
"220.833 494.333 OFFCURVE",
"184.5 473 CURVE SMOOTH",
"148.167 451.667 OFFCURVE",
"120 422 OFFCURVE",
"100 384 CURVE SMOOTH",
"80 346 OFFCURVE",
"70 301.667 OFFCURVE",
"70 251 CURVE SMOOTH",
"70 199 OFFCURVE",
"80.333 153.167 OFFCURVE",
"101 113.5 CURVE SMOOTH",
"121.667 73.833 OFFCURVE",
"150.167 43 OFFCURVE",
"186.5 21 CURVE SMOOTH",
"222.833 -1 OFFCURVE",
"264 -12 OFFCURVE",
"310 -12 CURVE SMOOTH",
"366.667 -12 OFFCURVE",
"415.167 2.833 OFFCURVE",
"455.5 32.5 CURVE SMOOTH",
"495.833 62.167 OFFCURVE",
"526.667 103.667 OFFCURVE",
"548 157 CURVE SMOOTH",
"569.333 210.333 OFFCURVE",
"580 273 OFFCURVE",
"580 345 CURVE SMOOTH",
"580 385.667 OFFCURVE",
"574 424.5 OFFCURVE",
"562 461.5 CURVE SMOOTH",
"550 498.5 OFFCURVE",
"532.5 533.5 OFFCURVE",
"509.5 566.5 CURVE SMOOTH",
"486.5 599.5 OFFCURVE",
"458.167 629.667 OFFCURVE",
"424.5 657 CURVE SMOOTH",
"390.833 684.333 OFFCURVE",
"352.333 708.667 OFFCURVE",
"309 730 CURVE",
"228 730 LINE",
"228 730 LINE"
);
},
{
closed = 1;
nodes = (
"251 558 LINE",
"509 675 LINE",
"490 711 LINE",
"232 594 LINE",
"251 558 LINE"
);
}
);
width = 650;
}
);
note = eth;
unicode = 00F0;
},
{
glyphname = dcroat;
layers = (
{
layerId = "1F6A8684-966D-4E56-8239-254FA8D05321";
paths = (
{
closed = 1;
nodes = (
"484 472 OFFCURVE",
"456.833 497.333 OFFCURVE",
"422.5 516 CURVE SMOOTH",
"388.167 534.667 OFFCURVE",
"349 544 OFFCURVE",
"305 544 CURVE SMOOTH",
"255.667 544 OFFCURVE",
"212.333 532.667 OFFCURVE",
"175 510 CURVE SMOOTH",
"137.667 487.333 OFFCURVE",
"108.5 455.167 OFFCURVE",
"87.5 413.5 CURVE SMOOTH",
"66.5 371.833 OFFCURVE",
"56 322.667 OFFCURVE",
"56 266 CURVE SMOOTH",
"56 209.333 OFFCURVE",
"66.5 160.167 OFFCURVE",
"87.5 118.5 CURVE SMOOTH",
"108.5 76.833 OFFCURVE",
"137.667 44.667 OFFCURVE",
"175 22 CURVE SMOOTH",
"212.333 -0.667 OFFCURVE",
"255.667 -12 OFFCURVE",
"305 -12 CURVE SMOOTH",
"349 -12 OFFCURVE",
"388.167 -2.667 OFFCURVE",
"422.5 16 CURVE SMOOTH",
"456.833 34.667 OFFCURVE",
"484 60 OFFCURVE",
"504 92 CURVE",
"509 0 LINE",
"550 0 LINE",
"550 730 LINE",
"504 730 LINE",
"504 440 LINE",
"504 440 LINE"
);
},
{
closed = 1;
nodes = (
"267 29 OFFCURVE",
"230.667 38.667 OFFCURVE",
"200 58 CURVE SMOOTH",
"169.333 77.333 OFFCURVE",
"145.5 104.833 OFFCURVE",
"128.5 140.5 CURVE SMOOTH",
"111.5 176.167 OFFCURVE",
"103 218 OFFCURVE",
"103 266 CURVE SMOOTH",
"103 314.667 OFFCURVE",
"111.5 356.667 OFFCURVE",
"128.5 392 CURVE SMOOTH",
"145.5 427.333 OFFCURVE",
"169.333 454.667 OFFCURVE",
"200 474 CURVE SMOOTH",
"230.667 493.333 OFFCURVE",
"267 503 OFFCURVE",
"309 503 CURVE SMOOTH",
"352.333 503 OFFCURVE",
"391.5 491.833 OFFCURVE",
"426.5 469.5 CURVE SMOOTH",
"461.5 447.167 OFFCURVE",
"487.333 416 OFFCURVE",
"504 376 CURVE",
"504 157 LINE",
"487.333 116.333 OFFCURVE",
"461.5 84.833 OFFCURVE",
"426.5 62.5 CURVE SMOOTH",
"391.5 40.167 OFFCURVE",
"352.333 29 OFFCURVE",
"309 29 CURVE SMOOTH",
"309 29 LINE SMOOTH"
);
},
{
closed = 1;
nodes = (
"338 615 LINE",
"643 615 LINE",
"643 653 LINE",
"338 653 LINE",
"338 615 LINE"
);
}
);
width = 650;
}
);
note = dcroat;
unicode = 0111;
},
{
glyphname = e;
layers = (
{
layerId = "1F6A8684-966D-4E56-8239-254FA8D05321";
paths = (
{
closed = 1;
nodes = (
"396.667 -12 OFFCURVE",
"452.333 4.667 OFFCURVE",
"497 38 CURVE SMOOTH",
"541.667 71.333 OFFCURVE",
"569.667 117 OFFCURVE",
"581 175 CURVE",
"535 175 LINE",
"526.333 130.333 OFFCURVE",
"503.667 95 OFFCURVE",
"467 69 CURVE SMOOTH",
"430.333 43 OFFCURVE",
"384.667 30 OFFCURVE",
"330 30 CURVE SMOOTH",
"285.333 30 OFFCURVE",
"247 39.833 OFFCURVE",
"215 59.5 CURVE SMOOTH",
"183 79.167 OFFCURVE",
"158.333 107.333 OFFCURVE",
"141 144 CURVE SMOOTH",
"123.667 180.667 OFFCURVE",
"115 224 OFFCURVE",
"115 274 CURVE SMOOTH",
"115 348 OFFCURVE",
"134.167 406.5 OFFCURVE",
"172.5 449.5 CURVE SMOOTH",
"210.833 492.5 OFFCURVE",
"263.333 514 OFFCURVE",
"330 514 CURVE SMOOTH",
"387.333 514 OFFCURVE",
"433.167 500.167 OFFCURVE",
"467.5 472.5 CURVE SMOOTH",
"501.833 444.833 OFFCURVE",
"520.333 406.333 OFFCURVE",
"523 357 CURVE",
"105 359 LINE",
"105 316 LINE",
"571 316 LINE",
"574.333 391.333 OFFCURVE",
"554.5 450.167 OFFCURVE",
"511.5 492.5 CURVE SMOOTH",
"468.5 534.833 OFFCURVE",
"408 556 OFFCURVE",
"330 556 CURVE SMOOTH",
"276 556 OFFCURVE",
"229.333 544.333 OFFCURVE",
"190 521 CURVE SMOOTH",
"150.667 497.667 OFFCURVE",
"120.5 464.833 OFFCURVE",
"99.5 422.5 CURVE SMOOTH",
"78.5 380.167 OFFCURVE",
"68 330.333 OFFCURVE",
"68 273 CURVE SMOOTH",
"68 214.333 OFFCURVE",
"78.5 163.667 OFFCURVE",
"99.5 121 CURVE SMOOTH",
"120.5 78.333 OFFCURVE",
"150.667 45.5 OFFCURVE",
"190 22.5 CURVE SMOOTH",
"229.333 -0.5 OFFCURVE",
"276 -12 OFFCURVE",
"330 -12 CURVE",
"330 -12 LINE"
);
}
);
width = 650;
}
);
note = e;
unicode = 0065;
},
{
glyphname = f;
layers = (
{
layerId = "1F6A8684-966D-4E56-8239-254FA8D05321";
paths = (
{
closed = 1;
nodes = (
"281 0 LINE",
"327 0 LINE",
"327 619 LINE SMOOTH",
"327 644.333 OFFCURVE",
"330.667 664 OFFCURVE",
"338 678 CURVE SMOOTH",
"345.333 692 OFFCURVE",
"355.833 702 OFFCURVE",
"369.5 708 CURVE SMOOTH",
"383.167 714 OFFCURVE",
"399 717 OFFCURVE",
"417 717 CURVE SMOOTH",
"574 717 LINE",
"574 755 LINE",
"418 755 LINE SMOOTH",
"382.667 755 OFFCURVE",
"355 749 OFFCURVE",
"335 737 CURVE SMOOTH",
"315 725 OFFCURVE",
"301 708.333 OFFCURVE",
"293 687 CURVE SMOOTH",
"285 665.667 OFFCURVE",
"281 641 OFFCURVE",
"281 613 CURVE SMOOTH",
"281 0 LINE"
);
},
{
closed = 1;
nodes = (
"131 506 LINE",
"537 506 LINE",
"537 544 LINE",
"131 544 LINE",
"131 506 LINE"
);
},
{
closed = 1;
nodes = (
"90 0 LINE",
"564 0 LINE",
"564 38 LINE",
"90 38 LINE",
"90 0 LINE"
);
}
);
width = 650;
}
);
note = f;
unicode = 0066;
},
{
glyphname = g;
layers = (
{
layerId = "1F6A8684-966D-4E56-8239-254FA8D05321";
paths = (
{
closed = 1;
nodes = (
"490 477.333 OFFCURVE",
"462.833 504.333 OFFCURVE",
"426.5 525 CURVE SMOOTH",
"390.167 545.667 OFFCURVE",
"349 556 OFFCURVE",
"303 556 CURVE SMOOTH",
"255 556 OFFCURVE",
"212.667 545.333 OFFCURVE",
"176 524 CURVE SMOOTH",
"139.333 502.667 OFFCURVE",
"110.667 472.833 OFFCURVE",
"90 434.5 CURVE SMOOTH",
"69.333 396.167 OFFCURVE",
"59 350.667 OFFCURVE",
"59 298 CURVE SMOOTH",
"59 246 OFFCURVE",
"69.333 200.5 OFFCURVE",
"90 161.5 CURVE SMOOTH",
"110.667 122.5 OFFCURVE",
"139.333 92.333 OFFCURVE",
"176 71 CURVE SMOOTH",
"212.667 49.667 OFFCURVE",
"255 39 OFFCURVE",
"303 39 CURVE SMOOTH",
"348.333 39 OFFCURVE",
"388.833 49 OFFCURVE",
"424.5 69 CURVE SMOOTH",
"460.167 89 OFFCURVE",
"487.333 116.333 OFFCURVE",
"506 151 CURVE",
"506 37 LINE SMOOTH",
"506 -23 OFFCURVE",
"489.333 -68.833 OFFCURVE",
"456 -100.5 CURVE SMOOTH",
"422.667 -132.167 OFFCURVE",
"374.667 -148 OFFCURVE",
"312 -148 CURVE SMOOTH",
"253.333 -148 OFFCURVE",
"208.667 -135.833 OFFCURVE",
"178 -111.5 CURVE SMOOTH",
"147.333 -87.167 OFFCURVE",
"130.333 -54 OFFCURVE",
"127 -12 CURVE",
"80 -12 LINE",
"85.333 -51.333 OFFCURVE",
"97.833 -84.167 OFFCURVE",
"117.5 -110.5 CURVE SMOOTH",
"137.167 -136.833 OFFCURVE",
"163.5 -156.667 OFFCURVE",
"196.5 -170 CURVE SMOOTH",
"229.5 -183.333 OFFCURVE",
"268 -190 OFFCURVE",
"312 -190 CURVE SMOOTH",
"389.333 -190 OFFCURVE",
"448.667 -169.833 OFFCURVE",
"490 -129.5 CURVE SMOOTH",
"531.333 -89.167 OFFCURVE",
"552 -30.667 OFFCURVE",
"552 46 CURVE SMOOTH",
"552 544 LINE",
"511 544 LINE",
"508 444 LINE",
"508 444 LINE"
);
},
{
closed = 1;
nodes = (
"266.333 77 OFFCURVE",
"230.833 86.167 OFFCURVE",
"200.5 104.5 CURVE SMOOTH",
"170.167 122.833 OFFCURVE",
"146.667 148.5 OFFCURVE",
"130 181.5 CURVE SMOOTH",
"113.333 214.5 OFFCURVE",
"105 253.333 OFFCURVE",
"105 298 CURVE SMOOTH",
"105 342.667 OFFCURVE",
"113.333 381.5 OFFCURVE",
"130 414.5 CURVE SMOOTH",
"146.667 447.5 OFFCURVE",
"170.167 473 OFFCURVE",
"200.5 491 CURVE SMOOTH",
"230.833 509 OFFCURVE",
"266.333 518 OFFCURVE",
"307 518 CURVE SMOOTH",
"352.333 518 OFFCURVE",
"393.167 505.833 OFFCURVE",
"429.5 481.5 CURVE SMOOTH",
"465.833 457.167 OFFCURVE",
"491.333 423.333 OFFCURVE",
"506 380 CURVE",
"506 215 LINE",
"491.333 171.667 OFFCURVE",
"465.833 137.833 OFFCURVE",
"429.5 113.5 CURVE SMOOTH",
"393.167 89.167 OFFCURVE",
"352.333 77 OFFCURVE",
"307 77 CURVE SMOOTH",
"307 77 LINE SMOOTH"
);
}
);
width = 650;
}
);
note = g;
unicode = 0067;
},
{
glyphname = h;
layers = (
{
layerId = "1F6A8684-966D-4E56-8239-254FA8D05321";
paths = (
{
closed = 1;
nodes = (
"512 0 LINE",
"558 0 LINE",
"558 348 LINE SMOOTH",
"558 390 OFFCURVE",
"549.5 426.5 OFFCURVE",
"532.5 457.5 CURVE SMOOTH",
"515.5 488.5 OFFCURVE",
"491.833 512.667 OFFCURVE",
"461.5 530 CURVE SMOOTH",
"431.167 547.333 OFFCURVE",
"395.667 556 OFFCURVE",
"355 556 CURVE SMOOTH",
"300.333 556 OFFCURVE",
"252.167 539 OFFCURVE",
"210.5 505 CURVE SMOOTH",
"168.833 471 OFFCURVE",
"139.667 423.667 OFFCURVE",
"123 363 CURVE",
"134 270 LINE",
"145.333 350.667 OFFCURVE",
"171.333 411.5 OFFCURVE",
"212 452.5 CURVE SMOOTH",
"252.667 493.5 OFFCURVE",
"299.667 514 OFFCURVE",
"353 514 CURVE SMOOTH",
"400.333 514 OFFCURVE",
"438.667 498.833 OFFCURVE",
"468 468.5 CURVE SMOOTH",
"497.333 438.167 OFFCURVE",
"512 398.333 OFFCURVE",
"512 349 CURVE SMOOTH",
"512 0 LINE"
);
},
{
closed = 1;
nodes = (
"98 0 LINE",
"144 0 LINE",
"144 731 LINE",
"98 731 LINE",
"98 0 LINE"
);
}
);
width = 650;
}
);
note = h;
unicode = 0068;
},
{
glyphname = hbar;
layers = (
{
layerId = "1F6A8684-966D-4E56-8239-254FA8D05321";
paths = (
{
closed = 1;
nodes = (
"512 0 LINE",
"558 0 LINE",
"558 336 LINE SMOOTH",
"558 378 OFFCURVE",
"549.5 414.5 OFFCURVE",
"532.5 445.5 CURVE SMOOTH",
"515.5 476.5 OFFCURVE",
"491.833 500.667 OFFCURVE",
"461.5 518 CURVE SMOOTH",
"431.167 535.333 OFFCURVE",
"395.667 544 OFFCURVE",
"355 544 CURVE SMOOTH",
"300.333 544 OFFCURVE",
"252.167 526.833 OFFCURVE",
"210.5 492.5 CURVE SMOOTH",
"168.833 458.167 OFFCURVE",
"139.667 411 OFFCURVE",
"123 351 CURVE",
"134 258 LINE",
"145.333 338 OFFCURVE",
"171.167 398.667 OFFCURVE",
"211.5 440 CURVE SMOOTH",
"251.833 481.333 OFFCURVE",
"299 502 OFFCURVE",
"353 502 CURVE SMOOTH",
"400.333 502 OFFCURVE",
"438.667 486.833 OFFCURVE",
"468 456.5 CURVE SMOOTH",
"497.333 426.167 OFFCURVE",
"512 386.333 OFFCURVE",
"512 337 CURVE SMOOTH",
"512 0 LINE"
);
},
{
closed = 1;
nodes = (
"98 0 LINE",
"144 0 LINE",
"144 730 LINE",
"98 730 LINE",
"98 0 LINE"
);
},
{
closed = 1;
nodes = (
"5 615 LINE",
"310 615 LINE",
"310 653 LINE",
"5 653 LINE",
"5 615 LINE"
);
}
);
width = 650;
}
);
note = hbar;
unicode = 0127;
},
{
glyphname = idotless;
layers = (
{
layerId = "1F6A8684-966D-4E56-8239-254FA8D05321";
paths = (
{
closed = 1;
nodes = (
"312 0 LINE",
"358 0 LINE",
"358 544 LINE",
"312 544 LINE",
"312 0 LINE"
);
},
{
closed = 1;
nodes = (
"87 0 LINE",
"555 0 LINE",
"555 38 LINE",
"87 38 LINE",
"87 0 LINE"
);
},
{
closed = 1;
nodes = (
"162 506 LINE",
"335 506 LINE",
"335 544 LINE",
"162 544 LINE",
"162 506 LINE"
);
}
);
width = 650;
}
);
note = dotlessi;
unicode = 0131;
},
{
glyphname = jdotless;
layers = (
{
layerId = "1F6A8684-966D-4E56-8239-254FA8D05321";
paths = (
{
closed = 1;
nodes = (
"468 544 LINE",
"422 544 LINE",
"422 -42 LINE SMOOTH",
"422 -78.667 OFFCURVE",
"414 -104.167 OFFCURVE",
"398 -118.5 CURVE SMOOTH",
"382 -132.833 OFFCURVE",
"360 -140 OFFCURVE",
"332 -140 CURVE SMOOTH",
"114 -140 LINE",
"114 -178 LINE",
"331 -178 LINE SMOOTH",
"365 -178 OFFCURVE",
"392 -172.333 OFFCURVE",
"412 -161 CURVE SMOOTH",
"432 -149.667 OFFCURVE",
"446.333 -133.333 OFFCURVE",
"455 -112 CURVE SMOOTH",
"463.667 -90.667 OFFCURVE",
"468 -65.333 OFFCURVE",
"468 -36 CURVE SMOOTH",
"468 544 LINE"
);
},
{
closed = 1;
nodes = (
"272 506 LINE",
"445 506 LINE",
"445 544 LINE",
"272 544 LINE",
"272 506 LINE"
);
}
);
width = 650;
}
);
note = uni0237;
unicode = 0237;
},
{
glyphname = k;
layers = (
{
layerId = "1F6A8684-966D-4E56-8239-254FA8D05321";
paths = (
{
closed = 1;
nodes = (
"92 0 LINE",
"138 0 LINE",
"138 224 LINE",
"526 544 LINE",
"456 544 LINE",
"244 368 LINE",
"138 282 LINE",
"138 417 LINE",
"138 730 LINE",
"92 730 LINE",
"92 0 LINE"
);
},
{
closed = 1;
nodes = (
"484 0 LINE",
"539 0 LINE",
"311 386 LINE",
"276 353 LINE",
"484 0 LINE"
);
}
);
width = 650;
}
);
note = k;
unicode = 006B;
},
{
glyphname = kgreenlandic;
layers = (
{
layerId = "1F6A8684-966D-4E56-8239-254FA8D05321";
paths = (
{
closed = 1;
nodes = (
"99 212 LINE",
"481 544 LINE",
"413 544 LINE",
"99 267 LINE",
"99 212 LINE"
);
},
{
closed = 1;
nodes = (
"463 0 LINE",
"516 0 LINE",
"268 386 LINE",
"238 353 LINE",
"463 0 LINE"
);
},
{
closed = 1;
nodes = (
"92 0 LINE",
"138 0 LINE",
"138 395 LINE",
"133 545 LINE",
"92 545 LINE",
"92 0 LINE"
);
}
);
width = 650;
}
);
note = kgreenlandic;
unicode = 0138;
},
{
glyphname = l;
layers = (
{
layerId = "1F6A8684-966D-4E56-8239-254FA8D05321";
paths = (
{
closed = 1;
nodes = (
"302 0 LINE",
"348 0 LINE",
"348 730 LINE",
"302 730 LINE",
"302 0 LINE"
);
},
{
closed = 1;
nodes = (
"77 0 LINE",
"575 0 LINE",
"575 38 LINE",
"77 38 LINE",
"77 0 LINE"
);
},
{
closed = 1;
nodes = (
"152 692 LINE",
"325 692 LINE",
"325 730 LINE",
"152 730 LINE",
"152 692 LINE"
);
}
);
width = 650;
}
);
note = l;
unicode = 006C;
},
{
glyphname = lslash;
layers = (
{
layerId = "1F6A8684-966D-4E56-8239-254FA8D05321";
paths = (
{
closed = 1;
nodes = (
"193 344 LINE",
"450 438 LINE",
"450 480 LINE",
"193 386 LINE",
"193 344 LINE"
);
},
{
closed = 1;
nodes = (
"302 0 LINE",
"348 0 LINE",
"348 730 LINE",
"302 730 LINE",
"302 0 LINE"
);
},
{
closed = 1;
nodes = (
"77 0 LINE",
"575 0 LINE",
"575 38 LINE",
"77 38 LINE",
"77 0 LINE"
);
},
{
closed = 1;
nodes = (
"152 692 LINE",
"325 692 LINE",
"325 730 LINE",
"152 730 LINE",
"152 692 LINE"
);
}
);
width = 650;
}
);
note = lslash;
unicode = 0142;
},
{
glyphname = m;
layers = (
{
layerId = "1F6A8684-966D-4E56-8239-254FA8D05321";
paths = (
{
closed = 1;
nodes = (
"547 0 LINE",
"593 0 LINE",
"593 410 LINE SMOOTH",
"593 456 OFFCURVE",
"583.167 491.833 OFFCURVE",
"563.5 517.5 CURVE SMOOTH",
"543.833 543.167 OFFCURVE",
"515.333 556 OFFCURVE",
"478 556 CURVE SMOOTH",
"442 556 OFFCURVE",
"409.5 540.333 OFFCURVE",
"380.5 509 CURVE SMOOTH",
"351.5 477.667 OFFCURVE",
"333.333 432 OFFCURVE",
"326 372 CURVE",
"334 278 LINE",
"341.333 355.333 OFFCURVE",
"358 414 OFFCURVE",
"384 454 CURVE SMOOTH",
"410 494 OFFCURVE",
"440 514 OFFCURVE",
"474 514 CURVE SMOOTH",
"497.333 514 OFFCURVE",
"515.333 505.167 OFFCURVE",
"528 487.5 CURVE SMOOTH",
"540.667 469.833 OFFCURVE",
"547 444.333 OFFCURVE",
"547 411 CURVE SMOOTH",
"547 0 LINE"
);
},
{
closed = 1;
nodes = (
"57 0 LINE",
"103 0 LINE",
"103 433 LINE",
"98 544 LINE",
"57 544 LINE",
"57 0 LINE"
);
},
{
closed = 1;
nodes = (
"302 0 LINE",
"348 0 LINE",
"348 410 LINE SMOOTH",
"348 456.667 OFFCURVE",
"337.833 492.667 OFFCURVE",
"317.5 518 CURVE SMOOTH",
"297.167 543.333 OFFCURVE",
"267.333 556 OFFCURVE",
"228 556 CURVE SMOOTH",
"204.667 556 OFFCURVE",
"182.667 549 OFFCURVE",
"162 535 CURVE SMOOTH",
"141.333 521 OFFCURVE",
"124 500.333 OFFCURVE",
"110 473 CURVE SMOOTH",
"96 445.667 OFFCURVE",
"86.333 412 OFFCURVE",
"81 372 CURVE",
"86 278 LINE",
"93.333 355.333 OFFCURVE",
"110 414 OFFCURVE",
"136 454 CURVE SMOOTH",
"162 494 OFFCURVE",
"191.667 514 OFFCURVE",
"225 514 CURVE SMOOTH",
"250.333 514 OFFCURVE",
"269.5 505.167 OFFCURVE",
"282.5 487.5 CURVE SMOOTH",
"295.5 469.833 OFFCURVE",
"302 444.333 OFFCURVE",
"302 411 CURVE SMOOTH",
"302 0 LINE"
);
}
);
width = 650;
}
);
note = m;
unicode = 006D;
},
{
glyphname = n;
layers = (
{
layerId = "1F6A8684-966D-4E56-8239-254FA8D05321";
paths = (
{
closed = 1;
nodes = (
"512 0 LINE",
"558 0 LINE",
"558 349 LINE SMOOTH",
"558 390.333 OFFCURVE",
"549.5 426.5 OFFCURVE",
"532.5 457.5 CURVE SMOOTH",
"515.5 488.5 OFFCURVE",
"491.833 512.667 OFFCURVE",
"461.5 530 CURVE SMOOTH",
"431.167 547.333 OFFCURVE",
"395.667 556 OFFCURVE",
"355 556 CURVE SMOOTH",
"300.333 556 OFFCURVE",
"252.167 539 OFFCURVE",
"210.5 505 CURVE SMOOTH",
"168.833 471 OFFCURVE",
"139.667 424 OFFCURVE",
"123 364 CURVE",
"134 270 LINE",
"145.333 350.667 OFFCURVE",
"171.333 411.5 OFFCURVE",
"212 452.5 CURVE SMOOTH",
"252.667 493.5 OFFCURVE",
"299.667 514 OFFCURVE",
"353 514 CURVE SMOOTH",
"400.333 514 OFFCURVE",
"438.667 499 OFFCURVE",
"468 469 CURVE SMOOTH",
"497.333 439 OFFCURVE",
"512 399.333 OFFCURVE",
"512 350 CURVE SMOOTH",
"512 0 LINE"
);
},
{
closed = 1;
nodes = (
"98 0 LINE",
"144 0 LINE",
"144 395 LINE",
"139 544 LINE",
"98 544 LINE",
"98 0 LINE"
);
}
);
width = 650;
}
);
note = n;
unicode = 006E;
},
{
glyphname = eng;
layers = (
{
layerId = "1F6A8684-966D-4E56-8239-254FA8D05321";
paths = (
{
closed = 1;
nodes = (
"307.667 557 OFFCURVE",
"266.333 544.833 OFFCURVE",
"229 520.5 CURVE SMOOTH",
"191.667 496.167 OFFCURVE",
"162.333 462 OFFCURVE",
"141 418 CURVE",
"137 545 LINE",
"96 545 LINE",
"96 0 LINE",
"142 0 LINE",
"142 322 LINE",
"158 385.333 OFFCURVE",
"185 433.333 OFFCURVE",
"223 466 CURVE SMOOTH",
"261 498.667 OFFCURVE",
"303.667 515 OFFCURVE",
"351 515 CURVE SMOOTH",
"398.333 515 OFFCURVE",
"436.667 499.833 OFFCURVE",
"466 469.5 CURVE SMOOTH",
"495.333 439.167 OFFCURVE",
"510 399.333 OFFCURVE",
"510 350 CURVE SMOOTH",
"510 -42 LINE SMOOTH",
"510 -78.667 OFFCURVE",
"502 -104.167 OFFCURVE",
"486 -118.5 CURVE SMOOTH",
"470 -132.833 OFFCURVE",
"448 -140 OFFCURVE",
"420 -140 CURVE SMOOTH",
"362 -140 LINE",
"362 -178 LINE",
"419 -178 LINE SMOOTH",
"453 -178 OFFCURVE",
"480 -172.333 OFFCURVE",
"500 -161 CURVE SMOOTH",
"520 -149.667 OFFCURVE",
"534.333 -133.333 OFFCURVE",
"543 -112 CURVE SMOOTH",
"551.667 -90.667 OFFCURVE",
"556 -65.333 OFFCURVE",
"556 -36 CURVE SMOOTH",
"556 349 LINE SMOOTH",
"556 390.333 OFFCURVE",
"547.5 426.667 OFFCURVE",
"530.5 458 CURVE SMOOTH",
"513.5 489.333 OFFCURVE",
"489.833 513.667 OFFCURVE",
"459.5 531 CURVE SMOOTH",
"429.167 548.333 OFFCURVE",
"393.667 557 OFFCURVE",
"353 557 CURVE SMOOTH",
"353 557 LINE SMOOTH"
);
}
);
width = 650;
}
);
note = eng;
unicode = 014B;
},
{
glyphname = o;
layers = (
{
layerId = "1F6A8684-966D-4E56-8239-254FA8D05321";
paths = (
{
closed = 1;
nodes = (
"378.667 -12 OFFCURVE",
"425.667 -0.5 OFFCURVE",
"465 22.5 CURVE SMOOTH",
"504.333 45.5 OFFCURVE",
"534.667 78.333 OFFCURVE",
"556 121 CURVE SMOOTH",
"577.333 163.667 OFFCURVE",
"588 214 OFFCURVE",
"588 272 CURVE SMOOTH",
"588 360 OFFCURVE",
"564.5 429.333 OFFCURVE",
"517.5 480 CURVE SMOOTH",
"470.5 530.667 OFFCURVE",
"406 556 OFFCURVE",
"324 556 CURVE SMOOTH",
"269.333 556 OFFCURVE",
"222.333 544.5 OFFCURVE",
"183 521.5 CURVE SMOOTH",
"143.667 498.5 OFFCURVE",
"113.5 465.833 OFFCURVE",
"92.5 423.5 CURVE SMOOTH",
"71.5 381.167 OFFCURVE",
"61 330.667 OFFCURVE",
"61 272 CURVE SMOOTH",
"61 214 OFFCURVE",
"71.5 163.667 OFFCURVE",
"92.5 121 CURVE SMOOTH",
"113.5 78.333 OFFCURVE",
"143.667 45.5 OFFCURVE",
"183 22.5 CURVE SMOOTH",
"222.333 -0.5 OFFCURVE",
"269.333 -12 OFFCURVE",
"324 -12 CURVE",
"324 -12 LINE"
);
},
{
closed = 1;
nodes = (
"256.667 30 OFFCURVE",
"203.833 51.667 OFFCURVE",
"165.5 95 CURVE SMOOTH",
"127.167 138.333 OFFCURVE",
"108 197.333 OFFCURVE",
"108 272 CURVE SMOOTH",
"108 347.333 OFFCURVE",
"127.167 406.5 OFFCURVE",
"165.5 449.5 CURVE SMOOTH",
"203.833 492.5 OFFCURVE",
"256.667 514 OFFCURVE",
"324 514 CURVE SMOOTH",
"391.333 514 OFFCURVE",
"444.333 492.5 OFFCURVE",
"483 449.5 CURVE SMOOTH",
"521.667 406.5 OFFCURVE",
"541 347.333 OFFCURVE",
"541 272 CURVE SMOOTH",
"541 197.333 OFFCURVE",
"521.667 138.333 OFFCURVE",
"483 95 CURVE SMOOTH",
"444.333 51.667 OFFCURVE",
"391.333 30 OFFCURVE",
"324 30 CURVE SMOOTH",
"324 30 LINE SMOOTH"
);
}
);
width = 650;
}
);
note = o;
unicode = 006F;
},
{
glyphname = oslash;
layers = (
{
layerId = "1F6A8684-966D-4E56-8239-254FA8D05321";
paths = (
{
closed = 1;
nodes = (
"162 -59 LINE",
"528 584 LINE",
"488 604 LINE",
"122 -40 LINE",
"162 -59 LINE"
);
},
{
closed = 1;
nodes = (
"378.667 -12 OFFCURVE",
"425.667 -0.5 OFFCURVE",
"465 22.5 CURVE SMOOTH",
"504.333 45.5 OFFCURVE",
"534.667 78.333 OFFCURVE",
"556 121 CURVE SMOOTH",
"577.333 163.667 OFFCURVE",
"588 214 OFFCURVE",
"588 272 CURVE SMOOTH",
"588 330.667 OFFCURVE",
"577.333 381.333 OFFCURVE",
"556 424 CURVE SMOOTH",
"534.667 466.667 OFFCURVE",
"504.333 499.5 OFFCURVE",
"465 522.5 CURVE SMOOTH",
"425.667 545.5 OFFCURVE",
"378.667 557 OFFCURVE",
"324 557 CURVE SMOOTH",
"269.333 557 OFFCURVE",
"222.333 545.5 OFFCURVE",
"183 522.5 CURVE SMOOTH",
"143.667 499.5 OFFCURVE",
"113.5 466.667 OFFCURVE",
"92.5 424 CURVE SMOOTH",
"71.5 381.333 OFFCURVE",
"61 330.667 OFFCURVE",
"61 272 CURVE SMOOTH",
"61 214 OFFCURVE",
"71.5 163.667 OFFCURVE",
"92.5 121 CURVE SMOOTH",
"113.5 78.333 OFFCURVE",
"143.667 45.5 OFFCURVE",
"183 22.5 CURVE SMOOTH",
"222.333 -0.5 OFFCURVE",
"269.333 -12 OFFCURVE",
"324 -12 CURVE",
"324 -12 LINE"
);
},
{
closed = 1;
nodes = (
"256.667 30 OFFCURVE",
"203.833 51.667 OFFCURVE",
"165.5 95 CURVE SMOOTH",
"127.167 138.333 OFFCURVE",
"108 197.333 OFFCURVE",
"108 272 CURVE SMOOTH",
"108 347.333 OFFCURVE",
"127.167 406.667 OFFCURVE",
"165.5 450 CURVE SMOOTH",
"203.833 493.333 OFFCURVE",
"256.667 515 OFFCURVE",
"324 515 CURVE SMOOTH",
"391.333 515 OFFCURVE",
"444.333 493.333 OFFCURVE",
"483 450 CURVE SMOOTH",
"521.667 406.667 OFFCURVE",
"541 347.333 OFFCURVE",
"541 272 CURVE SMOOTH",
"541 197.333 OFFCURVE",
"521.667 138.333 OFFCURVE",
"483 95 CURVE SMOOTH",
"444.333 51.667 OFFCURVE",
"391.333 30 OFFCURVE",
"324 30 CURVE SMOOTH",
"324 30 LINE SMOOTH"
);
}
);
width = 650;
}
);
note = oslash;
unicode = 00F8;
},
{
glyphname = oe;
layers = (
{
layerId = "1F6A8684-966D-4E56-8239-254FA8D05321";
paths = (
{
closed = 1;
nodes = (
"240.667 -12 OFFCURVE",
"281.667 13 OFFCURVE",
"311 63 CURVE SMOOTH",
"340.333 113 OFFCURVE",
"355 182.667 OFFCURVE",
"355 272 CURVE SMOOTH",
"355 361.333 OFFCURVE",
"340.333 431 OFFCURVE",
"311 481 CURVE SMOOTH",
"281.667 531 OFFCURVE",
"240.667 556 OFFCURVE",
"188 556 CURVE SMOOTH",
"134.667 556 OFFCURVE",
"92.833 531 OFFCURVE",
"62.5 481 CURVE SMOOTH",
"32.167 431 OFFCURVE",
"17 361.333 OFFCURVE",
"17 272 CURVE SMOOTH",
"17 182.667 OFFCURVE",
"32.167 113 OFFCURVE",
"62.5 63 CURVE SMOOTH",
"92.833 13 OFFCURVE",
"134.667 -12 OFFCURVE",
"188 -12 CURVE",
"188 -12 LINE"
);
},
{
closed = 1;
nodes = (
"149.333 30 OFFCURVE",
"119 51.333 OFFCURVE",
"97 94 CURVE SMOOTH",
"75 136.667 OFFCURVE",
"64 196 OFFCURVE",
"64 272 CURVE SMOOTH",
"64 348 OFFCURVE",
"75 407.333 OFFCURVE",
"97 450 CURVE SMOOTH",
"119 492.667 OFFCURVE",
"149.333 514 OFFCURVE",
"188 514 CURVE SMOOTH",
"225.333 514 OFFCURVE",
"254.667 492.667 OFFCURVE",
"276 450 CURVE SMOOTH",
"297.333 407.333 OFFCURVE",
"308 348 OFFCURVE",
"308 272 CURVE SMOOTH",
"308 196 OFFCURVE",
"297.333 136.667 OFFCURVE",
"276 94 CURVE SMOOTH",
"254.667 51.333 OFFCURVE",
"225.333 30 OFFCURVE",
"188 30 CURVE SMOOTH",
"188 30 LINE SMOOTH"
);
},
{
closed = 1;
nodes = (
"522.333 -12 OFFCURVE",
"559.333 4.5 OFFCURVE",
"588 37.5 CURVE SMOOTH",
"616.667 70.5 OFFCURVE",
"634 116.333 OFFCURVE",
"640 175 CURVE",
"594 175 LINE",
"589.333 129.667 OFFCURVE",
"576.5 94.167 OFFCURVE",
"555.5 68.5 CURVE SMOOTH",
"534.5 42.833 OFFCURVE",
"508.333 30 OFFCURVE",
"477 30 CURVE SMOOTH",
"451.667 30 OFFCURVE",
"429.833 39.667 OFFCURVE",
"411.5 59 CURVE SMOOTH",
"393.167 78.333 OFFCURVE",
"379.167 106.333 OFFCURVE",
"369.5 143 CURVE SMOOTH",
"359.833 179.667 OFFCURVE",
"355 223.333 OFFCURVE",
"355 274 CURVE SMOOTH",
"355 349.333 OFFCURVE",
"365.833 408.167 OFFCURVE",
"387.5 450.5 CURVE SMOOTH",
"409.167 492.833 OFFCURVE",
"439.333 514 OFFCURVE",
"478 514 CURVE SMOOTH",
"511.333 514 OFFCURVE",
"537.667 500.167 OFFCURVE",
"557 472.5 CURVE SMOOTH",
"576.333 444.833 OFFCURVE",
"587 406.333 OFFCURVE",
"589 357 CURVE",
"348 359 LINE",
"348 316 LINE",
"637 316 LINE",
"639 366.667 OFFCURVE",
"634 409.833 OFFCURVE",
"622 445.5 CURVE SMOOTH",
"610 481.167 OFFCURVE",
"591.833 508.5 OFFCURVE",
"567.5 527.5 CURVE SMOOTH",
"543.167 546.5 OFFCURVE",
"513.333 556 OFFCURVE",
"478 556 CURVE SMOOTH",
"424.667 556 OFFCURVE",
"383 531.167 OFFCURVE",
"353 481.5 CURVE SMOOTH",
"323 431.833 OFFCURVE",
"308 362.333 OFFCURVE",
"308 273 CURVE SMOOTH",
"308 183.667 OFFCURVE",
"323 113.833 OFFCURVE",
"353 63.5 CURVE SMOOTH",
"383 13.167 OFFCURVE",
"424.333 -12 OFFCURVE",
"477 -12 CURVE",
"477 -12 LINE"
);
}
);
width = 650;
}
);
note = oe;
unicode = 0153;
},
{
glyphname = p;
layers = (
{
layerId = "1F6A8684-966D-4E56-8239-254FA8D05321";
paths = (
{
closed = 1;
nodes = (
"299 556 OFFCURVE",
"259.5 546.167 OFFCURVE",
"224.5 526.5 CURVE SMOOTH",
"189.5 506.833 OFFCURVE",
"162 480.667 OFFCURVE",
"142 448 CURVE",
"139 544 LINE",
"98 544 LINE",
"98 -178 LINE",
"144 -178 LINE",
"144 94 LINE",
"164 61.333 OFFCURVE",
"191.333 35.5 OFFCURVE",
"226 16.5 CURVE SMOOTH",
"260.667 -2.5 OFFCURVE",
"299.667 -12 OFFCURVE",
"343 -12 CURVE SMOOTH",
"392.333 -12 OFFCURVE",
"435.667 -0.333 OFFCURVE",
"473 23 CURVE SMOOTH",
"510.333 46.333 OFFCURVE",
"539.5 79.333 OFFCURVE",
"560.5 122 CURVE SMOOTH",
"581.5 164.667 OFFCURVE",
"592 214.667 OFFCURVE",
"592 272 CURVE SMOOTH",
"592 330 OFFCURVE",
"581.5 380.167 OFFCURVE",
"560.5 422.5 CURVE SMOOTH",
"539.5 464.833 OFFCURVE",
"510.333 497.667 OFFCURVE",
"473 521 CURVE SMOOTH",
"435.667 544.333 OFFCURVE",
"392.333 556 OFFCURVE",
"343 556 CURVE SMOOTH",
"343 556 LINE SMOOTH"
);
},
{
closed = 1;
nodes = (
"296.333 30 OFFCURVE",
"257.5 41.5 OFFCURVE",
"222.5 64.5 CURVE SMOOTH",
"187.5 87.5 OFFCURVE",
"161.333 119.333 OFFCURVE",
"144 160 CURVE",
"144 385 LINE",
"161.333 425.667 OFFCURVE",
"187.5 457.333 OFFCURVE",
"222.5 480 CURVE SMOOTH",
"257.5 502.667 OFFCURVE",
"296.333 514 OFFCURVE",
"339 514 CURVE SMOOTH",
"381 514 OFFCURVE",
"417.333 504.167 OFFCURVE",
"448 484.5 CURVE SMOOTH",
"478.667 464.833 OFFCURVE",
"502.5 436.833 OFFCURVE",
"519.5 400.5 CURVE SMOOTH",
"536.5 364.167 OFFCURVE",
"545 321.333 OFFCURVE",
"545 272 CURVE SMOOTH",
"545 223.333 OFFCURVE",
"536.5 180.833 OFFCURVE",
"519.5 144.5 CURVE SMOOTH",
"502.5 108.167 OFFCURVE",
"478.667 80 OFFCURVE",
"448 60 CURVE SMOOTH",
"417.333 40 OFFCURVE",
"381 30 OFFCURVE",
"339 30 CURVE SMOOTH",
"339 30 LINE SMOOTH"
);
}
);
width = 650;
}
);
note = p;
unicode = 0070;
},
{
glyphname = thorn;
layers = (
{
layerId = "1F6A8684-966D-4E56-8239-254FA8D05321";
paths = (
{
closed = 1;
nodes = (
"301.667 557 OFFCURVE",
"262.667 547.5 OFFCURVE",
"228 528.5 CURVE SMOOTH",
"193.333 509.5 OFFCURVE",
"166 483.667 OFFCURVE",
"146 451 CURVE",
"146 731 LINE",
"100 731 LINE",
"100 -178 LINE",
"146 -178 LINE",
"146 94 LINE",
"164.667 62.667 OFFCURVE",
"191.5 37.167 OFFCURVE",
"226.5 17.5 CURVE SMOOTH",
"261.5 -2.167 OFFCURVE",
"301 -12 OFFCURVE",
"345 -12 CURVE SMOOTH",
"394.333 -12 OFFCURVE",
"437.667 -0.333 OFFCURVE",
"475 23 CURVE SMOOTH",
"512.333 46.333 OFFCURVE",
"541.5 79.333 OFFCURVE",
"562.5 122 CURVE SMOOTH",
"583.5 164.667 OFFCURVE",
"594 214.667 OFFCURVE",
"594 272 CURVE SMOOTH",
"594 330 OFFCURVE",
"583.5 380.333 OFFCURVE",
"562.5 423 CURVE SMOOTH",
"541.5 465.667 OFFCURVE",
"512.333 498.667 OFFCURVE",
"475 522 CURVE SMOOTH",
"437.667 545.333 OFFCURVE",
"394.333 557 OFFCURVE",
"345 557 CURVE SMOOTH",
"345 557 LINE SMOOTH"
);
},
{
closed = 1;
nodes = (
"298.333 30 OFFCURVE",
"259.5 41.5 OFFCURVE",
"224.5 64.5 CURVE SMOOTH",
"189.5 87.5 OFFCURVE",
"163.333 119.333 OFFCURVE",
"146 160 CURVE",
"146 385 LINE",
"163.333 426.333 OFFCURVE",
"189.5 458.333 OFFCURVE",
"224.5 481 CURVE SMOOTH",
"259.5 503.667 OFFCURVE",
"298.333 515 OFFCURVE",
"341 515 CURVE SMOOTH",
"383 515 OFFCURVE",
"419.333 505 OFFCURVE",
"450 485 CURVE SMOOTH",
"480.667 465 OFFCURVE",
"504.5 436.833 OFFCURVE",
"521.5 400.5 CURVE SMOOTH",
"538.5 364.167 OFFCURVE",
"547 321.333 OFFCURVE",
"547 272 CURVE SMOOTH",
"547 223.333 OFFCURVE",
"538.5 180.833 OFFCURVE",
"521.5 144.5 CURVE SMOOTH",
"504.5 108.167 OFFCURVE",
"480.667 80 OFFCURVE",
"450 60 CURVE SMOOTH",
"419.333 40 OFFCURVE",
"383 30 OFFCURVE",
"341 30 CURVE SMOOTH",
"341 30 LINE SMOOTH"
);
}
);
width = 650;
}
);
note = thorn;
unicode = 00FE;
},
{
glyphname = q;
layers = (
{
layerId = "1F6A8684-966D-4E56-8239-254FA8D05321";
paths = (
{
closed = 1;
nodes = (
"257.667 556 OFFCURVE",
"214.333 544.333 OFFCURVE",
"177 521 CURVE SMOOTH",
"139.667 497.667 OFFCURVE",
"110.5 464.833 OFFCURVE",
"89.5 422.5 CURVE SMOOTH",
"68.5 380.167 OFFCURVE",
"58 330 OFFCURVE",
"58 272 CURVE SMOOTH",
"58 214.667 OFFCURVE",
"68.5 164.667 OFFCURVE",
"89.5 122 CURVE SMOOTH",
"110.5 79.333 OFFCURVE",
"139.667 46.333 OFFCURVE",
"177 23 CURVE SMOOTH",
"214.333 -0.333 OFFCURVE",
"257.667 -12 OFFCURVE",
"307 -12 CURVE SMOOTH",
"350.333 -12 OFFCURVE",
"389.333 -2.5 OFFCURVE",
"424 16.5 CURVE SMOOTH",
"458.667 35.5 OFFCURVE",
"486 61.333 OFFCURVE",
"506 94 CURVE",
"506 -178 LINE",
"552 -178 LINE",
"552 544 LINE",
"511 544 LINE",
"508 448 LINE",
"488 480.667 OFFCURVE",
"460.5 506.833 OFFCURVE",
"425.5 526.5 CURVE SMOOTH",
"390.5 546.167 OFFCURVE",
"351 556 OFFCURVE",
"307 556 CURVE SMOOTH",
"307 556 LINE SMOOTH"
);
},
{
closed = 1;
nodes = (
"269 30 OFFCURVE",
"232.667 40 OFFCURVE",
"202 60 CURVE SMOOTH",
"171.333 80 OFFCURVE",
"147.5 108.167 OFFCURVE",
"130.5 144.5 CURVE SMOOTH",
"113.5 180.833 OFFCURVE",
"105 223.333 OFFCURVE",
"105 272 CURVE SMOOTH",
"105 321.333 OFFCURVE",
"113.5 364.167 OFFCURVE",
"130.5 400.5 CURVE SMOOTH",
"147.5 436.833 OFFCURVE",
"171.333 464.833 OFFCURVE",
"202 484.5 CURVE SMOOTH",
"232.667 504.167 OFFCURVE",
"269 514 OFFCURVE",
"311 514 CURVE SMOOTH",
"354.333 514 OFFCURVE",
"393.5 502.667 OFFCURVE",
"428.5 480 CURVE SMOOTH",
"463.5 457.333 OFFCURVE",
"489.333 425.667 OFFCURVE",
"506 385 CURVE",
"506 160 LINE",
"489.333 119.333 OFFCURVE",
"463.5 87.5 OFFCURVE",
"428.5 64.5 CURVE SMOOTH",
"393.5 41.5 OFFCURVE",
"354.333 30 OFFCURVE",
"311 30 CURVE SMOOTH",
"311 30 LINE SMOOTH"
);
}
);
width = 650;
}
);
note = q;
unicode = 0071;
},
{
glyphname = r;
layers = (
{
layerId = "1F6A8684-966D-4E56-8239-254FA8D05321";
paths = (
{
closed = 1;
nodes = (
"506 349 LINE",
"552 349 LINE",
"552 406 LINE SMOOTH",
"552 451.333 OFFCURVE",
"536.667 487.667 OFFCURVE",
"506 515 CURVE SMOOTH",
"475.333 542.333 OFFCURVE",
"434.333 556 OFFCURVE",
"383 556 CURVE SMOOTH",
"346.333 556 OFFCURVE",
"312.833 548 OFFCURVE",
"282.5 532 CURVE SMOOTH",
"252.167 516 OFFCURVE",
"226.167 492.333 OFFCURVE",
"204.5 461 CURVE SMOOTH",
"182.833 429.667 OFFCURVE",
"166 391 OFFCURVE",
"154 345 CURVE",
"167 272 LINE",
"181.667 349.333 OFFCURVE",
"208.167 409 OFFCURVE",
"246.5 451 CURVE SMOOTH",
"284.833 493 OFFCURVE",
"330.333 514 OFFCURVE",
"383 514 CURVE SMOOTH",
"421.667 514 OFFCURVE",
"451.833 504.167 OFFCURVE",
"473.5 484.5 CURVE SMOOTH",
"495.167 464.833 OFFCURVE",
"506 438.667 OFFCURVE",
"506 406 CURVE SMOOTH",
"506 349 LINE"
);
},
{
closed = 1;
nodes = (
"133 0 LINE",
"179 0 LINE",
"179 394 LINE",
"172 544 LINE",
"133 544 LINE",
"133 0 LINE"
);
}
);
width = 650;
}
);
note = r;
unicode = 0072;
},
{
glyphname = s;
layers = (
{
layerId = "1F6A8684-966D-4E56-8239-254FA8D05321";
paths = (
{
closed = 1;
nodes = (
"403.333 -12 OFFCURVE",
"454.167 1.333 OFFCURVE",
"492.5 28 CURVE SMOOTH",
"530.833 54.667 OFFCURVE",
"550 91 OFFCURVE",
"550 137 CURVE SMOOTH",
"550 169.667 OFFCURVE",
"543 195.833 OFFCURVE",
"529 215.5 CURVE SMOOTH",
"515 235.167 OFFCURVE",
"496.667 250.667 OFFCURVE",
"474 262 CURVE SMOOTH",
"451.333 273.333 OFFCURVE",
"426.5 282.167 OFFCURVE",
"399.5 288.5 CURVE SMOOTH",
"372.5 294.833 OFFCURVE",
"345.333 300.333 OFFCURVE",
"318 305 CURVE SMOOTH",
"290.667 309.667 OFFCURVE",
"265.667 315.5 OFFCURVE",
"243 322.5 CURVE SMOOTH",
"220.333 329.5 OFFCURVE",
"202 339.333 OFFCURVE",
"188 352 CURVE SMOOTH",
"174 364.667 OFFCURVE",
"167 382.333 OFFCURVE",
"167 405 CURVE SMOOTH",
"167 433.667 OFFCURVE",
"180 459 OFFCURVE",
"206 481 CURVE SMOOTH",
"232 503 OFFCURVE",
"271.333 514 OFFCURVE",
"324 514 CURVE SMOOTH",
"376.667 514 OFFCURVE",
"418 502.833 OFFCURVE",
"448 480.5 CURVE SMOOTH",
"478 458.167 OFFCURVE",
"494.333 427 OFFCURVE",
"497 387 CURVE",
"543 387 LINE",
"541 438.333 OFFCURVE",
"520.667 479.333 OFFCURVE",
"482 510 CURVE SMOOTH",
"443.333 540.667 OFFCURVE",
"391 556 OFFCURVE",
"325 556 CURVE SMOOTH",
"281 556 OFFCURVE",
"243.667 549.167 OFFCURVE",
"213 535.5 CURVE SMOOTH",
"182.333 521.833 OFFCURVE",
"159.167 503.667 OFFCURVE",
"143.5 481 CURVE SMOOTH",
"127.833 458.333 OFFCURVE",
"120 433 OFFCURVE",
"120 405 CURVE SMOOTH",
"120 376.333 OFFCURVE",
"127 353.333 OFFCURVE",
"141 336 CURVE SMOOTH",
"155 318.667 OFFCURVE",
"173.333 305.167 OFFCURVE",
"196 295.5 CURVE SMOOTH",
"218.667 285.833 OFFCURVE",
"243.5 277.833 OFFCURVE",
"270.5 271.5 CURVE SMOOTH",
"297.5 265.167 OFFCURVE",
"324.667 259.333 OFFCURVE",
"352 254 CURVE SMOOTH",
"379.333 248.667 OFFCURVE",
"404.333 241.833 OFFCURVE",
"427 233.5 CURVE SMOOTH",
"449.667 225.167 OFFCURVE",
"468 213.5 OFFCURVE",
"482 198.5 CURVE SMOOTH",
"496 183.5 OFFCURVE",
"503 163.667 OFFCURVE",
"503 139 CURVE SMOOTH",
"503 105.667 OFFCURVE",
"488.167 79.167 OFFCURVE",
"458.5 59.5 CURVE SMOOTH",
"428.833 39.833 OFFCURVE",
"389.333 30 OFFCURVE",
"340 30 CURVE SMOOTH",
"286.667 30 OFFCURVE",
"243.333 44.667 OFFCURVE",
"210 74 CURVE SMOOTH",
"176.667 103.333 OFFCURVE",
"159.333 143.333 OFFCURVE",
"158 194 CURVE",
"112 194 LINE",
"112.667 151.333 OFFCURVE",
"122.333 114.667 OFFCURVE",
"141 84 CURVE SMOOTH",
"159.667 53.333 OFFCURVE",
"186.167 29.667 OFFCURVE",
"220.5 13 CURVE SMOOTH",
"254.833 -3.667 OFFCURVE",
"294.667 -12 OFFCURVE",
"340 -12 CURVE",
"340 -12 LINE"
);
}
);
width = 650;
}
);
note = s;
unicode = 0073;
},
{
glyphname = germandbls;
layers = (
{
layerId = "1F6A8684-966D-4E56-8239-254FA8D05321";
paths = (
{
closed = 1;
nodes = (
"392 -14 OFFCURVE",
"433.5 -6.167 OFFCURVE",
"470.5 9.5 CURVE SMOOTH",
"507.5 25.167 OFFCURVE",
"537 48.333 OFFCURVE",
"559 79 CURVE SMOOTH",
"581 109.667 OFFCURVE",
"592 147.333 OFFCURVE",
"592 192 CURVE SMOOTH",
"592 230.667 OFFCURVE",
"583.5 265 OFFCURVE",
"566.5 295 CURVE SMOOTH",
"549.5 325 OFFCURVE",
"525.833 349 OFFCURVE",
"495.5 367 CURVE SMOOTH",
"465.167 385 OFFCURVE",
"429.333 395.333 OFFCURVE",
"388 398 CURVE",
"402 380 LINE",
"438 392 OFFCURVE",
"468.5 412.833 OFFCURVE",
"493.5 442.5 CURVE SMOOTH",
"518.5 472.167 OFFCURVE",
"531 508.333 OFFCURVE",
"531 551 CURVE SMOOTH",
"531 581.667 OFFCURVE",
"523.167 610.667 OFFCURVE",
"507.5 638 CURVE SMOOTH",
"491.833 665.333 OFFCURVE",
"468.833 687.667 OFFCURVE",
"438.5 705 CURVE SMOOTH",
"408.167 722.333 OFFCURVE",
"370.667 731 OFFCURVE",
"326 731 CURVE SMOOTH",
"281.333 731 OFFCURVE",
"242.167 721.5 OFFCURVE",
"208.5 702.5 CURVE SMOOTH",
"174.833 683.5 OFFCURVE",
"148.5 656.667 OFFCURVE",
"129.5 622 CURVE SMOOTH",
"110.5 587.333 OFFCURVE",
"101 546 OFFCURVE",
"101 498 CURVE SMOOTH",
"101 0 LINE",
"147 0 LINE",
"147 498 LINE SMOOTH",
"147 555.333 OFFCURVE",
"163.667 601.5 OFFCURVE",
"197 636.5 CURVE SMOOTH",
"230.333 671.5 OFFCURVE",
"273.667 689 OFFCURVE",
"327 689 CURVE SMOOTH",
"361.667 689 OFFCURVE",
"390.5 682.167 OFFCURVE",
"413.5 668.5 CURVE SMOOTH",
"436.5 654.833 OFFCURVE",
"454 637.167 OFFCURVE",
"466 615.5 CURVE SMOOTH",
"478 593.833 OFFCURVE",
"484 571.333 OFFCURVE",
"484 548 CURVE SMOOTH",
"484 521.333 OFFCURVE",
"477.667 497.167 OFFCURVE",
"465 475.5 CURVE SMOOTH",
"452.333 453.833 OFFCURVE",
"435 436.667 OFFCURVE",
"413 424 CURVE SMOOTH",
"391 411.333 OFFCURVE",
"366 405 OFFCURVE",
"338 405 CURVE SMOOTH",
"230 405 LINE",
"230 363 LINE",
"338 363 LINE SMOOTH",
"399.333 363 OFFCURVE",
"449.167 348.5 OFFCURVE",
"487.5 319.5 CURVE SMOOTH",
"525.833 290.5 OFFCURVE",
"545 248.667 OFFCURVE",
"545 194 CURVE SMOOTH",
"545 156.667 OFFCURVE",
"535.833 125.667 OFFCURVE",
"517.5 101 CURVE SMOOTH",
"499.167 76.333 OFFCURVE",
"474.833 58 OFFCURVE",
"444.5 46 CURVE SMOOTH",
"414.167 34 OFFCURVE",
"380.667 28 OFFCURVE",
"344 28 CURVE SMOOTH",
"325.333 28 OFFCURVE",
"305.5 29.5 OFFCURVE",
"284.5 32.5 CURVE SMOOTH",
"263.5 35.5 OFFCURVE",
"245.333 39.667 OFFCURVE",
"230 45 CURVE",
"230 3 LINE",
"245.333 -2.333 OFFCURVE",
"263.333 -6.5 OFFCURVE",
"284 -9.5 CURVE SMOOTH",
"304.667 -12.5 OFFCURVE",
"325.333 -14 OFFCURVE",
"346 -14 CURVE",
"346 -14 LINE"
);
}
);
width = 650;
}
);
note = germandbls;
unicode = 00DF;
},
{
glyphname = t;
layers = (
{
layerId = "1F6A8684-966D-4E56-8239-254FA8D05321";
paths = (
{
closed = 1;
nodes = (
"370 0 LINE",
"570 0 LINE",
"570 38 LINE",
"381 38 LINE SMOOTH",
"353 38 OFFCURVE",
"332 42.833 OFFCURVE",
"318 52.5 CURVE SMOOTH",
"304 62.167 OFFCURVE",
"294.833 74.667 OFFCURVE",
"290.5 90 CURVE SMOOTH",
"286.167 105.333 OFFCURVE",
"284 120.667 OFFCURVE",
"284 136 CURVE SMOOTH",
"284 699 LINE",
"238 659 LINE",
"238 136 LINE SMOOTH",
"238 106.667 OFFCURVE",
"242.5 81.833 OFFCURVE",
"251.5 61.5 CURVE SMOOTH",
"260.5 41.167 OFFCURVE",
"274.667 25.833 OFFCURVE",
"294 15.5 CURVE SMOOTH",
"313.333 5.167 OFFCURVE",
"338.667 0 OFFCURVE",
"370 0 CURVE"
);
},
{
closed = 1;
nodes = (
"88 506 LINE",
"494 506 LINE",
"494 544 LINE",
"88 544 LINE",
"88 506 LINE"
);
}
);
width = 650;
}
);
note = t;
unicode = 0074;
},
{
glyphname = tbar;
layers = (
{
layerId = "1F6A8684-966D-4E56-8239-254FA8D05321";
paths = (
{
closed = 1;
nodes = (
"89 278 LINE",
"497 278 LINE",
"497 314 LINE",
"89 314 LINE",
"89 278 LINE"
);
},
{
closed = 1;
nodes = (
"370 0 LINE",
"570 0 LINE",
"570 38 LINE",
"381 38 LINE SMOOTH",
"353 38 OFFCURVE",
"332 42.833 OFFCURVE",
"318 52.5 CURVE SMOOTH",
"304 62.167 OFFCURVE",
"294.833 74.667 OFFCURVE",
"290.5 90 CURVE SMOOTH",
"286.167 105.333 OFFCURVE",
"284 120.667 OFFCURVE",
"284 136 CURVE SMOOTH",
"284 699 LINE",
"238 659 LINE",
"238 136 LINE SMOOTH",
"238 106.667 OFFCURVE",
"242.5 81.833 OFFCURVE",
"251.5 61.5 CURVE SMOOTH",
"260.5 41.167 OFFCURVE",
"274.667 25.833 OFFCURVE",
"294 15.5 CURVE SMOOTH",
"313.333 5.167 OFFCURVE",
"338.667 0 OFFCURVE",
"370 0 CURVE"
);
},
{
closed = 1;
nodes = (
"88 506 LINE",
"494 506 LINE",
"494 544 LINE",
"88 544 LINE",
"88 506 LINE"
);
}
);
width = 650;
}
);
note = tbar;
unicode = 0167;
},
{
glyphname = v;
layers = (
{
layerId = "1F6A8684-966D-4E56-8239-254FA8D05321";
paths = (
{
closed = 1;
nodes = (
"300 0 LINE",
"349 0 LINE",
"580 544 LINE",
"531 544 LINE",
"369 163 LINE",
"325 49 LINE",
"281 163 LINE",
"119 544 LINE",
"69 544 LINE",
"300 0 LINE"
);
}
);
width = 650;
}
);
note = v;
unicode = 0076;
},
{
glyphname = w;
layers = (
{
layerId = "1F6A8684-966D-4E56-8239-254FA8D05321";
paths = (
{
closed = 1;
nodes = (
"131 0 LINE",
"192 0 LINE",
"290 342 LINE",
"327 482 LINE",
"363 342 LINE",
"460 0 LINE",
"519 0 LINE",
"626 545 LINE",
"583 545 LINE",
"516 204 LINE",
"488 53 LINE",
"448 204 LINE",
"347 545 LINE",
"306 545 LINE",
"207 204 LINE",
"166 53 LINE",
"136 204 LINE",
"69 545 LINE",
"25 545 LINE",
"131 0 LINE"
);
}
);
width = 650;
}
);
note = w;
unicode = 0077;
},
{
glyphname = x;
layers = (
{
layerId = "1F6A8684-966D-4E56-8239-254FA8D05321";
paths = (
{
closed = 1;
nodes = (
"352 284 LINE",
"547 544 LINE",
"492 544 LINE",
"406 431 LINE",
"323 317 LINE",
"240 430 LINE",
"154 544 LINE",
"98 544 LINE",
"297 283 LINE",
"86 0 LINE",
"141 0 LINE",
"242 135 LINE",
"325 250 LINE",
"407 136 LINE",
"508 0 LINE",
"565 0 LINE",
"352 284 LINE"
);
}
);
width = 650;
}
);
note = x;
unicode = 0078;
},
{
glyphname = y;
layers = (
{
layerId = "1F6A8684-966D-4E56-8239-254FA8D05321";
paths = (
{
closed = 1;
nodes = (
"273 193 LINE",
"123 544 LINE",
"72 544 LINE",
"301 9 LINE",
"280 -41 LINE SMOOTH",
"268 -70.333 OFFCURVE",
"256.833 -93 OFFCURVE",
"246.5 -109 CURVE SMOOTH",
"236.167 -125 OFFCURVE",
"225.167 -136.167 OFFCURVE",
"213.5 -142.5 CURVE SMOOTH",
"201.833 -148.833 OFFCURVE",
"188 -152 OFFCURVE",
"172 -152 CURVE SMOOTH",
"77 -152 LINE",
"77 -190 LINE",
"169 -190 LINE SMOOTH",
"192.333 -190 OFFCURVE",
"212.5 -187 OFFCURVE",
"229.5 -181 CURVE SMOOTH",
"246.5 -175 OFFCURVE",
"261.833 -163.667 OFFCURVE",
"275.5 -147 CURVE SMOOTH",
"289.167 -130.333 OFFCURVE",
"302.667 -106.333 OFFCURVE",
"316 -75 CURVE SMOOTH",
"580 544 LINE",
"530 544 LINE",
"381 194 LINE",
"327 62 LINE",
"273 193 LINE"
);
}
);
width = 650;
}
);
note = y;
unicode = 0079;
},
{
glyphname = z;
layers = (
{
layerId = "1F6A8684-966D-4E56-8239-254FA8D05321";
paths = (
{
closed = 1;
nodes = (
"96 0 LINE",
"558 0 LINE",
"558 38 LINE",
"291 38 LINE",
"153 37 LINE",
"245 143 LINE",
"558 510 LINE",
"558 544 LINE",
"113 544 LINE",
"113 506 LINE",
"363 506 LINE",
"500 507 LINE",
"411 402 LINE",
"96 34 LINE",
"96 0 LINE"
);
}
);
width = 650;
}
);
note = z;
unicode = 007A;
},
{
glyphname = a.ss01;
layers = (
{
layerId = "1F6A8684-966D-4E56-8239-254FA8D05321";
paths = (
{
closed = 1;
nodes = (
"550 0 LINE",
"550 545 LINE",
"509 545 LINE",
"504 395 LINE",
"504 150 LINE",
"509 0 LINE",
"550 0 LINE"
);
},
{
closed = 1;
nodes = (
"345.667 -12 OFFCURVE",
"382.167 -3.833 OFFCURVE",
"414.5 12.5 CURVE SMOOTH",
"446.833 28.833 OFFCURVE",
"473.667 51.5 OFFCURVE",
"495 80.5 CURVE SMOOTH",
"516.333 109.5 OFFCURVE",
"529.667 142.667 OFFCURVE",
"535 180 CURVE",
"535 365 LINE",
"529.667 402.333 OFFCURVE",
"516.333 435.5 OFFCURVE",
"495 464.5 CURVE SMOOTH",
"473.667 493.5 OFFCURVE",
"446.833 516.167 OFFCURVE",
"414.5 532.5 CURVE SMOOTH",
"382.167 548.833 OFFCURVE",
"345.667 557 OFFCURVE",
"305 557 CURVE SMOOTH",
"255.667 557 OFFCURVE",
"212.333 545.333 OFFCURVE",
"175 522 CURVE SMOOTH",
"137.667 498.667 OFFCURVE",
"108.5 465.667 OFFCURVE",
"87.5 423 CURVE SMOOTH",
"66.5 380.333 OFFCURVE",
"56 330 OFFCURVE",
"56 272 CURVE SMOOTH",
"56 214.667 OFFCURVE",
"66.5 164.667 OFFCURVE",
"87.5 122 CURVE SMOOTH",
"108.5 79.333 OFFCURVE",
"137.667 46.333 OFFCURVE",
"175 23 CURVE SMOOTH",
"212.333 -0.333 OFFCURVE",
"255.667 -12 OFFCURVE",
"305 -12 CURVE",
"305 -12 LINE"
);
},
{
closed = 1;
nodes = (
"267 30 OFFCURVE",
"230.667 40 OFFCURVE",
"200 60 CURVE SMOOTH",
"169.333 80 OFFCURVE",
"145.5 108.167 OFFCURVE",
"128.5 144.5 CURVE SMOOTH",
"111.5 180.833 OFFCURVE",
"103 223.333 OFFCURVE",
"103 272 CURVE SMOOTH",
"103 321.333 OFFCURVE",
"111.5 364.167 OFFCURVE",
"128.5 400.5 CURVE SMOOTH",
"145.5 436.833 OFFCURVE",
"169.333 465 OFFCURVE",
"200 485 CURVE SMOOTH",
"230.667 505 OFFCURVE",
"267 515 OFFCURVE",
"309 515 CURVE SMOOTH",
"349.667 515 OFFCURVE",
"386.167 505.167 OFFCURVE",
"418.5 485.5 CURVE SMOOTH",
"450.833 465.833 OFFCURVE",
"476.667 437.833 OFFCURVE",
"496 401.5 CURVE SMOOTH",
"515.333 365.167 OFFCURVE",
"525 322 OFFCURVE",
"525 272 CURVE SMOOTH",
"525 222.667 OFFCURVE",
"515.333 179.833 OFFCURVE",
"496 143.5 CURVE SMOOTH",
"476.667 107.167 OFFCURVE",
"450.833 79.167 OFFCURVE",
"418.5 59.5 CURVE SMOOTH",
"386.167 39.833 OFFCURVE",
"349.667 30 OFFCURVE",
"309 30 CURVE SMOOTH",
"309 30 LINE SMOOTH"
);
}
);
width = 650;
}
);
note = a.ss01;
},
{
glyphname = ae.ss01;
layers = (
{
layerId = "1F6A8684-966D-4E56-8239-254FA8D05321";
paths = (
{
closed = 1;
nodes = (
"337 0 LINE",
"337 544 LINE",
"289 544 LINE",
"291 385 LINE",
"291 157 LINE",
"289 0 LINE",
"337 0 LINE"
);
},
{
closed = 1;
nodes = (
"208.667 -12 OFFCURVE",
"239.5 5.5 OFFCURVE",
"264.5 40.5 CURVE SMOOTH",
"289.5 75.5 OFFCURVE",
"304.667 122 OFFCURVE",
"310 180 CURVE",
"310 365 LINE",
"304.667 423 OFFCURVE",
"289.5 469.333 OFFCURVE",
"264.5 504 CURVE SMOOTH",
"239.5 538.667 OFFCURVE",
"208.667 556 OFFCURVE",
"172 556 CURVE SMOOTH",
"140 556 OFFCURVE",
"112 544.333 OFFCURVE",
"88 521 CURVE SMOOTH",
"64 497.667 OFFCURVE",
"45.5 464.667 OFFCURVE",
"32.5 422 CURVE SMOOTH",
"19.5 379.333 OFFCURVE",
"13 329.333 OFFCURVE",
"13 272 CURVE SMOOTH",
"13 214.667 OFFCURVE",
"19.5 164.667 OFFCURVE",
"32.5 122 CURVE SMOOTH",
"45.5 79.333 OFFCURVE",
"64 46.333 OFFCURVE",
"88 23 CURVE SMOOTH",
"112 -0.333 OFFCURVE",
"140 -12 OFFCURVE",
"172 -12 CURVE",
"172 -12 LINE"
);
},
{
closed = 1;
nodes = (
"140.333 30 OFFCURVE",
"111.667 52 OFFCURVE",
"91 96 CURVE SMOOTH",
"70.333 140 OFFCURVE",
"60 198.667 OFFCURVE",
"60 272 CURVE SMOOTH",
"60 345.333 OFFCURVE",
"70.333 404.167 OFFCURVE",
"91 448.5 CURVE SMOOTH",
"111.667 492.833 OFFCURVE",
"140.333 515 OFFCURVE",
"177 515 CURVE SMOOTH",
"200.333 515 OFFCURVE",
"221 505 OFFCURVE",
"239 485 CURVE SMOOTH",
"257 465 OFFCURVE",
"271.167 436.833 OFFCURVE",
"281.5 400.5 CURVE SMOOTH",
"291.833 364.167 OFFCURVE",
"297 321.333 OFFCURVE",
"297 272 CURVE SMOOTH",
"297 198.667 OFFCURVE",
"285.833 140 OFFCURVE",
"263.5 96 CURVE SMOOTH",
"241.167 52 OFFCURVE",
"212.333 30 OFFCURVE",
"177 30 CURVE SMOOTH",
"177 30 LINE SMOOTH"
);
},
{
closed = 1;
nodes = (
"496.667 -12 OFFCURVE",
"524.333 -4.333 OFFCURVE",
"549 11 CURVE SMOOTH",
"573.667 26.333 OFFCURVE",
"594 47.833 OFFCURVE",
"610 75.5 CURVE SMOOTH",
"626 103.167 OFFCURVE",
"636 136.333 OFFCURVE",
"640 175 CURVE",
"596 175 LINE",
"592.667 145 OFFCURVE",
"584.5 119 OFFCURVE",
"571.5 97 CURVE SMOOTH",
"558.5 75 OFFCURVE",
"542.833 58 OFFCURVE",
"524.5 46 CURVE SMOOTH",
"506.167 34 OFFCURVE",
"487 28 OFFCURVE",
"467 28 CURVE SMOOTH",
"439 28 OFFCURVE",
"415.333 38 OFFCURVE",
"396 58 CURVE SMOOTH",
"376.667 78 OFFCURVE",
"362 106.5 OFFCURVE",
"352 143.5 CURVE SMOOTH",
"342 180.5 OFFCURVE",
"337 224 OFFCURVE",
"337 274 CURVE SMOOTH",
"337 323.333 OFFCURVE",
"343.167 366 OFFCURVE",
"355.5 402 CURVE SMOOTH",
"367.833 438 OFFCURVE",
"384.5 465.833 OFFCURVE",
"405.5 485.5 CURVE SMOOTH",
"426.5 505.167 OFFCURVE",
"450 515 OFFCURVE",
"476 515 CURVE SMOOTH",
"509.333 515 OFFCURVE",
"536.333 502.667 OFFCURVE",
"557 478 CURVE SMOOTH",
"577.667 453.333 OFFCURVE",
"588.667 416.333 OFFCURVE",
"590 367 CURVE",
"333 369 LINE",
"332 327 LINE",
"635 327 LINE",
"637 377 OFFCURVE",
"631.833 419 OFFCURVE",
"619.5 453 CURVE SMOOTH",
"607.167 487 OFFCURVE",
"588.833 512.667 OFFCURVE",
"564.5 530 CURVE SMOOTH",
"540.167 547.333 OFFCURVE",
"511 556 OFFCURVE",
"477 556 CURVE SMOOTH",
"438.333 556 OFFCURVE",
"406.167 544.667 OFFCURVE",
"380.5 522 CURVE SMOOTH",
"354.833 499.333 OFFCURVE",
"335.667 466.833 OFFCURVE",
"323 424.5 CURVE SMOOTH",
"310.333 382.167 OFFCURVE",
"304 331.667 OFFCURVE",
"304 273 CURVE SMOOTH",
"304 214.333 OFFCURVE",
"309.5 163.667 OFFCURVE",
"320.5 121 CURVE SMOOTH",
"331.5 78.333 OFFCURVE",
"349 45.5 OFFCURVE",
"373 22.5 CURVE SMOOTH",
"397 -0.5 OFFCURVE",
"428 -12 OFFCURVE",
"466 -12 CURVE",
"466 -12 LINE"
);
}
);
width = 650;
}
);
note = ae.ss01;
},
{
glyphname = a.ss02;
layers = (
{
layerId = "1F6A8684-966D-4E56-8239-254FA8D05321";
paths = (
{
closed = 1;
nodes = (
"223 0 LINE",
"536 0 LINE",
"536 403 LINE SMOOTH",
"536 439.667 OFFCURVE",
"530.167 468.167 OFFCURVE",
"518.5 488.5 CURVE SMOOTH",
"506.833 508.833 OFFCURVE",
"490.833 523.167 OFFCURVE",
"470.5 531.5 CURVE SMOOTH",
"450.167 539.833 OFFCURVE",
"426.333 544 OFFCURVE",
"399 544 CURVE SMOOTH",
"79 544 LINE",
"79 506 LINE",
"400 506 LINE SMOOTH",
"434 506 OFFCURVE",
"457.5 497.333 OFFCURVE",
"470.5 480 CURVE SMOOTH",
"483.5 462.667 OFFCURVE",
"490 439 OFFCURVE",
"490 409 CURVE SMOOTH",
"490 317 LINE",
"223 317 LINE SMOOTH",
"180.333 317 OFFCURVE",
"145.667 303.333 OFFCURVE",
"119 276 CURVE SMOOTH",
"92.333 248.667 OFFCURVE",
"79 213.333 OFFCURVE",
"79 170 CURVE SMOOTH",
"79 146 LINE SMOOTH",
"79 103.333 OFFCURVE",
"92.333 68.333 OFFCURVE",
"119 41 CURVE SMOOTH",
"145.667 13.667 OFFCURVE",
"180.333 0 OFFCURVE",
"223 0 CURVE"
);
},
{
closed = 1;
nodes = (
"195 38 OFFCURVE",
"170.833 48 OFFCURVE",
"152.5 68 CURVE SMOOTH",
"134.167 88 OFFCURVE",
"125 113.667 OFFCURVE",
"125 145 CURVE SMOOTH",
"125 171 LINE SMOOTH",
"125 203 OFFCURVE",
"134.167 229 OFFCURVE",
"152.5 249 CURVE SMOOTH",
"170.833 269 OFFCURVE",
"195 279 OFFCURVE",
"225 279 CURVE SMOOTH",
"490 279 LINE",
"490 38 LINE",
"225 38 LINE",
"225 38 LINE SMOOTH"
);
}
);
width = 650;
}
);
note = a.ss02;
},
{
glyphname = ae.ss02;
layers = (
{
layerId = "1F6A8684-966D-4E56-8239-254FA8D05321";
paths = (
{
closed = 1;
nodes = (
"164 0 LINE",
"317 0 LINE",
"317 403 LINE SMOOTH",
"317 439.667 OFFCURVE",
"311.167 468.167 OFFCURVE",
"299.5 488.5 CURVE SMOOTH",
"287.833 508.833 OFFCURVE",
"271.833 523.167 OFFCURVE",
"251.5 531.5 CURVE SMOOTH",
"231.167 539.833 OFFCURVE",
"207.333 544 OFFCURVE",
"180 544 CURVE SMOOTH",
"20 544 LINE",
"20 506 LINE",
"181 506 LINE SMOOTH",
"215 506 OFFCURVE",
"238.5 497.333 OFFCURVE",
"251.5 480 CURVE SMOOTH",
"264.5 462.667 OFFCURVE",
"271 439 OFFCURVE",
"271 409 CURVE SMOOTH",
"271 317 LINE",
"164 317 LINE SMOOTH",
"121.333 317 OFFCURVE",
"86.667 303.333 OFFCURVE",
"60 276 CURVE SMOOTH",
"33.333 248.667 OFFCURVE",
"20 213.333 OFFCURVE",
"20 170 CURVE SMOOTH",
"20 146 LINE SMOOTH",
"20 103.333 OFFCURVE",
"33.333 68.333 OFFCURVE",
"60 41 CURVE SMOOTH",
"86.667 13.667 OFFCURVE",
"121.333 0 OFFCURVE",
"164 0 CURVE"
);
},
{
closed = 1;
nodes = (
"136 38 OFFCURVE",
"111.833 48 OFFCURVE",
"93.5 68 CURVE SMOOTH",
"75.167 88 OFFCURVE",
"66 113.667 OFFCURVE",
"66 145 CURVE SMOOTH",
"66 171 LINE SMOOTH",
"66 203 OFFCURVE",
"75.167 229 OFFCURVE",
"93.5 249 CURVE SMOOTH",
"111.833 269 OFFCURVE",
"136 279 OFFCURVE",
"166 279 CURVE SMOOTH",
"271 279 LINE",
"271 38 LINE",
"166 38 LINE",
"166 38 LINE SMOOTH"
);
},
{
closed = 1;
nodes = (
"499.333 -12 OFFCURVE",
"540 4.667 OFFCURVE",
"572 38 CURVE SMOOTH",
"604 71.333 OFFCURVE",
"623.333 117 OFFCURVE",
"630 175 CURVE",
"586 175 LINE",
"580.667 129.667 OFFCURVE",
"565.167 93.833 OFFCURVE",
"539.5 67.5 CURVE SMOOTH",
"513.833 41.167 OFFCURVE",
"484 28 OFFCURVE",
"450 28 CURVE SMOOTH",
"422 28 OFFCURVE",
"398 37.167 OFFCURVE",
"378 55.5 CURVE SMOOTH",
"358 73.833 OFFCURVE",
"342.833 101.333 OFFCURVE",
"332.5 138 CURVE SMOOTH",
"322.167 174.667 OFFCURVE",
"317 220 OFFCURVE",
"317 274 CURVE SMOOTH",
"317 348.667 OFFCURVE",
"329 407.5 OFFCURVE",
"353 450.5 CURVE SMOOTH",
"377 493.5 OFFCURVE",
"412 515 OFFCURVE",
"458 515 CURVE SMOOTH",
"492.667 515 OFFCURVE",
"521.167 502.833 OFFCURVE",
"543.5 478.5 CURVE SMOOTH",
"565.833 454.167 OFFCURVE",
"578 417 OFFCURVE",
"580 367 CURVE",
"313 369 LINE",
"313 327 LINE",
"625 327 LINE",
"627.667 402.333 OFFCURVE",
"613.833 459.333 OFFCURVE",
"583.5 498 CURVE SMOOTH",
"553.167 536.667 OFFCURVE",
"511.333 556 OFFCURVE",
"458 556 CURVE SMOOTH",
"399.333 556 OFFCURVE",
"353.833 530.667 OFFCURVE",
"321.5 480 CURVE SMOOTH",
"289.167 429.333 OFFCURVE",
"273 360.333 OFFCURVE",
"273 273 CURVE SMOOTH",
"273 180.333 OFFCURVE",
"288 109.667 OFFCURVE",
"318 61 CURVE SMOOTH",
"348 12.333 OFFCURVE",
"392 -12 OFFCURVE",
"450 -12 CURVE",
"450 -12 LINE"
);
}
);
width = 650;
}
);
note = ae.ss02;
},
{
glyphname = b.ss03;
layers = (
{
layerId = "1F6A8684-966D-4E56-8239-254FA8D05321";
paths = (
{
closed = 1;
nodes = (
"99 0 LINE",
"412 0 LINE SMOOTH",
"440.667 0 OFFCURVE",
"465.833 6.167 OFFCURVE",
"487.5 18.5 CURVE SMOOTH",
"509.167 30.833 OFFCURVE",
"526 48 OFFCURVE",
"538 70 CURVE SMOOTH",
"550 92 OFFCURVE",
"556 117.333 OFFCURVE",
"556 146 CURVE SMOOTH",
"556 398 LINE SMOOTH",
"556 426.667 OFFCURVE",
"550 452 OFFCURVE",
"538 474 CURVE SMOOTH",
"526 496 OFFCURVE",
"509.167 513.167 OFFCURVE",
"487.5 525.5 CURVE SMOOTH",
"465.833 537.833 OFFCURVE",
"440.667 544 OFFCURVE",
"412 544 CURVE SMOOTH",
"145 544 LINE",
"145 730 LINE",
"99 730 LINE",
"99 0 LINE"
);
},
{
closed = 1;
nodes = (
"145 38 LINE",
"145 506 LINE",
"410 506 LINE SMOOTH",
"440 506 OFFCURVE",
"464.167 496 OFFCURVE",
"482.5 476 CURVE SMOOTH",
"500.833 456 OFFCURVE",
"510 430.333 OFFCURVE",
"510 399 CURVE SMOOTH",
"510 145 LINE SMOOTH",
"510 113.667 OFFCURVE",
"500.833 88 OFFCURVE",
"482.5 68 CURVE SMOOTH",
"464.167 48 OFFCURVE",
"440 38 OFFCURVE",
"410 38 CURVE SMOOTH",
"145 38 LINE"
);
}
);
width = 650;
}
);
note = b.ss03;
},
{
glyphname = d.ss03;
layers = (
{
layerId = "1F6A8684-966D-4E56-8239-254FA8D05321";
paths = (
{
closed = 1;
nodes = (
"551 0 LINE",
"551 730 LINE",
"505 730 LINE",
"505 544 LINE",
"238 544 LINE SMOOTH",
"209.333 544 OFFCURVE",
"184.167 537.833 OFFCURVE",
"162.5 525.5 CURVE SMOOTH",
"140.833 513.167 OFFCURVE",
"124 496 OFFCURVE",
"112 474 CURVE SMOOTH",
"100 452 OFFCURVE",
"94 426.667 OFFCURVE",
"94 398 CURVE SMOOTH",
"94 146 LINE SMOOTH",
"94 117.333 OFFCURVE",
"100 92 OFFCURVE",
"112 70 CURVE SMOOTH",
"124 48 OFFCURVE",
"140.833 30.833 OFFCURVE",
"162.5 18.5 CURVE SMOOTH",
"184.167 6.167 OFFCURVE",
"209.333 0 OFFCURVE",
"238 0 CURVE SMOOTH",
"551 0 LINE"
);
},
{
closed = 1;
nodes = (
"505 38 LINE",
"240 38 LINE SMOOTH",
"210 38 OFFCURVE",
"185.833 48 OFFCURVE",
"167.5 68 CURVE SMOOTH",
"149.167 88 OFFCURVE",
"140 113.667 OFFCURVE",
"140 145 CURVE SMOOTH",
"140 399 LINE SMOOTH",
"140 430.333 OFFCURVE",
"149.167 456 OFFCURVE",
"167.5 476 CURVE SMOOTH",
"185.833 496 OFFCURVE",
"210 506 OFFCURVE",
"240 506 CURVE SMOOTH",
"505 506 LINE",
"505 38 LINE"
);
}
);
width = 650;
}
);
note = d.ss03;
},
{
glyphname = dcroat.ss03;
layers = (
{
layerId = "1F6A8684-966D-4E56-8239-254FA8D05321";
paths = (
{
closed = 1;
nodes = (
"554 0 LINE",
"554 730 LINE",
"508 730 LINE",
"508 506 LINE",
"241 506 LINE SMOOTH",
"212.333 506 OFFCURVE",
"187.167 499.833 OFFCURVE",
"165.5 487.5 CURVE SMOOTH",
"143.833 475.167 OFFCURVE",
"127 458.167 OFFCURVE",
"115 436.5 CURVE SMOOTH",
"103 414.833 OFFCURVE",
"97 389.333 OFFCURVE",
"97 360 CURVE SMOOTH",
"97 146 LINE SMOOTH",
"97 117.333 OFFCURVE",
"103 92 OFFCURVE",
"115 70 CURVE SMOOTH",
"127 48 OFFCURVE",
"143.833 30.833 OFFCURVE",
"165.5 18.5 CURVE SMOOTH",
"187.167 6.167 OFFCURVE",
"212.333 0 OFFCURVE",
"241 0 CURVE SMOOTH",
"554 0 LINE"
);
},
{
closed = 1;
nodes = (
"508 38 LINE",
"243 38 LINE SMOOTH",
"213 38 OFFCURVE",
"188.833 47.833 OFFCURVE",
"170.5 67.5 CURVE SMOOTH",
"152.167 87.167 OFFCURVE",
"143 113 OFFCURVE",
"143 145 CURVE SMOOTH",
"143 361 LINE SMOOTH",
"143 393 OFFCURVE",
"152.167 418.833 OFFCURVE",
"170.5 438.5 CURVE SMOOTH",
"188.833 458.167 OFFCURVE",
"213 468 OFFCURVE",
"243 468 CURVE SMOOTH",
"508 468 LINE",
"508 38 LINE"
);
},
{
closed = 1;
nodes = (
"334 615 LINE",
"639 615 LINE",
"639 653 LINE",
"334 653 LINE",
"334 615 LINE"
);
}
);
width = 650;
}
);
note = dcroat.ss03;
},
{
glyphname = p.ss03;
layers = (
{
layerId = "1F6A8684-966D-4E56-8239-254FA8D05321";
paths = (
{
closed = 1;
nodes = (
"99 544 LINE",
"99 -178 LINE",
"145 -178 LINE",
"145 0 LINE",
"412 0 LINE SMOOTH",
"440.667 0 OFFCURVE",
"465.833 6.167 OFFCURVE",
"487.5 18.5 CURVE SMOOTH",
"509.167 30.833 OFFCURVE",
"526 48 OFFCURVE",
"538 70 CURVE SMOOTH",
"550 92 OFFCURVE",
"556 117.333 OFFCURVE",
"556 146 CURVE SMOOTH",
"556 398 LINE SMOOTH",
"556 426.667 OFFCURVE",
"550 452 OFFCURVE",
"538 474 CURVE SMOOTH",
"526 496 OFFCURVE",
"509.167 513.167 OFFCURVE",
"487.5 525.5 CURVE SMOOTH",
"465.833 537.833 OFFCURVE",
"440.667 544 OFFCURVE",
"412 544 CURVE SMOOTH",
"99 544 LINE"
);
},
{
closed = 1;
nodes = (
"145 506 LINE",
"410 506 LINE SMOOTH",
"440 506 OFFCURVE",
"464.167 496 OFFCURVE",
"482.5 476 CURVE SMOOTH",
"500.833 456 OFFCURVE",
"510 430.333 OFFCURVE",
"510 399 CURVE SMOOTH",
"510 145 LINE SMOOTH",
"510 113.667 OFFCURVE",
"500.833 88 OFFCURVE",
"482.5 68 CURVE SMOOTH",
"464.167 48 OFFCURVE",
"440 38 OFFCURVE",
"410 38 CURVE SMOOTH",
"145 38 LINE",
"145 506 LINE"
);
}
);
width = 650;
}
);
note = p.ss03;
},
{
glyphname = thorn.ss03;
layers = (
{
layerId = "1F6A8684-966D-4E56-8239-254FA8D05321";
paths = (
{
closed = 1;
nodes = (
"145 544 LINE",
"145 730 LINE",
"99 730 LINE",
"99 -178 LINE",
"145 -178 LINE",
"145 0 LINE",
"412 0 LINE SMOOTH",
"440.667 0 OFFCURVE",
"465.833 6.167 OFFCURVE",
"487.5 18.5 CURVE SMOOTH",
"509.167 30.833 OFFCURVE",
"526 48 OFFCURVE",
"538 70 CURVE SMOOTH",
"550 92 OFFCURVE",
"556 117.333 OFFCURVE",
"556 146 CURVE SMOOTH",
"556 398 LINE SMOOTH",
"556 426.667 OFFCURVE",
"550 452 OFFCURVE",
"538 474 CURVE SMOOTH",
"526 496 OFFCURVE",
"509.167 513.167 OFFCURVE",
"487.5 525.5 CURVE SMOOTH",
"465.833 537.833 OFFCURVE",
"440.667 544 OFFCURVE",
"412 544 CURVE SMOOTH",
"145 544 LINE"
);
},
{
closed = 1;
nodes = (
"510 113.667 OFFCURVE",
"500.833 88 OFFCURVE",
"482.5 68 CURVE SMOOTH",
"464.167 48 OFFCURVE",
"440 38 OFFCURVE",
"410 38 CURVE SMOOTH",
"145 38 LINE",
"145 506 LINE",
"410 506 LINE SMOOTH",
"440 506 OFFCURVE",
"464.167 496 OFFCURVE",
"482.5 476 CURVE SMOOTH",
"500.833 456 OFFCURVE",
"510 430.333 OFFCURVE",
"510 399 CURVE SMOOTH",
"510 145 LINE",
"510 145 LINE"
);
}
);
width = 650;
}
);
note = thorn.ss03;
},
{
glyphname = q.ss03;
layers = (
{
layerId = "1F6A8684-966D-4E56-8239-254FA8D05321";
paths = (
{
closed = 1;
nodes = (
"551 545 LINE",
"238 545 LINE SMOOTH",
"209.333 545 OFFCURVE",
"184.167 538.833 OFFCURVE",
"162.5 526.5 CURVE SMOOTH",
"140.833 514.167 OFFCURVE",
"124 497 OFFCURVE",
"112 475 CURVE SMOOTH",
"100 453 OFFCURVE",
"94 427.667 OFFCURVE",
"94 399 CURVE SMOOTH",
"94 146 LINE SMOOTH",
"94 117.333 OFFCURVE",
"100 92 OFFCURVE",
"112 70 CURVE SMOOTH",
"124 48 OFFCURVE",
"140.833 30.833 OFFCURVE",
"162.5 18.5 CURVE SMOOTH",
"184.167 6.167 OFFCURVE",
"209.333 0 OFFCURVE",
"238 0 CURVE SMOOTH",
"505 0 LINE",
"505 -178 LINE",
"551 -178 LINE",
"551 545 LINE"
);
},
{
closed = 1;
nodes = (
"505 507 LINE",
"505 38 LINE",
"240 38 LINE SMOOTH",
"210 38 OFFCURVE",
"185.833 48 OFFCURVE",
"167.5 68 CURVE SMOOTH",
"149.167 88 OFFCURVE",
"140 113.667 OFFCURVE",
"140 145 CURVE SMOOTH",
"140 400 LINE SMOOTH",
"140 431.333 OFFCURVE",
"149.167 457 OFFCURVE",
"167.5 477 CURVE SMOOTH",
"185.833 497 OFFCURVE",
"210 507 OFFCURVE",
"240 507 CURVE SMOOTH",
"505 507 LINE"
);
}
);
width = 650;
}
);
note = q.ss03;
},
{
glyphname = c.ss04;
layers = (
{
layerId = "1F6A8684-966D-4E56-8239-254FA8D05321";
paths = (
{
closed = 1;
nodes = (
"352 0 LINE",
"565 0 LINE",
"565 38 LINE",
"352 38 LINE SMOOTH",
"283.333 38 OFFCURVE",
"228.5 58.833 OFFCURVE",
"187.5 100.5 CURVE SMOOTH",
"146.5 142.167 OFFCURVE",
"126 199.667 OFFCURVE",
"126 273 CURVE SMOOTH",
"126 346.333 OFFCURVE",
"146.5 403.5 OFFCURVE",
"187.5 444.5 CURVE SMOOTH",
"228.5 485.5 OFFCURVE",
"283.333 506 OFFCURVE",
"352 506 CURVE SMOOTH",
"565 506 LINE",
"565 544 LINE",
"352 544 LINE SMOOTH",
"298 544 OFFCURVE",
"250.5 533.167 OFFCURVE",
"209.5 511.5 CURVE SMOOTH",
"168.5 489.833 OFFCURVE",
"136.5 458.833 OFFCURVE",
"113.5 418.5 CURVE SMOOTH",
"90.5 378.167 OFFCURVE",
"79 329.667 OFFCURVE",
"79 273 CURVE SMOOTH",
"79 216.333 OFFCURVE",
"90.5 167.667 OFFCURVE",
"113.5 127 CURVE SMOOTH",
"136.5 86.333 OFFCURVE",
"168.5 55 OFFCURVE",
"209.5 33 CURVE SMOOTH",
"250.5 11 OFFCURVE",
"298 0 OFFCURVE",
"352 0 CURVE"
);
}
);
width = 650;
}
);
note = c.ss04;
},
{
glyphname = g.ss06;
layers = (
{
layerId = "1F6A8684-966D-4E56-8239-254FA8D05321";
paths = (
{
closed = 1;
nodes = (
"273 -189 LINE",
"372 -189 LINE SMOOTH",
"412 -189 OFFCURVE",
"446.167 -183.5 OFFCURVE",
"474.5 -172.5 CURVE SMOOTH",
"502.833 -161.5 OFFCURVE",
"524.667 -145.667 OFFCURVE",
"540 -125 CURVE SMOOTH",
"555.333 -104.333 OFFCURVE",
"563 -80 OFFCURVE",
"563 -52 CURVE SMOOTH",
"563 -18.667 OFFCURVE",
"551.833 10.333 OFFCURVE",
"529.5 35 CURVE SMOOTH",
"507.167 59.667 OFFCURVE",
"476 73.667 OFFCURVE",
"436 77 CURVE SMOOTH",
"254 94 LINE SMOOTH",
"229.333 96.667 OFFCURVE",
"208 101.833 OFFCURVE",
"190 109.5 CURVE SMOOTH",
"172 117.167 OFFCURVE",
"163 133.333 OFFCURVE",
"163 158 CURVE SMOOTH",
"163 168 OFFCURVE",
"166.167 179.333 OFFCURVE",
"172.5 192 CURVE SMOOTH",
"178.833 204.667 OFFCURVE",
"190.333 214.667 OFFCURVE",
"207 222 CURVE",
"197 250 LINE",
"185 247.333 OFFCURVE",
"173.167 241.333 OFFCURVE",
"161.5 232 CURVE SMOOTH",
"149.833 222.667 OFFCURVE",
"140 211 OFFCURVE",
"132 197 CURVE SMOOTH",
"124 183 OFFCURVE",
"120 167.667 OFFCURVE",
"120 151 CURVE SMOOTH",
"120 125.667 OFFCURVE",
"127.167 106.167 OFFCURVE",
"141.5 92.5 CURVE SMOOTH",
"155.833 78.833 OFFCURVE",
"173.167 69.167 OFFCURVE",
"193.5 63.5 CURVE SMOOTH",
"213.833 57.833 OFFCURVE",
"232.333 54 OFFCURVE",
"249 52 CURVE SMOOTH",
"428 35 LINE SMOOTH",
"456.667 32.333 OFFCURVE",
"478.833 23 OFFCURVE",
"494.5 7 CURVE SMOOTH",
"510.167 -9 OFFCURVE",
"518 -28.667 OFFCURVE",
"518 -52 CURVE SMOOTH",
"518 -82 OFFCURVE",
"505 -105.5 OFFCURVE",
"479 -122.5 CURVE SMOOTH",
"453 -139.5 OFFCURVE",
"417.333 -148 OFFCURVE",
"372 -148 CURVE SMOOTH",
"273 -148 LINE SMOOTH",
"224.333 -148 OFFCURVE",
"186.333 -138.333 OFFCURVE",
"159 -119 CURVE SMOOTH",
"131.667 -99.667 OFFCURVE",
"118 -72.667 OFFCURVE",
"118 -38 CURVE SMOOTH",
"118 -11.333 OFFCURVE",
"125.5 11 OFFCURVE",
"140.5 29 CURVE SMOOTH",
"155.5 47 OFFCURVE",
"174.333 61.333 OFFCURVE",
"197 72 CURVE",
"172 93 LINE",
"141.333 82.333 OFFCURVE",
"117.167 64.5 OFFCURVE",
"99.5 39.5 CURVE SMOOTH",
"81.833 14.5 OFFCURVE",
"73 -12.667 OFFCURVE",
"73 -42 CURVE SMOOTH",
"73 -88 OFFCURVE",
"90.667 -124 OFFCURVE",
"126 -150 CURVE SMOOTH",
"161.333 -176 OFFCURVE",
"210.333 -189 OFFCURVE",
"273 -189 CURVE"
);
},
{
closed = 1;
nodes = (
"356.333 188 OFFCURVE",
"391.167 195.833 OFFCURVE",
"421.5 211.5 CURVE SMOOTH",
"451.833 227.167 OFFCURVE",
"475.5 248.833 OFFCURVE",
"492.5 276.5 CURVE SMOOTH",
"509.5 304.167 OFFCURVE",
"518 335.667 OFFCURVE",
"518 371 CURVE SMOOTH",
"518 407.667 OFFCURVE",
"509.5 439.833 OFFCURVE",
"492.5 467.5 CURVE SMOOTH",
"475.5 495.167 OFFCURVE",
"451.833 516.833 OFFCURVE",
"421.5 532.5 CURVE SMOOTH",
"391.167 548.167 OFFCURVE",
"356.333 556 OFFCURVE",
"317 556 CURVE SMOOTH",
"277.667 556 OFFCURVE",
"242.667 548.167 OFFCURVE",
"212 532.5 CURVE SMOOTH",
"181.333 516.833 OFFCURVE",
"157.333 495.167 OFFCURVE",
"140 467.5 CURVE SMOOTH",
"122.667 439.833 OFFCURVE",
"114 407.667 OFFCURVE",
"114 371 CURVE SMOOTH",
"114 335.667 OFFCURVE",
"122.667 304.167 OFFCURVE",
"140 276.5 CURVE SMOOTH",
"157.333 248.833 OFFCURVE",
"181.333 227.167 OFFCURVE",
"212 211.5 CURVE SMOOTH",
"242.667 195.833 OFFCURVE",
"277.667 188 OFFCURVE",
"317 188 CURVE",
"317 188 LINE"
);
},
{
closed = 1;
nodes = (
"268.333 227 OFFCURVE",
"230.333 240.333 OFFCURVE",
"201 267 CURVE SMOOTH",
"171.667 293.667 OFFCURVE",
"157 328.333 OFFCURVE",
"157 371 CURVE SMOOTH",
"157 414.333 OFFCURVE",
"171.833 449.5 OFFCURVE",
"201.5 476.5 CURVE SMOOTH",
"231.167 503.5 OFFCURVE",
"269.333 517 OFFCURVE",
"316 517 CURVE SMOOTH",
"362.667 517 OFFCURVE",
"400.833 503.5 OFFCURVE",
"430.5 476.5 CURVE SMOOTH",
"460.167 449.5 OFFCURVE",
"475 414.333 OFFCURVE",
"475 371 CURVE SMOOTH",
"475 328.333 OFFCURVE",
"460.167 293.667 OFFCURVE",
"430.5 267 CURVE SMOOTH",
"400.833 240.333 OFFCURVE",
"362.333 227 OFFCURVE",
"315 227 CURVE SMOOTH",
"315 227 LINE SMOOTH"
);
},
{
closed = 1;
nodes = (
"484 464 LINE",
"597 542 LINE",
"572 575 LINE",
"459 498 LINE",
"484 464 LINE"
);
}
);
width = 650;
}
);
note = g.ss06;
},
{
glyphname = g.ss07;
layers = (
{
layerId = "1F6A8684-966D-4E56-8239-254FA8D05321";
paths = (
{
closed = 1;
nodes = (
"99 167.333 OFFCURVE",
"105 142 OFFCURVE",
"117 120 CURVE SMOOTH",
"129 98 OFFCURVE",
"145.833 80.833 OFFCURVE",
"167.5 68.5 CURVE SMOOTH",
"189.167 56.167 OFFCURVE",
"214.333 50 OFFCURVE",
"243 50 CURVE SMOOTH",
"510 50 LINE",
"510 -42 LINE SMOOTH",
"510 -78.667 OFFCURVE",
"502 -104.167 OFFCURVE",
"486 -118.5 CURVE SMOOTH",
"470 -132.833 OFFCURVE",
"448 -140 OFFCURVE",
"420 -140 CURVE SMOOTH",
"99 -140 LINE",
"99 -178 LINE",
"419 -178 LINE SMOOTH",
"453 -178 OFFCURVE",
"480 -172.333 OFFCURVE",
"500 -161 CURVE SMOOTH",
"520 -149.667 OFFCURVE",
"534.333 -133.333 OFFCURVE",
"543 -112 CURVE SMOOTH",
"551.667 -90.667 OFFCURVE",
"556 -65.333 OFFCURVE",
"556 -36 CURVE SMOOTH",
"556 545 LINE",
"243 545 LINE SMOOTH",
"214.333 545 OFFCURVE",
"189.167 538.833 OFFCURVE",
"167.5 526.5 CURVE SMOOTH",
"145.833 514.167 OFFCURVE",
"129 497 OFFCURVE",
"117 475 CURVE SMOOTH",
"105 453 OFFCURVE",
"99 427.667 OFFCURVE",
"99 399 CURVE SMOOTH",
"99 196 LINE",
"99 196 LINE"
);
},
{
closed = 1;
nodes = (
"145 195 LINE",
"145 400 LINE SMOOTH",
"145 431.333 OFFCURVE",
"154.167 457 OFFCURVE",
"172.5 477 CURVE SMOOTH",
"190.833 497 OFFCURVE",
"215 507 OFFCURVE",
"245 507 CURVE SMOOTH",
"510 507 LINE",
"510 88 LINE",
"245 88 LINE SMOOTH",
"215 88 OFFCURVE",
"190.833 98 OFFCURVE",
"172.5 118 CURVE SMOOTH",
"154.167 138 OFFCURVE",
"145 163.667 OFFCURVE",
"145 195 CURVE"
);
}
);
width = 650;
}
);
note = g.ss07;
},
{
glyphname = h.ss08;
layers = (
{
layerId = "1F6A8684-966D-4E56-8239-254FA8D05321";
paths = (
{
closed = 1;
nodes = (
"98 0 LINE",
"144 0 LINE",
"144 506 LINE",
"412 506 LINE SMOOTH",
"442 506 OFFCURVE",
"466.167 496 OFFCURVE",
"484.5 476 CURVE SMOOTH",
"502.833 456 OFFCURVE",
"512 430.333 OFFCURVE",
"512 399 CURVE SMOOTH",
"512 0 LINE",
"558 0 LINE",
"558 398 LINE SMOOTH",
"558 426.667 OFFCURVE",
"552 452 OFFCURVE",
"540 474 CURVE SMOOTH",
"528 496 OFFCURVE",
"511.167 513.167 OFFCURVE",
"489.5 525.5 CURVE SMOOTH",
"467.833 537.833 OFFCURVE",
"442.667 544 OFFCURVE",
"414 544 CURVE SMOOTH",
"144 544 LINE",
"144 731 LINE",
"98 731 LINE",
"98 0 LINE"
);
}
);
width = 650;
}
);
note = h.ss08;
},
{
glyphname = hbar.ss08;
layers = (
{
layerId = "1F6A8684-966D-4E56-8239-254FA8D05321";
paths = (
{
closed = 1;
nodes = (
"100 0 LINE",
"146 0 LINE",
"146 468 LINE",
"412 468 LINE SMOOTH",
"442 468 OFFCURVE",
"466.167 458.167 OFFCURVE",
"484.5 438.5 CURVE SMOOTH",
"502.833 418.833 OFFCURVE",
"512 393 OFFCURVE",
"512 361 CURVE SMOOTH",
"512 0 LINE",
"558 0 LINE",
"558 360 LINE SMOOTH",
"558 389.333 OFFCURVE",
"552 414.833 OFFCURVE",
"540 436.5 CURVE SMOOTH",
"528 458.167 OFFCURVE",
"511.167 475.167 OFFCURVE",
"489.5 487.5 CURVE SMOOTH",
"467.833 499.833 OFFCURVE",
"442.667 506 OFFCURVE",
"414 506 CURVE SMOOTH",
"146 506 LINE",
"146 730 LINE",
"100 730 LINE",
"100 0 LINE"
);
},
{
closed = 1;
nodes = (
"7 615 LINE",
"312 615 LINE",
"312 653 LINE",
"7 653 LINE",
"7 615 LINE"
);
}
);
width = 650;
}
);
note = hbar.ss08;
},
{
glyphname = m.ss08;
layers = (
{
layerId = "1F6A8684-966D-4E56-8239-254FA8D05321";
paths = (
{
closed = 1;
nodes = (
"36 0 LINE",
"82 0 LINE",
"82 506 LINE",
"302 506 LINE",
"302 0 LINE",
"348 0 LINE",
"348 506 LINE",
"468 506 LINE SMOOTH",
"498 506 OFFCURVE",
"522.167 496 OFFCURVE",
"540.5 476 CURVE SMOOTH",
"558.833 456 OFFCURVE",
"568 430.333 OFFCURVE",
"568 399 CURVE SMOOTH",
"568 0 LINE",
"614 0 LINE",
"614 398 LINE SMOOTH",
"614 426.667 OFFCURVE",
"608 452 OFFCURVE",
"596 474 CURVE SMOOTH",
"584 496 OFFCURVE",
"567.167 513.167 OFFCURVE",
"545.5 525.5 CURVE SMOOTH",
"523.833 537.833 OFFCURVE",
"498.667 544 OFFCURVE",
"470 544 CURVE SMOOTH",
"36 544 LINE",
"36 0 LINE"
);
}
);
width = 650;
}
);
note = m.ss08;
},
{
glyphname = n.ss08;
layers = (
{
layerId = "1F6A8684-966D-4E56-8239-254FA8D05321";
paths = (
{
closed = 1;
nodes = (
"414 545 LINE",
"98 545 LINE",
"98 0 LINE",
"144 0 LINE",
"144 507 LINE",
"412 507 LINE SMOOTH",
"442 507 OFFCURVE",
"466.167 497 OFFCURVE",
"484.5 477 CURVE SMOOTH",
"502.833 457 OFFCURVE",
"512 431.333 OFFCURVE",
"512 400 CURVE SMOOTH",
"512 0 LINE",
"558 0 LINE",
"558 399 LINE SMOOTH",
"558 427.667 OFFCURVE",
"552 453 OFFCURVE",
"540 475 CURVE SMOOTH",
"528 497 OFFCURVE",
"511.167 514.167 OFFCURVE",
"489.5 526.5 CURVE SMOOTH",
"467.833 538.833 OFFCURVE",
"442.667 545 OFFCURVE",
"414 545 CURVE SMOOTH"
);
}
);
width = 650;
}
);
note = n.ss08;
},
{
glyphname = eng.ss08;
layers = (
{
layerId = "1F6A8684-966D-4E56-8239-254FA8D05321";
paths = (
{
closed = 1;
nodes = (
"96 544 LINE",
"96 0 LINE",
"142 0 LINE",
"142 506 LINE",
"410 506 LINE SMOOTH",
"440 506 OFFCURVE",
"464.167 496 OFFCURVE",
"482.5 476 CURVE SMOOTH",
"500.833 456 OFFCURVE",
"510 430.333 OFFCURVE",
"510 399 CURVE SMOOTH",
"510 -42 LINE SMOOTH",
"510 -78.667 OFFCURVE",
"502 -104.167 OFFCURVE",
"486 -118.5 CURVE SMOOTH",
"470 -132.833 OFFCURVE",
"448 -140 OFFCURVE",
"420 -140 CURVE SMOOTH",
"362 -140 LINE",
"362 -178 LINE",
"419 -178 LINE SMOOTH",
"453 -178 OFFCURVE",
"480 -172.333 OFFCURVE",
"500 -161 CURVE SMOOTH",
"520 -149.667 OFFCURVE",
"534.333 -133.333 OFFCURVE",
"543 -112 CURVE SMOOTH",
"551.667 -90.667 OFFCURVE",
"556 -65.333 OFFCURVE",
"556 -36 CURVE SMOOTH",
"556 398 LINE SMOOTH",
"556 426.667 OFFCURVE",
"550 452 OFFCURVE",
"538 474 CURVE SMOOTH",
"526 496 OFFCURVE",
"509.167 513.167 OFFCURVE",
"487.5 525.5 CURVE SMOOTH",
"465.833 537.833 OFFCURVE",
"440.667 544 OFFCURVE",
"412 544 CURVE SMOOTH",
"96 544 LINE"
);
}
);
width = 650;
}
);
note = eng.ss08;
},
{
glyphname = r.ss10;
layers = (
{
layerId = "1F6A8684-966D-4E56-8239-254FA8D05321";
paths = (
{
closed = 1;
nodes = (
"395 544 LINE",
"148 544 LINE",
"148 0 LINE",
"194 0 LINE",
"194 506 LINE",
"393 506 LINE SMOOTH",
"417 506 OFFCURVE",
"436.333 500.5 OFFCURVE",
"451 489.5 CURVE SMOOTH",
"465.667 478.5 OFFCURVE",
"476.333 464.833 OFFCURVE",
"483 448.5 CURVE SMOOTH",
"489.667 432.167 OFFCURVE",
"493 415.667 OFFCURVE",
"493 399 CURVE SMOOTH",
"493 350 LINE",
"539 350 LINE",
"539 398 LINE SMOOTH",
"539 422.667 OFFCURVE",
"533.833 446.167 OFFCURVE",
"523.5 468.5 CURVE SMOOTH",
"513.167 490.833 OFFCURVE",
"497.333 509 OFFCURVE",
"476 523 CURVE SMOOTH",
"454.667 537 OFFCURVE",
"427.667 544 OFFCURVE",
"395 544 CURVE SMOOTH"
);
}
);
width = 650;
}
);
note = r.ss10;
},
{
glyphname = s.ss11;
layers = (
{
layerId = "1F6A8684-966D-4E56-8239-254FA8D05321";
paths = (
{
closed = 1;
nodes = (
"104 0 LINE",
"386 0 LINE SMOOTH",
"418 0 OFFCURVE",
"446 6.167 OFFCURVE",
"470 18.5 CURVE SMOOTH",
"494 30.833 OFFCURVE",
"512.667 48.167 OFFCURVE",
"526 70.5 CURVE SMOOTH",
"539.333 92.833 OFFCURVE",
"546 118.667 OFFCURVE",
"546 148 CURVE SMOOTH",
"546 177.333 OFFCURVE",
"539 202.833 OFFCURVE",
"525 224.5 CURVE SMOOTH",
"511 246.167 OFFCURVE",
"491.667 263.167 OFFCURVE",
"467 275.5 CURVE SMOOTH",
"442.333 287.833 OFFCURVE",
"414 294 OFFCURVE",
"382 294 CURVE SMOOTH",
"270 294 LINE SMOOTH",
"230.667 294 OFFCURVE",
"200.5 303.833 OFFCURVE",
"179.5 323.5 CURVE SMOOTH",
"158.5 343.167 OFFCURVE",
"148 368.667 OFFCURVE",
"148 400 CURVE SMOOTH",
"148 432 OFFCURVE",
"158.667 457.667 OFFCURVE",
"180 477 CURVE SMOOTH",
"201.333 496.333 OFFCURVE",
"229.333 506 OFFCURVE",
"264 506 CURVE SMOOTH",
"526 506 LINE",
"526 544 LINE",
"264 544 LINE SMOOTH",
"232 544 OFFCURVE",
"204 538 OFFCURVE",
"180 526 CURVE SMOOTH",
"156 514 OFFCURVE",
"137.333 497.333 OFFCURVE",
"124 476 CURVE SMOOTH",
"110.667 454.667 OFFCURVE",
"104 429.333 OFFCURVE",
"104 400 CURVE SMOOTH",
"104 371.333 OFFCURVE",
"111 346.333 OFFCURVE",
"125 325 CURVE SMOOTH",
"139 303.667 OFFCURVE",
"158.333 287 OFFCURVE",
"183 275 CURVE SMOOTH",
"207.667 263 OFFCURVE",
"236 257 OFFCURVE",
"268 257 CURVE SMOOTH",
"380 257 LINE SMOOTH",
"419.333 257 OFFCURVE",
"449.5 247 OFFCURVE",
"470.5 227 CURVE SMOOTH",
"491.5 207 OFFCURVE",
"502 180.667 OFFCURVE",
"502 148 CURVE SMOOTH",
"502 115.333 OFFCURVE",
"491.5 88.833 OFFCURVE",
"470.5 68.5 CURVE SMOOTH",
"449.5 48.167 OFFCURVE",
"421.333 38 OFFCURVE",
"386 38 CURVE SMOOTH",
"104 38 LINE",
"104 0 LINE"
);
}
);
width = 650;
}
);
note = s.ss11;
},
{
glyphname = t.ss12;
layers = (
{
layerId = "1F6A8684-966D-4E56-8239-254FA8D05321";
paths = (
{
closed = 1;
nodes = (
"288 0 LINE",
"334 0 LINE",
"334 710 LINE",
"288 710 LINE",
"288 0 LINE"
);
},
{
closed = 1;
nodes = (
"87 506 LINE",
"567 506 LINE",
"567 544 LINE",
"87 544 LINE",
"87 506 LINE"
);
}
);
width = 650;
}
);
note = t.ss12;
},
{
glyphname = tbar.ss12;
layers = (
{
layerId = "1F6A8684-966D-4E56-8239-254FA8D05321";
paths = (
{
closed = 1;
nodes = (
"88 278 LINE",
"548 278 LINE",
"548 314 LINE",
"88 314 LINE",
"88 278 LINE"
);
},
{
closed = 1;
nodes = (
"288 0 LINE",
"334 0 LINE",
"334 710 LINE",
"288 710 LINE",
"288 0 LINE"
);
},
{
closed = 1;
nodes = (
"87 506 LINE",
"567 506 LINE",
"567 544 LINE",
"87 544 LINE",
"87 506 LINE"
);
}
);
width = 650;
}
);
note = tbar.ss12;
},
{
glyphname = y.ss15;
layers = (
{
layerId = "1F6A8684-966D-4E56-8239-254FA8D05321";
paths = (
{
closed = 1;
nodes = (
"324 50 LINE",
"126 544 LINE",
"78 544 LINE",
"301 -1 LINE",
"229 -178 LINE",
"275 -178 LINE",
"570 544 LINE",
"525 544 LINE",
"324 50 LINE"
);
}
);
width = 650;
}
);
note = y.ss15;
},
{
glyphname = f_b.dlig;
layers = (
{
layerId = "1F6A8684-966D-4E56-8239-254FA8D05321";
paths = (
{
closed = 1;
nodes = (
"281 0 LINE",
"327 0 LINE",
"327 619 LINE SMOOTH",
"327 644.333 OFFCURVE",
"330.667 664 OFFCURVE",
"338 678 CURVE SMOOTH",
"345.333 692 OFFCURVE",
"355.833 702 OFFCURVE",
"369.5 708 CURVE SMOOTH",
"383.167 714 OFFCURVE",
"399 717 OFFCURVE",
"417 717 CURVE SMOOTH",
"574 717 LINE",
"574 755 LINE",
"418 755 LINE SMOOTH",
"382.667 755 OFFCURVE",
"355 749 OFFCURVE",
"335 737 CURVE SMOOTH",
"315 725 OFFCURVE",
"301 708.333 OFFCURVE",
"293 687 CURVE SMOOTH",
"285 665.667 OFFCURVE",
"281 641 OFFCURVE",
"281 613 CURVE SMOOTH",
"281 0 LINE"
);
},
{
closed = 1;
nodes = (
"80 506 LINE",
"764 506 LINE",
"764 544 LINE",
"80 544 LINE",
"80 506 LINE"
);
},
{
closed = 1;
nodes = (
"90 0 LINE",
"564 0 LINE",
"564 38 LINE",
"90 38 LINE",
"90 0 LINE"
);
},
{
closed = 1;
nodes = (
"951.667 556 OFFCURVE",
"912.667 546.667 OFFCURVE",
"878 528 CURVE SMOOTH",
"843.333 509.333 OFFCURVE",
"816 483.667 OFFCURVE",
"796 451 CURVE",
"796 730 LINE",
"750 730 LINE",
"750 0 LINE",
"791 0 LINE",
"794 97 LINE",
"813.333 64.333 OFFCURVE",
"840.667 38 OFFCURVE",
"876 18 CURVE SMOOTH",
"911.333 -2 OFFCURVE",
"951 -12 OFFCURVE",
"995 -12 CURVE SMOOTH",
"1044.333 -12 OFFCURVE",
"1087.667 -0.333 OFFCURVE",
"1125 23 CURVE SMOOTH",
"1162.333 46.333 OFFCURVE",
"1191.5 79.333 OFFCURVE",
"1212.5 122 CURVE SMOOTH",
"1233.5 164.667 OFFCURVE",
"1244 214.667 OFFCURVE",
"1244 272 CURVE SMOOTH",
"1244 330 OFFCURVE",
"1233.5 380.167 OFFCURVE",
"1212.5 422.5 CURVE SMOOTH",
"1191.5 464.833 OFFCURVE",
"1162.333 497.667 OFFCURVE",
"1125 521 CURVE SMOOTH",
"1087.667 544.333 OFFCURVE",
"1044.333 556 OFFCURVE",
"995 556 CURVE SMOOTH",
"995 556 LINE SMOOTH"
);
},
{
closed = 1;
nodes = (
"948.333 30 OFFCURVE",
"909.5 41.5 OFFCURVE",
"874.5 64.5 CURVE SMOOTH",
"839.5 87.5 OFFCURVE",
"813.333 119.333 OFFCURVE",
"796 160 CURVE",
"796 385 LINE",
"813.333 426.333 OFFCURVE",
"839.5 458.167 OFFCURVE",
"874.5 480.5 CURVE SMOOTH",
"909.5 502.833 OFFCURVE",
"948.333 514 OFFCURVE",
"991 514 CURVE SMOOTH",
"1033 514 OFFCURVE",
"1069.333 504.167 OFFCURVE",
"1100 484.5 CURVE SMOOTH",
"1130.667 464.833 OFFCURVE",
"1154.5 436.833 OFFCURVE",
"1171.5 400.5 CURVE SMOOTH",
"1188.5 364.167 OFFCURVE",
"1197 321.333 OFFCURVE",
"1197 272 CURVE SMOOTH",
"1197 223.333 OFFCURVE",
"1188.5 180.833 OFFCURVE",
"1171.5 144.5 CURVE SMOOTH",
"1154.5 108.167 OFFCURVE",
"1130.667 80 OFFCURVE",
"1100 60 CURVE SMOOTH",
"1069.333 40 OFFCURVE",
"1033 30 OFFCURVE",
"991 30 CURVE SMOOTH",
"991 30 LINE SMOOTH"
);
}
);
width = 1300;
}
);
note = f_b.dlig;
},
{
glyphname = f_f.dlig;
layers = (
{
layerId = "1F6A8684-966D-4E56-8239-254FA8D05321";
paths = (
{
closed = 1;
nodes = (
"279 0 LINE",
"325 0 LINE",
"325 619 LINE SMOOTH",
"325 644.333 OFFCURVE",
"328.667 664 OFFCURVE",
"336 678 CURVE SMOOTH",
"343.333 692 OFFCURVE",
"353.833 702 OFFCURVE",
"367.5 708 CURVE SMOOTH",
"381.167 714 OFFCURVE",
"397 717 OFFCURVE",
"415 717 CURVE SMOOTH",
"572 717 LINE",
"572 755 LINE",
"416 755 LINE SMOOTH",
"380.667 755 OFFCURVE",
"353 749 OFFCURVE",
"333 737 CURVE SMOOTH",
"313 725 OFFCURVE",
"299 708.333 OFFCURVE",
"291 687 CURVE SMOOTH",
"283 665.667 OFFCURVE",
"279 641 OFFCURVE",
"279 613 CURVE SMOOTH",
"279 0 LINE"
);
},
{
closed = 1;
nodes = (
"78 506 LINE",
"823 506 LINE",
"823 544 LINE",
"78 544 LINE",
"78 506 LINE"
);
},
{
closed = 1;
nodes = (
"88 0 LINE",
"562 0 LINE",
"562 38 LINE",
"88 38 LINE",
"88 0 LINE"
);
},
{
closed = 1;
nodes = (
"929 0 LINE",
"975 0 LINE",
"975 619 LINE SMOOTH",
"975 644.333 OFFCURVE",
"978.833 664 OFFCURVE",
"986.5 678 CURVE SMOOTH",
"994.167 692 OFFCURVE",
"1004.667 702 OFFCURVE",
"1018 708 CURVE SMOOTH",
"1031.333 714 OFFCURVE",
"1047 717 OFFCURVE",
"1065 717 CURVE SMOOTH",
"1222 717 LINE",
"1222 755 LINE",
"1066 755 LINE SMOOTH",
"1030.667 755 OFFCURVE",
"1003 749 OFFCURVE",
"983 737 CURVE SMOOTH",
"963 725 OFFCURVE",
"949 708.333 OFFCURVE",
"941 687 CURVE SMOOTH",
"933 665.667 OFFCURVE",
"929 641 OFFCURVE",
"929 613 CURVE SMOOTH",
"929 0 LINE"
);
},
{
closed = 1;
nodes = (
"779 506 LINE",
"1185 506 LINE",
"1185 544 LINE",
"779 544 LINE",
"779 506 LINE"
);
},
{
closed = 1;
nodes = (
"738 0 LINE",
"1212 0 LINE",
"1212 38 LINE",
"738 38 LINE",
"738 0 LINE"
);
}
);
width = 1300;
}
);
note = f_f.dlig;
},
{
glyphname = f_f_i.dlig;
layers = (
{
layerId = "1F6A8684-966D-4E56-8239-254FA8D05321";
paths = (
{
closed = 1;
nodes = (
"304 0 LINE",
"350 0 LINE",
"350 619 LINE SMOOTH",
"350 644.333 OFFCURVE",
"353.667 664 OFFCURVE",
"361 678 CURVE SMOOTH",
"368.333 692 OFFCURVE",
"378.833 702 OFFCURVE",
"392.5 708 CURVE SMOOTH",
"406.167 714 OFFCURVE",
"422 717 OFFCURVE",
"440 717 CURVE SMOOTH",
"597 717 LINE",
"597 755 LINE",
"441 755 LINE SMOOTH",
"405.667 755 OFFCURVE",
"378 749 OFFCURVE",
"358 737 CURVE SMOOTH",
"338 725 OFFCURVE",
"324 708.333 OFFCURVE",
"316 687 CURVE SMOOTH",
"308 665.667 OFFCURVE",
"304 641 OFFCURVE",
"304 613 CURVE SMOOTH",
"304 0 LINE"
);
},
{
closed = 1;
nodes = (
"103 506 LINE",
"819 506 LINE",
"819 544 LINE",
"103 544 LINE",
"103 506 LINE"
);
},
{
closed = 1;
nodes = (
"113 0 LINE",
"587 0 LINE",
"587 38 LINE",
"113 38 LINE",
"113 0 LINE"
);
},
{
closed = 1;
nodes = (
"1199 506 LINE",
"1514 506 LINE",
"1514 544 LINE",
"1199 544 LINE",
"1199 506 LINE"
);
},
{
closed = 1;
nodes = (
"1604 0 LINE",
"1650 0 LINE",
"1650 544 LINE",
"1604 544 LINE",
"1604 0 LINE"
);
},
{
closed = 1;
nodes = (
"1413 0 LINE",
"1847 0 LINE",
"1847 38 LINE",
"1413 38 LINE",
"1413 0 LINE"
);
},
{
closed = 1;
nodes = (
"1454 506 LINE",
"1627 506 LINE",
"1627 544 LINE",
"1454 544 LINE",
"1454 506 LINE"
);
},
{
closed = 1;
nodes = (
"954 0 LINE",
"1000 0 LINE",
"1000 619 LINE SMOOTH",
"1000 644.333 OFFCURVE",
"1003.833 664 OFFCURVE",
"1011.5 678 CURVE SMOOTH",
"1019.167 692 OFFCURVE",
"1029.667 702 OFFCURVE",
"1043 708 CURVE SMOOTH",
"1056.333 714 OFFCURVE",
"1072 717 OFFCURVE",
"1090 717 CURVE SMOOTH",
"1247 717 LINE",
"1247 755 LINE",
"1091 755 LINE SMOOTH",
"1055.667 755 OFFCURVE",
"1028 749 OFFCURVE",
"1008 737 CURVE SMOOTH",
"988 725 OFFCURVE",
"974 708.333 OFFCURVE",
"966 687 CURVE SMOOTH",
"958 665.667 OFFCURVE",
"954 641 OFFCURVE",
"954 613 CURVE SMOOTH",
"954 0 LINE"
);
},
{
closed = 1;
nodes = (
"804 506 LINE",
"1210 506 LINE",
"1210 544 LINE",
"804 544 LINE",
"804 506 LINE"
);
},
{
closed = 1;
nodes = (
"763 0 LINE",
"1237 0 LINE",
"1237 38 LINE",
"763 38 LINE",
"763 0 LINE"
);
}
);
width = 1950;
}
);
note = f_f_i.dlig;
},
{
glyphname = f_f_l.dlig;
layers = (
{
layerId = "1F6A8684-966D-4E56-8239-254FA8D05321";
paths = (
{
closed = 1;
nodes = (
"289 0 LINE",
"335 0 LINE",
"335 619 LINE SMOOTH",
"335 644.333 OFFCURVE",
"338.667 664 OFFCURVE",
"346 678 CURVE SMOOTH",
"353.333 692 OFFCURVE",
"363.833 702 OFFCURVE",
"377.5 708 CURVE SMOOTH",
"391.167 714 OFFCURVE",
"407 717 OFFCURVE",
"425 717 CURVE SMOOTH",
"582 717 LINE",
"582 755 LINE",
"426 755 LINE SMOOTH",
"390.667 755 OFFCURVE",
"363 749 OFFCURVE",
"343 737 CURVE SMOOTH",
"323 725 OFFCURVE",
"309 708.333 OFFCURVE",
"301 687 CURVE SMOOTH",
"293 665.667 OFFCURVE",
"289 641 OFFCURVE",
"289 613 CURVE SMOOTH",
"289 0 LINE"
);
},
{
closed = 1;
nodes = (
"939 0 LINE",
"985 0 LINE",
"985 619 LINE SMOOTH",
"985 644.333 OFFCURVE",
"988.667 664 OFFCURVE",
"996 678 CURVE SMOOTH",
"1003.333 692 OFFCURVE",
"1013.833 702 OFFCURVE",
"1027.5 708 CURVE SMOOTH",
"1041.167 714 OFFCURVE",
"1057 717 OFFCURVE",
"1075 717 CURVE SMOOTH",
"1232 717 LINE",
"1232 755 LINE",
"1076 755 LINE SMOOTH",
"1040.667 755 OFFCURVE",
"1013 749 OFFCURVE",
"993 737 CURVE SMOOTH",
"973 725 OFFCURVE",
"959 708.333 OFFCURVE",
"951 687 CURVE SMOOTH",
"943 665.667 OFFCURVE",
"939 641 OFFCURVE",
"939 613 CURVE SMOOTH",
"939 0 LINE"
);
},
{
closed = 1;
nodes = (
"88 506 LINE",
"1232 506 LINE",
"1232 544 LINE",
"88 544 LINE",
"88 506 LINE"
);
},
{
closed = 1;
nodes = (
"98 0 LINE",
"572 0 LINE",
"572 38 LINE",
"98 38 LINE",
"98 0 LINE"
);
},
{
closed = 1;
nodes = (
"748 0 LINE",
"1222 0 LINE",
"1222 38 LINE",
"748 38 LINE",
"748 0 LINE"
);
},
{
closed = 1;
nodes = (
"1589 0 LINE",
"1635 0 LINE",
"1635 730 LINE",
"1589 730 LINE",
"1589 0 LINE"
);
},
{
closed = 1;
nodes = (
"1398 0 LINE",
"1862 0 LINE",
"1862 38 LINE",
"1398 38 LINE",
"1398 0 LINE"
);
},
{
closed = 1;
nodes = (
"1439 692 LINE",
"1612 692 LINE",
"1612 730 LINE",
"1439 730 LINE",
"1439 692 LINE"
);
}
);
width = 1950;
}
);
note = f_f_l.dlig;
},
{
glyphname = f_f_t.dlig;
layers = (
{
layerId = "1F6A8684-966D-4E56-8239-254FA8D05321";
paths = (
{
closed = 1;
nodes = (
"259 0 LINE",
"305 0 LINE",
"305 619 LINE SMOOTH",
"305 644.333 OFFCURVE",
"308.667 664 OFFCURVE",
"316 678 CURVE SMOOTH",
"323.333 692 OFFCURVE",
"333.833 702 OFFCURVE",
"347.5 708 CURVE SMOOTH",
"361.167 714 OFFCURVE",
"377 717 OFFCURVE",
"395 717 CURVE SMOOTH",
"552 717 LINE",
"552 755 LINE",
"396 755 LINE SMOOTH",
"360.667 755 OFFCURVE",
"333 749 OFFCURVE",
"313 737 CURVE SMOOTH",
"293 725 OFFCURVE",
"279 708.333 OFFCURVE",
"271 687 CURVE SMOOTH",
"263 665.667 OFFCURVE",
"259 641 OFFCURVE",
"259 613 CURVE SMOOTH",
"259 0 LINE"
);
},
{
closed = 1;
nodes = (
"58 506 LINE",
"742 506 LINE",
"742 544 LINE",
"58 544 LINE",
"58 506 LINE"
);
},
{
closed = 1;
nodes = (
"68 0 LINE",
"542 0 LINE",
"542 38 LINE",
"68 38 LINE",
"68 0 LINE"
);
},
{
closed = 1;
nodes = (
"909 0 LINE",
"955 0 LINE",
"955 619 LINE SMOOTH",
"955 644.333 OFFCURVE",
"958.667 664 OFFCURVE",
"966 678 CURVE SMOOTH",
"973.333 692 OFFCURVE",
"983.833 702 OFFCURVE",
"997.5 708 CURVE SMOOTH",
"1011.167 714 OFFCURVE",
"1027 717 OFFCURVE",
"1045 717 CURVE SMOOTH",
"1202 717 LINE",
"1202 755 LINE",
"1046 755 LINE SMOOTH",
"1010.667 755 OFFCURVE",
"983 749 OFFCURVE",
"963 737 CURVE SMOOTH",
"943 725 OFFCURVE",
"929 708.333 OFFCURVE",
"921 687 CURVE SMOOTH",
"913 665.667 OFFCURVE",
"909 641 OFFCURVE",
"909 613 CURVE SMOOTH",
"909 0 LINE"
);
},
{
closed = 1;
nodes = (
"708 506 LINE",
"1442 506 LINE",
"1442 544 LINE",
"708 544 LINE",
"708 506 LINE"
);
},
{
closed = 1;
nodes = (
"718 0 LINE",
"1192 0 LINE",
"1192 38 LINE",
"718 38 LINE",
"718 0 LINE"
);
},
{
closed = 1;
nodes = (
"1691 0 LINE",
"1891 0 LINE",
"1891 38 LINE",
"1702 38 LINE SMOOTH",
"1674 38 OFFCURVE",
"1653 42.833 OFFCURVE",
"1639 52.5 CURVE SMOOTH",
"1625 62.167 OFFCURVE",
"1615.833 74.667 OFFCURVE",
"1611.5 90 CURVE SMOOTH",
"1607.167 105.333 OFFCURVE",
"1605 120.667 OFFCURVE",
"1605 136 CURVE SMOOTH",
"1605 699 LINE",
"1559 659 LINE",
"1559 136 LINE SMOOTH",
"1559 106.667 OFFCURVE",
"1563.5 81.833 OFFCURVE",
"1572.5 61.5 CURVE SMOOTH",
"1581.5 41.167 OFFCURVE",
"1595.667 25.833 OFFCURVE",
"1615 15.5 CURVE SMOOTH",
"1634.333 5.167 OFFCURVE",
"1659.667 0 OFFCURVE",
"1691 0 CURVE"
);
},
{
closed = 1;
nodes = (
"1409 506 LINE",
"1815 506 LINE",
"1815 544 LINE",
"1409 544 LINE",
"1409 506 LINE"
);
}
);
width = 1950;
}
);
note = f_f_t.dlig;
},
{
glyphname = f_i.dlig;
layers = (
{
layerId = "1F6A8684-966D-4E56-8239-254FA8D05321";
paths = (
{
closed = 1;
nodes = (
"544 506 LINE",
"859 506 LINE",
"859 544 LINE",
"544 544 LINE",
"544 506 LINE"
);
},
{
closed = 1;
nodes = (
"949 0 LINE",
"995 0 LINE",
"995 544 LINE",
"949 544 LINE",
"949 0 LINE"
);
},
{
closed = 1;
nodes = (
"758 0 LINE",
"1192 0 LINE",
"1192 38 LINE",
"758 38 LINE",
"758 0 LINE"
);
},
{
closed = 1;
nodes = (
"799 506 LINE",
"972 506 LINE",
"972 544 LINE",
"799 544 LINE",
"799 506 LINE"
);
},
{
closed = 1;
nodes = (
"299 0 LINE",
"345 0 LINE",
"345 619 LINE SMOOTH",
"345 644.333 OFFCURVE",
"348.667 664 OFFCURVE",
"356 678 CURVE SMOOTH",
"363.333 692 OFFCURVE",
"373.833 702 OFFCURVE",
"387.5 708 CURVE SMOOTH",
"401.167 714 OFFCURVE",
"417 717 OFFCURVE",
"435 717 CURVE SMOOTH",
"592 717 LINE",
"592 755 LINE",
"436 755 LINE SMOOTH",
"400.667 755 OFFCURVE",
"373 749 OFFCURVE",
"353 737 CURVE SMOOTH",
"333 725 OFFCURVE",
"319 708.333 OFFCURVE",
"311 687 CURVE SMOOTH",
"303 665.667 OFFCURVE",
"299 641 OFFCURVE",
"299 613 CURVE SMOOTH",
"299 0 LINE"
);
},
{
closed = 1;
nodes = (
"149 506 LINE",
"555 506 LINE",
"555 544 LINE",
"149 544 LINE",
"149 506 LINE"
);
},
{
closed = 1;
nodes = (
"108 0 LINE",
"582 0 LINE",
"582 38 LINE",
"108 38 LINE",
"108 0 LINE"
);
}
);
width = 1300;
}
);
note = f_i.dlig;
},
{
glyphname = f_j.dlig;
layers = (
{
layerId = "1F6A8684-966D-4E56-8239-254FA8D05321";
paths = (
{
closed = 1;
nodes = (
"586 506 LINE",
"941 506 LINE",
"941 544 LINE",
"586 544 LINE",
"586 506 LINE"
);
},
{
closed = 1;
nodes = (
"1057 544 LINE",
"1011 544 LINE",
"1011 -42 LINE SMOOTH",
"1011 -78.667 OFFCURVE",
"1003 -104.167 OFFCURVE",
"987 -118.5 CURVE SMOOTH",
"971 -132.833 OFFCURVE",
"949 -140 OFFCURVE",
"921 -140 CURVE SMOOTH",
"703 -140 LINE",
"703 -178 LINE",
"920 -178 LINE SMOOTH",
"954 -178 OFFCURVE",
"981 -172.333 OFFCURVE",
"1001 -161 CURVE SMOOTH",
"1021 -149.667 OFFCURVE",
"1035.333 -133.333 OFFCURVE",
"1044 -112 CURVE SMOOTH",
"1052.667 -90.667 OFFCURVE",
"1057 -65.333 OFFCURVE",
"1057 -36 CURVE SMOOTH",
"1057 544 LINE"
);
},
{
closed = 1;
nodes = (
"861 506 LINE",
"1034 506 LINE",
"1034 544 LINE",
"861 544 LINE",
"861 506 LINE"
);
},
{
closed = 1;
nodes = (
"361 0 LINE",
"407 0 LINE",
"407 619 LINE SMOOTH",
"407 644.333 OFFCURVE",
"410.667 664 OFFCURVE",
"418 678 CURVE SMOOTH",
"425.333 692 OFFCURVE",
"435.833 702 OFFCURVE",
"449.5 708 CURVE SMOOTH",
"463.167 714 OFFCURVE",
"479 717 OFFCURVE",
"497 717 CURVE SMOOTH",
"654 717 LINE",
"654 755 LINE",
"498 755 LINE SMOOTH",
"462.667 755 OFFCURVE",
"435 749 OFFCURVE",
"415 737 CURVE SMOOTH",
"395 725 OFFCURVE",
"381 708.333 OFFCURVE",
"373 687 CURVE SMOOTH",
"365 665.667 OFFCURVE",
"361 641 OFFCURVE",
"361 613 CURVE SMOOTH",
"361 0 LINE"
);
},
{
closed = 1;
nodes = (
"211 506 LINE",
"617 506 LINE",
"617 544 LINE",
"211 544 LINE",
"211 506 LINE"
);
},
{
closed = 1;
nodes = (
"170 0 LINE",
"644 0 LINE",
"644 38 LINE",
"170 38 LINE",
"170 0 LINE"
);
}
);
width = 1300;
}
);
note = f_j.dlig;
},
{
glyphname = f_k.dlig;
layers = (
{
layerId = "1F6A8684-966D-4E56-8239-254FA8D05321";
paths = (
{
closed = 1;
nodes = (
"281 0 LINE",
"327 0 LINE",
"327 619 LINE SMOOTH",
"327 644.333 OFFCURVE",
"330.667 664 OFFCURVE",
"338 678 CURVE SMOOTH",
"345.333 692 OFFCURVE",
"355.833 702 OFFCURVE",
"369.5 708 CURVE SMOOTH",
"383.167 714 OFFCURVE",
"399 717 OFFCURVE",
"417 717 CURVE SMOOTH",
"574 717 LINE",
"574 755 LINE",
"418 755 LINE SMOOTH",
"382.667 755 OFFCURVE",
"355 749 OFFCURVE",
"335 737 CURVE SMOOTH",
"315 725 OFFCURVE",
"301 708.333 OFFCURVE",
"293 687 CURVE SMOOTH",
"285 665.667 OFFCURVE",
"281 641 OFFCURVE",
"281 613 CURVE SMOOTH",
"281 0 LINE"
);
},
{
closed = 1;
nodes = (
"80 506 LINE",
"754 506 LINE",
"754 544 LINE",
"80 544 LINE",
"80 506 LINE"
);
},
{
closed = 1;
nodes = (
"90 0 LINE",
"564 0 LINE",
"564 38 LINE",
"90 38 LINE",
"90 0 LINE"
);
},
{
closed = 1;
nodes = (
"742 0 LINE",
"788 0 LINE",
"788 224 LINE",
"1176 544 LINE",
"1106 544 LINE",
"894 368 LINE",
"788 282 LINE",
"788 417 LINE",
"788 730 LINE",
"742 730 LINE",
"742 0 LINE"
);
},
{
closed = 1;
nodes = (
"1134 0 LINE",
"1189 0 LINE",
"961 386 LINE",
"926 353 LINE",
"1134 0 LINE"
);
}
);
width = 1300;
}
);
note = f_k.dlig;
},
{
glyphname = f_l.dlig;
layers = (
{
layerId = "1F6A8684-966D-4E56-8239-254FA8D05321";
paths = (
{
closed = 1;
nodes = (
"289 0 LINE",
"335 0 LINE",
"335 594 LINE SMOOTH",
"335 631.333 OFFCURVE",
"343.333 657 OFFCURVE",
"360 671 CURVE SMOOTH",
"376.667 685 OFFCURVE",
"398.333 692 OFFCURVE",
"425 692 CURVE SMOOTH",
"582 692 LINE",
"582 730 LINE",
"426 730 LINE SMOOTH",
"390.667 730 OFFCURVE",
"363 724 OFFCURVE",
"343 712 CURVE SMOOTH",
"323 700 OFFCURVE",
"309 683.333 OFFCURVE",
"301 662 CURVE SMOOTH",
"293 640.667 OFFCURVE",
"289 616 OFFCURVE",
"289 588 CURVE SMOOTH",
"289 0 LINE"
);
},
{
closed = 1;
nodes = (
"88 506 LINE",
"582 506 LINE",
"582 544 LINE",
"88 544 LINE",
"88 506 LINE"
);
},
{
closed = 1;
nodes = (
"98 0 LINE",
"572 0 LINE",
"572 38 LINE",
"98 38 LINE",
"98 0 LINE"
);
},
{
closed = 1;
nodes = (
"939 0 LINE",
"985 0 LINE",
"985 730 LINE",
"939 730 LINE",
"939 0 LINE"
);
},
{
closed = 1;
nodes = (
"748 0 LINE",
"1212 0 LINE",
"1212 38 LINE",
"748 38 LINE",
"748 0 LINE"
);
},
{
closed = 1;
nodes = (
"789 692 LINE",
"962 692 LINE",
"962 730 LINE",
"789 730 LINE",
"789 692 LINE"
);
}
);
width = 1300;
}
);
note = f_l.dlig;
},
{
glyphname = f_t.dlig;
layers = (
{
layerId = "1F6A8684-966D-4E56-8239-254FA8D05321";
paths = (
{
closed = 1;
nodes = (
"259 0 LINE",
"305 0 LINE",
"305 619 LINE SMOOTH",
"305 644.333 OFFCURVE",
"308.667 664 OFFCURVE",
"316 678 CURVE SMOOTH",
"323.333 692 OFFCURVE",
"333.833 702 OFFCURVE",
"347.5 708 CURVE SMOOTH",
"361.167 714 OFFCURVE",
"377 717 OFFCURVE",
"395 717 CURVE SMOOTH",
"552 717 LINE",
"552 755 LINE",
"396 755 LINE SMOOTH",
"360.667 755 OFFCURVE",
"333 749 OFFCURVE",
"313 737 CURVE SMOOTH",
"293 725 OFFCURVE",
"279 708.333 OFFCURVE",
"271 687 CURVE SMOOTH",
"263 665.667 OFFCURVE",
"259 641 OFFCURVE",
"259 613 CURVE SMOOTH",
"259 0 LINE"
);
},
{
closed = 1;
nodes = (
"58 506 LINE",
"792 506 LINE",
"792 544 LINE",
"58 544 LINE",
"58 506 LINE"
);
},
{
closed = 1;
nodes = (
"68 0 LINE",
"542 0 LINE",
"542 38 LINE",
"68 38 LINE",
"68 0 LINE"
);
},
{
closed = 1;
nodes = (
"1041 0 LINE",
"1241 0 LINE",
"1241 38 LINE",
"1052 38 LINE SMOOTH",
"1024 38 OFFCURVE",
"1003 42.833 OFFCURVE",
"989 52.5 CURVE SMOOTH",
"975 62.167 OFFCURVE",
"965.833 74.667 OFFCURVE",
"961.5 90 CURVE SMOOTH",
"957.167 105.333 OFFCURVE",
"955 120.667 OFFCURVE",
"955 136 CURVE SMOOTH",
"955 699 LINE",
"909 659 LINE",
"909 136 LINE SMOOTH",
"909 106.667 OFFCURVE",
"913.5 81.833 OFFCURVE",
"922.5 61.5 CURVE SMOOTH",
"931.5 41.167 OFFCURVE",
"945.667 25.833 OFFCURVE",
"965 15.5 CURVE SMOOTH",
"984.333 5.167 OFFCURVE",
"1009.667 0 OFFCURVE",
"1041 0 CURVE"
);
},
{
closed = 1;
nodes = (
"759 506 LINE",
"1165 506 LINE",
"1165 544 LINE",
"759 544 LINE",
"759 506 LINE"
);
}
);
width = 1300;
}
);
note = f_t.dlig;
},
{
glyphname = f_f_t.dlig.ss12;
layers = (
{
layerId = "1F6A8684-966D-4E56-8239-254FA8D05321";
paths = (
{
closed = 1;
nodes = (
"316 0 LINE",
"362 0 LINE",
"362 619 LINE SMOOTH",
"362 644.333 OFFCURVE",
"365.667 664 OFFCURVE",
"373 678 CURVE SMOOTH",
"380.333 692 OFFCURVE",
"390.833 702 OFFCURVE",
"404.5 708 CURVE SMOOTH",
"418.167 714 OFFCURVE",
"434 717 OFFCURVE",
"452 717 CURVE SMOOTH",
"609 717 LINE",
"609 755 LINE",
"453 755 LINE SMOOTH",
"417.667 755 OFFCURVE",
"390 749 OFFCURVE",
"370 737 CURVE SMOOTH",
"350 725 OFFCURVE",
"336 708.333 OFFCURVE",
"328 687 CURVE SMOOTH",
"320 665.667 OFFCURVE",
"316 641 OFFCURVE",
"316 613 CURVE SMOOTH",
"316 0 LINE"
);
},
{
closed = 1;
nodes = (
"115 506 LINE",
"819 506 LINE",
"819 544 LINE",
"115 544 LINE",
"115 506 LINE"
);
},
{
closed = 1;
nodes = (
"125 0 LINE",
"599 0 LINE",
"599 38 LINE",
"125 38 LINE",
"125 0 LINE"
);
},
{
closed = 1;
nodes = (
"966 0 LINE",
"1012 0 LINE",
"1012 619 LINE SMOOTH",
"1012 644.333 OFFCURVE",
"1015.667 664 OFFCURVE",
"1023 678 CURVE SMOOTH",
"1030.333 692 OFFCURVE",
"1040.833 702 OFFCURVE",
"1054.5 708 CURVE SMOOTH",
"1068.167 714 OFFCURVE",
"1084 717 OFFCURVE",
"1102 717 CURVE SMOOTH",
"1259 717 LINE",
"1259 755 LINE",
"1103 755 LINE SMOOTH",
"1067.667 755 OFFCURVE",
"1040 749 OFFCURVE",
"1020 737 CURVE SMOOTH",
"1000 725 OFFCURVE",
"986 708.333 OFFCURVE",
"978 687 CURVE SMOOTH",
"970 665.667 OFFCURVE",
"966 641 OFFCURVE",
"966 613 CURVE SMOOTH",
"966 0 LINE"
);
},
{
closed = 1;
nodes = (
"765 506 LINE",
"1570 506 LINE",
"1570 544 LINE",
"765 544 LINE",
"765 506 LINE"
);
},
{
closed = 1;
nodes = (
"775 0 LINE",
"1249 0 LINE",
"1249 38 LINE",
"775 38 LINE",
"775 0 LINE"
);
},
{
closed = 1;
nodes = (
"1616 0 LINE",
"1662 0 LINE",
"1662 710 LINE",
"1616 710 LINE",
"1616 0 LINE"
);
},
{
closed = 1;
nodes = (
"1415 506 LINE",
"1895 506 LINE",
"1895 544 LINE",
"1415 544 LINE",
"1415 506 LINE"
);
}
);
width = 1950;
}
);
note = f_f_t.dlig.ss12;
},
{
glyphname = f_t.dlig.ss12;
layers = (
{
layerId = "1F6A8684-966D-4E56-8239-254FA8D05321";
paths = (
{
closed = 1;
nodes = (
"316 0 LINE",
"362 0 LINE",
"362 619 LINE SMOOTH",
"362 644.333 OFFCURVE",
"365.667 664 OFFCURVE",
"373 678 CURVE SMOOTH",
"380.333 692 OFFCURVE",
"390.833 702 OFFCURVE",
"404.5 708 CURVE SMOOTH",
"418.167 714 OFFCURVE",
"434 717 OFFCURVE",
"452 717 CURVE SMOOTH",
"609 717 LINE",
"609 755 LINE",
"453 755 LINE SMOOTH",
"417.667 755 OFFCURVE",
"390 749 OFFCURVE",
"370 737 CURVE SMOOTH",
"350 725 OFFCURVE",
"336 708.333 OFFCURVE",
"328 687 CURVE SMOOTH",
"320 665.667 OFFCURVE",
"316 641 OFFCURVE",
"316 613 CURVE SMOOTH",
"316 0 LINE"
);
},
{
closed = 1;
nodes = (
"115 506 LINE",
"920 506 LINE",
"920 544 LINE",
"115 544 LINE",
"115 506 LINE"
);
},
{
closed = 1;
nodes = (
"125 0 LINE",
"599 0 LINE",
"599 38 LINE",
"125 38 LINE",
"125 0 LINE"
);
},
{
closed = 1;
nodes = (
"966 0 LINE",
"1012 0 LINE",
"1012 710 LINE",
"966 710 LINE",
"966 0 LINE"
);
},
{
closed = 1;
nodes = (
"765 506 LINE",
"1245 506 LINE",
"1245 544 LINE",
"765 544 LINE",
"765 506 LINE"
);
}
);
width = 1300;
}
);
note = f_t.dlig.ss12;
},
{
glyphname = ordfeminine;
layers = (
{
layerId = "1F6A8684-966D-4E56-8239-254FA8D05321";
paths = (
{
closed = 1;
nodes = (
"420 349 LINE",
"456 349 LINE",
"456 569 LINE SMOOTH",
"456 611 OFFCURVE",
"442.667 644.833 OFFCURVE",
"416 670.5 CURVE SMOOTH",
"389.333 696.167 OFFCURVE",
"354.333 709 OFFCURVE",
"311 709 CURVE SMOOTH",
"269 709 OFFCURVE",
"235.5 696.667 OFFCURVE",
"210.5 672 CURVE SMOOTH",
"185.5 647.333 OFFCURVE",
"171.667 617 OFFCURVE",
"169 581 CURVE",
"208 581 LINE",
"209.333 609.667 OFFCURVE",
"219.833 632.5 OFFCURVE",
"239.5 649.5 CURVE SMOOTH",
"259.167 666.5 OFFCURVE",
"283.667 675 OFFCURVE",
"313 675 CURVE SMOOTH",
"346.333 675 OFFCURVE",
"372 665.167 OFFCURVE",
"390 645.5 CURVE SMOOTH",
"408 625.833 OFFCURVE",
"417 599.333 OFFCURVE",
"417 566 CURVE SMOOTH",
"417 450 LINE",
"420 349 LINE"
);
},
{
closed = 1;
nodes = (
"312 340 OFFCURVE",
"332.5 344.167 OFFCURVE",
"351.5 352.5 CURVE SMOOTH",
"370.5 360.833 OFFCURVE",
"387.333 372.5 OFFCURVE",
"402 387.5 CURVE SMOOTH",
"416.667 402.5 OFFCURVE",
"427.667 420 OFFCURVE",
"435 440 CURVE",
"421 467 LINE",
"408.333 437 OFFCURVE",
"390.5 414.333 OFFCURVE",
"367.5 399 CURVE SMOOTH",
"344.5 383.667 OFFCURVE",
"320.333 376 OFFCURVE",
"295 376 CURVE SMOOTH",
"270.333 376 OFFCURVE",
"251.5 382.5 OFFCURVE",
"238.5 395.5 CURVE SMOOTH",
"225.5 408.5 OFFCURVE",
"219 424.333 OFFCURVE",
"219 443 CURVE SMOOTH",
"219 467 OFFCURVE",
"228.833 486.833 OFFCURVE",
"248.5 502.5 CURVE SMOOTH",
"268.167 518.167 OFFCURVE",
"294 526 OFFCURVE",
"326 526 CURVE SMOOTH",
"425 526 LINE",
"425 560 LINE",
"328 560 LINE SMOOTH",
"283.333 560 OFFCURVE",
"247.333 549.333 OFFCURVE",
"220 528 CURVE SMOOTH",
"192.667 506.667 OFFCURVE",
"179 478.333 OFFCURVE",
"179 443 CURVE SMOOTH",
"179 423 OFFCURVE",
"183.5 405.333 OFFCURVE",
"192.5 390 CURVE SMOOTH",
"201.5 374.667 OFFCURVE",
"214.333 362.5 OFFCURVE",
"231 353.5 CURVE SMOOTH",
"247.667 344.5 OFFCURVE",
"267.333 340 OFFCURVE",
"290 340 CURVE",
"290 340 LINE"
);
}
);
width = 650;
}
);
note = ordfeminine;
unicode = 00AA;
},
{
glyphname = ordmasculine;
layers = (
{
layerId = "1F6A8684-966D-4E56-8239-254FA8D05321";
paths = (
{
closed = 1;
nodes = (
"375 336 OFFCURVE",
"415.167 352.667 OFFCURVE",
"445.5 386 CURVE SMOOTH",
"475.833 419.333 OFFCURVE",
"491 465 OFFCURVE",
"491 523 CURVE SMOOTH",
"491 580.333 OFFCURVE",
"475.833 625.667 OFFCURVE",
"445.5 659 CURVE SMOOTH",
"415.167 692.333 OFFCURVE",
"375 709 OFFCURVE",
"325 709 CURVE SMOOTH",
"275 709 OFFCURVE",
"234.833 692.333 OFFCURVE",
"204.5 659 CURVE SMOOTH",
"174.167 625.667 OFFCURVE",
"159 580.333 OFFCURVE",
"159 523 CURVE SMOOTH",
"159 465 OFFCURVE",
"174.167 419.333 OFFCURVE",
"204.5 386 CURVE SMOOTH",
"234.833 352.667 OFFCURVE",
"275 336 OFFCURVE",
"325 336 CURVE",
"325 336 LINE"
);
},
{
closed = 1;
nodes = (
"287 371 OFFCURVE",
"256.5 384.5 OFFCURVE",
"233.5 411.5 CURVE SMOOTH",
"210.5 438.5 OFFCURVE",
"199 475.667 OFFCURVE",
"199 523 CURVE SMOOTH",
"199 570.333 OFFCURVE",
"210.5 607.333 OFFCURVE",
"233.5 634 CURVE SMOOTH",
"256.5 660.667 OFFCURVE",
"287 674 OFFCURVE",
"325 674 CURVE SMOOTH",
"363 674 OFFCURVE",
"393.667 660.667 OFFCURVE",
"417 634 CURVE SMOOTH",
"440.333 607.333 OFFCURVE",
"452 570.333 OFFCURVE",
"452 523 CURVE SMOOTH",
"452 475.667 OFFCURVE",
"440.333 438.5 OFFCURVE",
"417 411.5 CURVE SMOOTH",
"393.667 384.5 OFFCURVE",
"363 371 OFFCURVE",
"325 371 CURVE SMOOTH",
"325 371 LINE SMOOTH"
);
}
);
width = 650;
}
);
note = ordmasculine;
unicode = 00BA;
},
{
glyphname = ordfeminine.ss01;
layers = (
{
layerId = "1F6A8684-966D-4E56-8239-254FA8D05321";
paths = (
{
closed = 1;
nodes = (
"349.667 339 OFFCURVE",
"374 344.667 OFFCURVE",
"394 356 CURVE SMOOTH",
"414 367.333 OFFCURVE",
"430.167 382.5 OFFCURVE",
"442.5 401.5 CURVE SMOOTH",
"454.833 420.5 OFFCURVE",
"462.667 442 OFFCURVE",
"466 466 CURVE",
"466 578 LINE",
"462.667 602 OFFCURVE",
"454.833 623.833 OFFCURVE",
"442.5 643.5 CURVE SMOOTH",
"430.167 663.167 OFFCURVE",
"413.833 679 OFFCURVE",
"393.5 691 CURVE SMOOTH",
"373.167 703 OFFCURVE",
"349 709 OFFCURVE",
"321 709 CURVE SMOOTH",
"289 709 OFFCURVE",
"261.167 701 OFFCURVE",
"237.5 685 CURVE SMOOTH",
"213.833 669 OFFCURVE",
"195.5 647 OFFCURVE",
"182.5 619 CURVE SMOOTH",
"169.5 591 OFFCURVE",
"163 558.667 OFFCURVE",
"163 522 CURVE SMOOTH",
"163 466 OFFCURVE",
"177.5 421.5 OFFCURVE",
"206.5 388.5 CURVE SMOOTH",
"235.5 355.5 OFFCURVE",
"273.667 339 OFFCURVE",
"321 339 CURVE",
"321 339 LINE"
);
},
{
closed = 1;
nodes = (
"286.667 376 OFFCURVE",
"258 389.167 OFFCURVE",
"236 415.5 CURVE SMOOTH",
"214 441.833 OFFCURVE",
"203 477.333 OFFCURVE",
"203 522 CURVE SMOOTH",
"203 566 OFFCURVE",
"214 602.333 OFFCURVE",
"236 631 CURVE SMOOTH",
"258 659.667 OFFCURVE",
"286.333 674 OFFCURVE",
"321 674 CURVE SMOOTH",
"343.667 674 OFFCURVE",
"365 667.667 OFFCURVE",
"385 655 CURVE SMOOTH",
"405 642.333 OFFCURVE",
"421.333 624.333 OFFCURVE",
"434 601 CURVE SMOOTH",
"446.667 577.667 OFFCURVE",
"453 550.333 OFFCURVE",
"453 519 CURVE SMOOTH",
"453 487.667 OFFCURVE",
"446.667 461.333 OFFCURVE",
"434 440 CURVE SMOOTH",
"421.333 418.667 OFFCURVE",
"405.167 402.667 OFFCURVE",
"385.5 392 CURVE SMOOTH",
"365.833 381.333 OFFCURVE",
"344.667 376 OFFCURVE",
"322 376 CURVE SMOOTH",
"322 376 LINE SMOOTH"
);
},
{
closed = 1;
nodes = (
"446 349 LINE",
"486 349 LINE",
"485 699 LINE",
"445 699 LINE",
"446 349 LINE"
);
}
);
width = 650;
}
);
note = ordfeminine.ss01;
},
{
glyphname = ordfeminine.ss02;
layers = (
{
layerId = "1F6A8684-966D-4E56-8239-254FA8D05321";
paths = (
{
closed = 1;
nodes = (
"260 349 LINE",
"463 349 LINE",
"463 606 LINE SMOOTH",
"463 636.667 OFFCURVE",
"455.5 659.833 OFFCURVE",
"440.5 675.5 CURVE SMOOTH",
"425.5 691.167 OFFCURVE",
"403.333 699 OFFCURVE",
"374 699 CURVE SMOOTH",
"169 699 LINE",
"169 665 LINE",
"369 665 LINE SMOOTH",
"387 665 OFFCURVE",
"400.333 660 OFFCURVE",
"409 650 CURVE SMOOTH",
"417.667 640 OFFCURVE",
"422 625.667 OFFCURVE",
"422 607 CURVE SMOOTH",
"422 556 LINE",
"260 556 LINE SMOOTH",
"231.333 556 OFFCURVE",
"208.333 546.833 OFFCURVE",
"191 528.5 CURVE SMOOTH",
"173.667 510.167 OFFCURVE",
"165 487 OFFCURVE",
"165 459 CURVE SMOOTH",
"165 444 LINE SMOOTH",
"165 416 OFFCURVE",
"173.667 393.167 OFFCURVE",
"191 375.5 CURVE SMOOTH",
"208.333 357.833 OFFCURVE",
"231.333 349 OFFCURVE",
"260 349 CURVE"
);
},
{
closed = 1;
nodes = (
"248 383 OFFCURVE",
"233.333 388.667 OFFCURVE",
"222 400 CURVE SMOOTH",
"210.667 411.333 OFFCURVE",
"205 426.333 OFFCURVE",
"205 445 CURVE SMOOTH",
"205 458 LINE SMOOTH",
"205 476.667 OFFCURVE",
"210.667 492 OFFCURVE",
"222 504 CURVE SMOOTH",
"233.333 516 OFFCURVE",
"248 522 OFFCURVE",
"266 522 CURVE SMOOTH",
"422 522 LINE",
"422 383 LINE",
"266 383 LINE",
"266 383 LINE SMOOTH"
);
}
);
width = 650;
}
);
note = ordfeminine.ss02;
},
{
glyphname = Delta;
layers = (
{
layerId = "1F6A8684-966D-4E56-8239-254FA8D05321";
paths = (
{
closed = 1;
nodes = (
"24 0 LINE",
"627 0 LINE",
"627 44 LINE",
"354 698 LINE",
"297 698 LINE",
"24 44 LINE",
"24 0 LINE"
);
},
{
closed = 1;
nodes = (
"74 44 LINE",
"325 650 LINE",
"576 44 LINE",
"74 44 LINE"
);
}
);
width = 650;
}
);
note = uni0394;
unicode = 0394;
},
{
glyphname = Omega;
layers = (
{
layerId = "1F6A8684-966D-4E56-8239-254FA8D05321";
paths = (
{
closed = 1;
nodes = (
"23 0 LINE",
"280 0 LINE",
"280 36 LINE",
"210.667 74 OFFCURVE",
"157.667 123.333 OFFCURVE",
"121 184 CURVE SMOOTH",
"84.333 244.667 OFFCURVE",
"66 309.333 OFFCURVE",
"66 378 CURVE SMOOTH",
"66 432 OFFCURVE",
"76.833 480.667 OFFCURVE",
"98.5 524 CURVE SMOOTH",
"120.167 567.333 OFFCURVE",
"150.5 601.667 OFFCURVE",
"189.5 627 CURVE SMOOTH",
"228.5 652.333 OFFCURVE",
"274 665 OFFCURVE",
"326 665 CURVE SMOOTH",
"377.333 665 OFFCURVE",
"422.5 652.333 OFFCURVE",
"461.5 627 CURVE SMOOTH",
"500.5 601.667 OFFCURVE",
"530.833 567.333 OFFCURVE",
"552.5 524 CURVE SMOOTH",
"574.167 480.667 OFFCURVE",
"585 431.667 OFFCURVE",
"585 377 CURVE SMOOTH",
"585 309 OFFCURVE",
"567.167 244.833 OFFCURVE",
"531.5 184.5 CURVE SMOOTH",
"495.833 124.167 OFFCURVE",
"444.333 75 OFFCURVE",
"377 37 CURVE",
"377 0 LINE",
"635 0 LINE",
"635 45 LINE",
"541 45 LINE",
"452 38 LINE",
"514 76 OFFCURVE",
"560.333 125.167 OFFCURVE",
"591 185.5 CURVE SMOOTH",
"621.667 245.833 OFFCURVE",
"637 309.333 OFFCURVE",
"637 376 CURVE SMOOTH",
"637 440 OFFCURVE",
"624 497.167 OFFCURVE",
"598 547.5 CURVE SMOOTH",
"572 597.833 OFFCURVE",
"535.833 637.5 OFFCURVE",
"489.5 666.5 CURVE SMOOTH",
"443.167 695.5 OFFCURVE",
"388.667 710 OFFCURVE",
"326 710 CURVE SMOOTH",
"264 710 OFFCURVE",
"209.5 695.5 OFFCURVE",
"162.5 666.5 CURVE SMOOTH",
"115.5 637.5 OFFCURVE",
"79 597.833 OFFCURVE",
"53 547.5 CURVE SMOOTH",
"27 497.167 OFFCURVE",
"14 440.333 OFFCURVE",
"14 377 CURVE SMOOTH",
"14 310.333 OFFCURVE",
"29.667 246.667 OFFCURVE",
"61 186 CURVE SMOOTH",
"92.333 125.333 OFFCURVE",
"139.333 76 OFFCURVE",
"202 38 CURVE",
"116 45 LINE",
"23 45 LINE",
"23 0 LINE"
);
}
);
width = 650;
}
);
note = uni03A9;
unicode = 03A9;
},
{
glyphname = mu;
layers = (
{
layerId = "1F6A8684-966D-4E56-8239-254FA8D05321";
paths = (
{
closed = 1;
nodes = (
"90 -190 LINE",
"136 -190 LINE",
"136 85 LINE",
"136 114 LINE",
"136 254 LINE",
"90 254 LINE",
"90 -190 LINE"
);
},
{
closed = 1;
nodes = (
"136 544 LINE",
"90 544 LINE",
"90 195 LINE SMOOTH",
"90 153.667 OFFCURVE",
"98.5 117.5 OFFCURVE",
"115.5 86.5 CURVE SMOOTH",
"132.5 55.5 OFFCURVE",
"156.167 31.333 OFFCURVE",
"186.5 14 CURVE SMOOTH",
"216.833 -3.333 OFFCURVE",
"252.333 -12 OFFCURVE",
"293 -12 CURVE SMOOTH",
"347.667 -12 OFFCURVE",
"395.833 5 OFFCURVE",
"437.5 39 CURVE SMOOTH",
"479.167 73 OFFCURVE",
"508.333 120 OFFCURVE",
"525 180 CURVE",
"514 274 LINE",
"503.333 193.333 OFFCURVE",
"477.5 132.5 OFFCURVE",
"436.5 91.5 CURVE SMOOTH",
"395.5 50.5 OFFCURVE",
"348.333 30 OFFCURVE",
"295 30 CURVE SMOOTH",
"247.667 30 OFFCURVE",
"209.333 45.167 OFFCURVE",
"180 75.5 CURVE SMOOTH",
"150.667 105.833 OFFCURVE",
"136 145.333 OFFCURVE",
"136 194 CURVE SMOOTH",
"136 544 LINE"
);
},
{
closed = 1;
nodes = (
"550 544 LINE",
"504 544 LINE",
"504 149 LINE",
"509 0 LINE",
"550 0 LINE",
"550 544 LINE"
);
}
);
width = 650;
}
);
note = uni03BC;
unicode = 03BC;
},
{
glyphname = pi;
layers = (
{
layerId = "1F6A8684-966D-4E56-8239-254FA8D05321";
paths = (
{
closed = 1;
nodes = (
"529 0 LINE",
"609 0 LINE",
"609 38 LINE",
"540 38 LINE SMOOTH",
"515.333 38 OFFCURVE",
"496.667 42.667 OFFCURVE",
"484 52 CURVE SMOOTH",
"471.333 61.333 OFFCURVE",
"463 73.333 OFFCURVE",
"459 88 CURVE SMOOTH",
"455 102.667 OFFCURVE",
"453 117.333 OFFCURVE",
"453 132 CURVE SMOOTH",
"453 544 LINE",
"407 544 LINE",
"407 132 LINE SMOOTH",
"407 107.333 OFFCURVE",
"410.667 85 OFFCURVE",
"418 65 CURVE SMOOTH",
"425.333 45 OFFCURVE",
"437.833 29.167 OFFCURVE",
"455.5 17.5 CURVE SMOOTH",
"473.167 5.833 OFFCURVE",
"497.667 0 OFFCURVE",
"529 0 CURVE"
);
},
{
closed = 1;
nodes = (
"167 0 LINE",
"213 0 LINE",
"213 544 LINE",
"167 544 LINE",
"167 0 LINE"
);
},
{
closed = 1;
nodes = (
"21 504 LINE",
"599 504 LINE",
"599 544 LINE",
"21 544 LINE",
"21 504 LINE"
);
}
);
width = 650;
}
);
note = pi;
unicode = 03C0;
},
{
glyphname = zero;
lastChange = "2023-07-17 13:59:32 +0000";
layers = (
{
layerId = "1F6A8684-966D-4E56-8239-254FA8D05321";
paths = (
{
closed = 1;
nodes = (
"393 -12 OFFCURVE",
"452 8 OFFCURVE",
"500 46 CURVE SMOOTH",
"547 84 OFFCURVE",
"583 139 OFFCURVE",
"608 210 CURVE SMOOTH",
"633 281 OFFCURVE",
"645 365 OFFCURVE",
"645 463 CURVE SMOOTH",
"645 560 OFFCURVE",
"633 645 OFFCURVE",
"608 716 CURVE SMOOTH",
"583 786 OFFCURVE",
"547 841 OFFCURVE",
"500 879 CURVE SMOOTH",
"452 917 OFFCURVE",
"393 937 OFFCURVE",
"324 937 CURVE SMOOTH",
"254 937 OFFCURVE",
"195 917 OFFCURVE",
"147 879 CURVE SMOOTH",
"99 841 OFFCURVE",
"62 786 OFFCURVE",
"38 715 CURVE SMOOTH",
"13 644 OFFCURVE",
"1 560 OFFCURVE",
"1 463 CURVE SMOOTH",
"1 366 OFFCURVE",
"13 282 OFFCURVE",
"38 212 CURVE SMOOTH",
"62 140 OFFCURVE",
"99 86 OFFCURVE",
"147 46 CURVE SMOOTH",
"195 8 OFFCURVE",
"254 -12 OFFCURVE",
"324 -12 CURVE",
"324 -12 LINE"
);
},
{
closed = 1;
nodes = (
"239 47 OFFCURVE",
"174 84 OFFCURVE",
"131 160 CURVE SMOOTH",
"87 234 OFFCURVE",
"66 335 OFFCURVE",
"66 463 CURVE SMOOTH",
"66 591 OFFCURVE",
"87 692 OFFCURVE",
"131 766 CURVE SMOOTH",
"174 841 OFFCURVE",
"239 878 OFFCURVE",
"324 878 CURVE SMOOTH",
"409 878 OFFCURVE",
"473 841 OFFCURVE",
"516 766 CURVE SMOOTH",
"559 692 OFFCURVE",
"581 591 OFFCURVE",
"581 463 CURVE SMOOTH",
"581 335 OFFCURVE",
"559 234 OFFCURVE",
"516 160 CURVE SMOOTH",
"473 84 OFFCURVE",
"409 47 OFFCURVE",
"324 47 CURVE SMOOTH",
"324 47 LINE SMOOTH"
);
}
);
width = 650;
}
);
note = zero;
unicode = 0030;
},
{
glyphname = one;
lastChange = "2023-07-17 14:00:25 +0000";
layers = (
{
layerId = "1F6A8684-966D-4E56-8239-254FA8D05321";
paths = (
{
closed = 1;
nodes = (
"361 0 LINE",
"430 0 LINE",
"430 937 LINE",
"379 937 LINE",
"1 677 LINE",
"1 592 LINE",
"200 736 LINE",
"361 854 LINE",
"361 670 LINE",
"361 0 LINE"
);
},
{
closed = 1;
nodes = (
"1 0 LINE",
"650 0 LINE",
"650 60 LINE",
"1 60 LINE",
"1 0 LINE"
);
}
);
width = 650;
}
);
note = one;
unicode = 0031;
},
{
glyphname = two;
lastChange = "2023-07-17 14:01:22 +0000";
layers = (
{
layerId = "1F6A8684-966D-4E56-8239-254FA8D05321";
paths = (
{
closed = 1;
nodes = (
"4 0 LINE",
"644 0 LINE",
"644 59 LINE",
"95 59 LINE",
"228 152 OFFCURVE",
"333 234 OFFCURVE",
"413 306 CURVE SMOOTH",
"492 378 OFFCURVE",
"551 445 OFFCURVE",
"587 505 CURVE SMOOTH",
"623 566 OFFCURVE",
"642 625 OFFCURVE",
"642 682 CURVE SMOOTH",
"642 732 OFFCURVE",
"630 777 OFFCURVE",
"608 815 CURVE SMOOTH",
"584 853 OFFCURVE",
"551 883 OFFCURVE",
"507 905 CURVE SMOOTH",
"464 926 OFFCURVE",
"411 937 OFFCURVE",
"345 937 CURVE SMOOTH",
"284 937 OFFCURVE",
"231 926 OFFCURVE",
"184 904 CURVE SMOOTH",
"135 882 OFFCURVE",
"95 849 OFFCURVE",
"66 806 CURVE SMOOTH",
"36 762 OFFCURVE",
"18 709 OFFCURVE",
"11 645 CURVE",
"80 645 LINE",
"88 721 OFFCURVE",
"115 779 OFFCURVE",
"163 818 CURVE SMOOTH",
"210 858 OFFCURVE",
"271 878 OFFCURVE",
"345 878 CURVE SMOOTH",
"418 878 OFFCURVE",
"476 859 OFFCURVE",
"514 822 CURVE SMOOTH",
"552 784 OFFCURVE",
"572 736 OFFCURVE",
"572 676 CURVE SMOOTH",
"572 627 OFFCURVE",
"554 574 OFFCURVE",
"515 516 CURVE SMOOTH",
"478 458 OFFCURVE",
"417 391 OFFCURVE",
"334 316 CURVE SMOOTH",
"251 241 OFFCURVE",
"141 152 OFFCURVE",
"4 50 CURVE",
"4 0 LINE"
);
}
);
width = 650;
}
);
note = two;
unicode = 0032;
},
{
glyphname = three;
lastChange = "2023-07-17 14:02:35 +0000";
layers = (
{
layerId = "1F6A8684-966D-4E56-8239-254FA8D05321";
paths = (
{
closed = 1;
nodes = (
"387 -12 OFFCURVE",
"443 -1 OFFCURVE",
"491 22 CURVE SMOOTH",
"538 44 OFFCURVE",
"576 75 OFFCURVE",
"601 115 CURVE SMOOTH",
"628 156 OFFCURVE",
"642 202 OFFCURVE",
"642 254 CURVE SMOOTH",
"642 299 OFFCURVE",
"632 339 OFFCURVE",
"608 372 CURVE SMOOTH",
"588 406 OFFCURVE",
"560 433 OFFCURVE",
"524 453 CURVE SMOOTH",
"488 473 OFFCURVE",
"447 486 OFFCURVE",
"402 491 CURVE",
"440 498 OFFCURVE",
"473 511 OFFCURVE",
"502 533 CURVE SMOOTH",
"530 554 OFFCURVE",
"554 581 OFFCURVE",
"570 612 CURVE SMOOTH",
"586 643 OFFCURVE",
"595 675 OFFCURVE",
"595 708 CURVE SMOOTH",
"595 754 OFFCURVE",
"583 794 OFFCURVE",
"560 828 CURVE SMOOTH",
"534 862 OFFCURVE",
"503 889 OFFCURVE",
"461 908 CURVE SMOOTH",
"421 927 OFFCURVE",
"374 937 OFFCURVE",
"322 937 CURVE SMOOTH",
"271 937 OFFCURVE",
"223 927 OFFCURVE",
"176 907 CURVE SMOOTH",
"130 888 OFFCURVE",
"90 856 OFFCURVE",
"60 813 CURVE SMOOTH",
"29 771 OFFCURVE",
"10 715 OFFCURVE",
"5 647 CURVE",
"73 647 LINE",
"79 725 OFFCURVE",
"105 783 OFFCURVE",
"149 821 CURVE SMOOTH",
"196 859 OFFCURVE",
"254 878 OFFCURVE",
"322 878 CURVE SMOOTH",
"381 878 OFFCURVE",
"430 862 OFFCURVE",
"467 829 CURVE SMOOTH",
"505 797 OFFCURVE",
"524 756 OFFCURVE",
"524 706 CURVE SMOOTH",
"524 672 OFFCURVE",
"515 641 OFFCURVE",
"496 612 CURVE SMOOTH",
"477 582 OFFCURVE",
"451 559 OFFCURVE",
"416 541 CURVE SMOOTH",
"382 523 OFFCURVE",
"340 514 OFFCURVE",
"289 514 CURVE SMOOTH",
"233 514 LINE",
"233 460 LINE",
"285 460 LINE SMOOTH",
"337 460 OFFCURVE",
"385 452 OFFCURVE",
"429 436 CURVE SMOOTH",
"472 420 OFFCURVE",
"508 397 OFFCURVE",
"533 367 CURVE SMOOTH",
"561 336 OFFCURVE",
"574 298 OFFCURVE",
"574 252 CURVE SMOOTH",
"574 192 OFFCURVE",
"550 142 OFFCURVE",
"504 104 CURVE SMOOTH",
"458 66 OFFCURVE",
"397 47 OFFCURVE",
"322 47 CURVE SMOOTH",
"276 47 OFFCURVE",
"234 57 OFFCURVE",
"196 75 CURVE SMOOTH",
"158 94 OFFCURVE",
"127 121 OFFCURVE",
"105 155 CURVE SMOOTH",
"81 189 OFFCURVE",
"68 229 OFFCURVE",
"66 276 CURVE",
"-2 276 LINE",
"1 213 OFFCURVE",
"17 160 OFFCURVE",
"49 117 CURVE SMOOTH",
"78 75 OFFCURVE",
"117 43 OFFCURVE",
"165 21 CURVE SMOOTH",
"213 -1 OFFCURVE",
"265 -12 OFFCURVE",
"322 -12 CURVE",
"322 -12 LINE"
);
}
);
width = 650;
}
);
note = three;
unicode = 0033;
},
{
glyphname = four;
lastChange = "2023-07-17 14:02:08 +0000";
layers = (
{
layerId = "1F6A8684-966D-4E56-8239-254FA8D05321";
paths = (
{
closed = 1;
nodes = (
"443 0 LINE",
"498 0 LINE",
"498 243 LINE",
"646 243 LINE",
"646 303 LINE",
"498 303 LINE",
"498 937 LINE",
"423 937 LINE",
"7 294 LINE",
"7 243 LINE",
"443 243 LINE",
"443 0 LINE"
);
},
{
closed = 1;
nodes = (
"76 303 LINE",
"346 722 LINE",
"443 871 LINE",
"443 687 LINE",
"443 303 LINE",
"76 303 LINE"
);
}
);
width = 650;
}
);
note = four;
unicode = 0034;
},
{
glyphname = five;
lastChange = "2023-07-17 14:07:41 +0000";
layers = (
{
layerId = "1F6A8684-966D-4E56-8239-254FA8D05321";
paths = (
{
closed = 1;
nodes = (
"381 -12 OFFCURVE",
"440 2 OFFCURVE",
"489 29 CURVE SMOOTH",
"539 57 OFFCURVE",
"578 96 OFFCURVE",
"607 146 CURVE SMOOTH",
"633 197 OFFCURVE",
"647 255 OFFCURVE",
"647 321 CURVE SMOOTH",
"647 381 OFFCURVE",
"634 432 OFFCURVE",
"608 477 CURVE SMOOTH",
"580 521 OFFCURVE",
"545 555 OFFCURVE",
"497 580 CURVE SMOOTH",
"450 605 OFFCURVE",
"395 618 OFFCURVE",
"332 618 CURVE SMOOTH",
"288 618 OFFCURVE",
"243 607 OFFCURVE",
"198 585 CURVE SMOOTH",
"151 563 OFFCURVE",
"113 534 OFFCURVE",
"84 499 CURVE",
"144 877 LINE",
"607 877 LINE",
"607 937 LINE",
"92 937 LINE",
"12 430 LINE",
"76 430 LINE",
"106 470 OFFCURVE",
"143 501 OFFCURVE",
"186 523 CURVE SMOOTH",
"230 546 OFFCURVE",
"275 557 OFFCURVE",
"321 557 CURVE SMOOTH",
"397 557 OFFCURVE",
"459 536 OFFCURVE",
"507 493 CURVE SMOOTH",
"553 449 OFFCURVE",
"576 392 OFFCURVE",
"576 321 CURVE SMOOTH",
"576 266 OFFCURVE",
"564 219 OFFCURVE",
"542 178 CURVE SMOOTH",
"522 137 OFFCURVE",
"490 105 OFFCURVE",
"452 82 CURVE SMOOTH",
"413 60 OFFCURVE",
"366 48 OFFCURVE",
"314 48 CURVE SMOOTH",
"239 48 OFFCURVE",
"182 66 OFFCURVE",
"143 103 CURVE SMOOTH",
"101 139 OFFCURVE",
"78 186 OFFCURVE",
"71 243 CURVE",
"0 243 LINE",
"3 193 OFFCURVE",
"18 149 OFFCURVE",
"45 110 CURVE SMOOTH",
"73 72 OFFCURVE",
"107 41 OFFCURVE",
"154 20 CURVE SMOOTH",
"200 -1 OFFCURVE",
"253 -12 OFFCURVE",
"314 -12 CURVE",
"314 -12 LINE"
);
}
);
width = 650;
}
);
note = five;
unicode = 0035;
},
{
glyphname = six;
lastChange = "2023-07-17 14:08:33 +0000";
layers = (
{
layerId = "1F6A8684-966D-4E56-8239-254FA8D05321";
paths = (
{
closed = 1;
nodes = (
"283 608 OFFCURVE",
"227 594 OFFCURVE",
"178 564 CURVE SMOOTH",
"128 533 OFFCURVE",
"91 490 OFFCURVE",
"66 436 CURVE",
"67 524 OFFCURVE",
"81 602 OFFCURVE",
"103 669 CURVE SMOOTH",
"126 735 OFFCURVE",
"159 786 OFFCURVE",
"201 823 CURVE SMOOTH",
"243 859 OFFCURVE",
"295 878 OFFCURVE",
"354 878 CURVE SMOOTH",
"408 878 OFFCURVE",
"452 865 OFFCURVE",
"485 837 CURVE SMOOTH",
"518 810 OFFCURVE",
"539 771 OFFCURVE",
"549 720 CURVE",
"615 720 LINE",
"609 756 OFFCURVE",
"600 786 OFFCURVE",
"586 813 CURVE SMOOTH",
"571 840 OFFCURVE",
"553 862 OFFCURVE",
"530 880 CURVE SMOOTH",
"508 899 OFFCURVE",
"482 913 OFFCURVE",
"453 923 CURVE SMOOTH",
"424 932 OFFCURVE",
"393 937 OFFCURVE",
"357 937 CURVE SMOOTH",
"286 937 OFFCURVE",
"223 915 OFFCURVE",
"169 871 CURVE SMOOTH",
"115 828 OFFCURVE",
"74 767 OFFCURVE",
"45 691 CURVE SMOOTH",
"15 614 OFFCURVE",
"0 526 OFFCURVE",
"0 427 CURVE SMOOTH",
"0 335 OFFCURVE",
"15 256 OFFCURVE",
"42 192 CURVE SMOOTH",
"70 126 OFFCURVE",
"110 76 OFFCURVE",
"159 41 CURVE SMOOTH",
"208 5 OFFCURVE",
"264 -12 OFFCURVE",
"326 -12 CURVE SMOOTH",
"391 -12 OFFCURVE",
"447 1 OFFCURVE",
"494 29 CURVE SMOOTH",
"542 55 OFFCURVE",
"579 92 OFFCURVE",
"605 140 CURVE SMOOTH",
"631 188 OFFCURVE",
"644 243 OFFCURVE",
"644 307 CURVE SMOOTH",
"644 368 OFFCURVE",
"631 420 OFFCURVE",
"605 466 CURVE SMOOTH",
"579 511 OFFCURVE",
"543 547 OFFCURVE",
"498 572 CURVE SMOOTH",
"453 597 OFFCURVE",
"402 608 OFFCURVE",
"344 608 CURVE SMOOTH",
"344 608 LINE SMOOTH"
);
},
{
closed = 1;
nodes = (
"262 47 OFFCURVE",
"206 73 OFFCURVE",
"160 126 CURVE SMOOTH",
"114 177 OFFCURVE",
"83 247 OFFCURVE",
"71 332 CURVE",
"86 394 OFFCURVE",
"118 447 OFFCURVE",
"164 487 CURVE SMOOTH",
"210 528 OFFCURVE",
"268 549 OFFCURVE",
"341 549 CURVE SMOOTH",
"387 549 OFFCURVE",
"428 539 OFFCURVE",
"464 518 CURVE SMOOTH",
"500 497 OFFCURVE",
"527 468 OFFCURVE",
"547 430 CURVE SMOOTH",
"567 392 OFFCURVE",
"576 348 OFFCURVE",
"576 300 CURVE SMOOTH",
"576 251 OFFCURVE",
"566 208 OFFCURVE",
"546 169 CURVE SMOOTH",
"525 131 OFFCURVE",
"496 101 OFFCURVE",
"459 80 CURVE SMOOTH",
"422 58 OFFCURVE",
"378 47 OFFCURVE",
"329 47 CURVE SMOOTH",
"329 47 LINE SMOOTH"
);
}
);
width = 650;
}
);
note = six;
unicode = 0036;
},
{
glyphname = seven;
lastChange = "2023-07-17 14:08:52 +0000";
layers = (
{
layerId = "1F6A8684-966D-4E56-8239-254FA8D05321";
paths = (
{
closed = 1;
nodes = (
"196 0 LINE",
"265 0 LINE",
"278 90 OFFCURVE",
"294 175 OFFCURVE",
"311 251 CURVE SMOOTH",
"330 328 OFFCURVE",
"353 401 OFFCURVE",
"381 473 CURVE SMOOTH",
"409 542 OFFCURVE",
"444 611 OFFCURVE",
"487 679 CURVE SMOOTH",
"530 748 OFFCURVE",
"583 816 OFFCURVE",
"647 887 CURVE",
"647 937 LINE",
"5 937 LINE",
"5 878 LINE",
"571 878 LINE",
"519 827 OFFCURVE",
"472 771 OFFCURVE",
"432 707 CURVE SMOOTH",
"390 644 OFFCURVE",
"355 576 OFFCURVE",
"325 502 CURVE SMOOTH",
"295 428 OFFCURVE",
"269 349 OFFCURVE",
"248 266 CURVE SMOOTH",
"226 181 OFFCURVE",
"208 93 OFFCURVE",
"196 0 CURVE"
);
},
{
closed = 1;
nodes = (
"5 937 LINE",
"5 679 LINE",
"66 679 LINE",
"66 937 LINE",
"5 937 LINE"
);
}
);
width = 650;
}
);
note = seven;
unicode = 0037;
},
{
glyphname = eight;
lastChange = "2023-07-17 14:09:25 +0000";
layers = (
{
layerId = "1F6A8684-966D-4E56-8239-254FA8D05321";
paths = (
{
closed = 1;
nodes = (
"391 -12 OFFCURVE",
"447 -1 OFFCURVE",
"495 22 CURVE SMOOTH",
"542 44 OFFCURVE",
"580 75 OFFCURVE",
"607 115 CURVE SMOOTH",
"634 155 OFFCURVE",
"648 200 OFFCURVE",
"648 252 CURVE SMOOTH",
"648 289 OFFCURVE",
"639 323 OFFCURVE",
"619 355 CURVE SMOOTH",
"599 386 OFFCURVE",
"573 413 OFFCURVE",
"540 436 CURVE SMOOTH",
"507 458 OFFCURVE",
"469 473 OFFCURVE",
"427 480 CURVE",
"226 480 LINE",
"184 472 OFFCURVE",
"146 457 OFFCURVE",
"113 434 CURVE SMOOTH",
"79 412 OFFCURVE",
"54 385 OFFCURVE",
"35 353 CURVE SMOOTH",
"16 322 OFFCURVE",
"6 288 OFFCURVE",
"6 252 CURVE SMOOTH",
"6 200 OFFCURVE",
"20 155 OFFCURVE",
"48 115 CURVE SMOOTH",
"74 75 OFFCURVE",
"113 44 OFFCURVE",
"161 22 CURVE SMOOTH",
"209 -1 OFFCURVE",
"264 -12 OFFCURVE",
"327 -12 CURVE",
"327 -12 LINE"
);
},
{
closed = 1;
nodes = (
"279 47 OFFCURVE",
"235 56 OFFCURVE",
"199 73 CURVE SMOOTH",
"161 90 OFFCURVE",
"131 114 OFFCURVE",
"110 144 CURVE SMOOTH",
"88 175 OFFCURVE",
"78 211 OFFCURVE",
"78 252 CURVE SMOOTH",
"78 291 OFFCURVE",
"88 324 OFFCURVE",
"111 352 CURVE SMOOTH",
"133 380 OFFCURVE",
"164 403 OFFCURVE",
"202 420 CURVE SMOOTH",
"239 437 OFFCURVE",
"281 448 OFFCURVE",
"327 452 CURVE",
"374 448 OFFCURVE",
"417 437 OFFCURVE",
"456 420 CURVE SMOOTH",
"493 403 OFFCURVE",
"523 380 OFFCURVE",
"544 351 CURVE SMOOTH",
"566 323 OFFCURVE",
"577 290 OFFCURVE",
"577 252 CURVE SMOOTH",
"577 211 OFFCURVE",
"566 175 OFFCURVE",
"546 144 CURVE SMOOTH",
"524 114 OFFCURVE",
"494 90 OFFCURVE",
"457 73 CURVE SMOOTH",
"418 56 OFFCURVE",
"374 47 OFFCURVE",
"327 47 CURVE SMOOTH",
"327 47 LINE SMOOTH"
);
},
{
closed = 1;
nodes = (
"284 508 OFFCURVE",
"244 518 OFFCURVE",
"209 533 CURVE SMOOTH",
"173 549 OFFCURVE",
"144 571 OFFCURVE",
"124 597 CURVE SMOOTH",
"103 624 OFFCURVE",
"93 655 OFFCURVE",
"93 691 CURVE SMOOTH",
"93 748 OFFCURVE",
"115 794 OFFCURVE",
"158 827 CURVE SMOOTH",
"202 861 OFFCURVE",
"257 878 OFFCURVE",
"327 878 CURVE SMOOTH",
"396 878 OFFCURVE",
"453 861 OFFCURVE",
"496 827 CURVE SMOOTH",
"540 794 OFFCURVE",
"562 748 OFFCURVE",
"562 691 CURVE SMOOTH",
"562 654 OFFCURVE",
"551 623 OFFCURVE",
"531 597 CURVE SMOOTH",
"510 570 OFFCURVE",
"481 549 OFFCURVE",
"446 533 CURVE SMOOTH",
"410 518 OFFCURVE",
"371 508 OFFCURVE",
"327 503 CURVE",
"327 503 LINE"
);
},
{
closed = 1;
nodes = (
"233 474 LINE",
"420 474 LINE",
"459 481 OFFCURVE",
"495 495 OFFCURVE",
"526 516 CURVE SMOOTH",
"558 537 OFFCURVE",
"582 563 OFFCURVE",
"600 593 CURVE SMOOTH",
"618 624 OFFCURVE",
"627 656 OFFCURVE",
"627 690 CURVE SMOOTH",
"627 738 OFFCURVE",
"615 781 OFFCURVE",
"589 818 CURVE SMOOTH",
"563 855 OFFCURVE",
"530 884 OFFCURVE",
"485 905 CURVE SMOOTH",
"439 926 OFFCURVE",
"386 937 OFFCURVE",
"327 937 CURVE SMOOTH",
"269 937 OFFCURVE",
"217 926 OFFCURVE",
"172 905 CURVE SMOOTH",
"126 884 OFFCURVE",
"91 855 OFFCURVE",
"65 818 CURVE SMOOTH",
"40 781 OFFCURVE",
"27 738 OFFCURVE",
"27 690 CURVE SMOOTH",
"27 656 OFFCURVE",
"36 624 OFFCURVE",
"55 593 CURVE SMOOTH",
"72 563 OFFCURVE",
"98 537 OFFCURVE",
"129 516 CURVE SMOOTH",
"161 495 OFFCURVE",
"195 481 OFFCURVE",
"233 474 CURVE"
);
}
);
width = 650;
}
);
note = eight;
unicode = 0038;
},
{
glyphname = zero.zero;
lastChange = "2023-07-17 14:10:17 +0000";
layers = (
{
layerId = "1F6A8684-966D-4E56-8239-254FA8D05321";
paths = (
{
closed = 1;
nodes = (
"156 61 LINE"
);
},
{
closed = 1;
nodes = (
"396 -12 OFFCURVE",
"455 7 OFFCURVE",
"502 45 CURVE SMOOTH",
"549 84 OFFCURVE",
"585 139 OFFCURVE",
"610 209 CURVE SMOOTH",
"635 280 OFFCURVE",
"647 363 OFFCURVE",
"647 460 CURVE SMOOTH",
"647 558 OFFCURVE",
"635 642 OFFCURVE",
"610 712 CURVE SMOOTH",
"585 782 OFFCURVE",
"549 837 OFFCURVE",
"502 875 CURVE SMOOTH",
"455 914 OFFCURVE",
"396 933 OFFCURVE",
"327 933 CURVE SMOOTH",
"257 933 OFFCURVE",
"198 914 OFFCURVE",
"150 875 CURVE SMOOTH",
"102 837 OFFCURVE",
"66 782 OFFCURVE",
"42 712 CURVE SMOOTH",
"17 641 OFFCURVE",
"4 557 OFFCURVE",
"4 460 CURVE SMOOTH",
"4 365 OFFCURVE",
"17 281 OFFCURVE",
"42 210 CURVE SMOOTH",
"66 139 OFFCURVE",
"102 85 OFFCURVE",
"150 46 CURVE SMOOTH",
"198 7 OFFCURVE",
"256 -12 OFFCURVE",
"327 -12 CURVE",
"327 -12 LINE"
);
},
{
closed = 1;
nodes = (
"242 47 OFFCURVE",
"178 84 OFFCURVE",
"133 159 CURVE SMOOTH",
"90 234 OFFCURVE",
"69 334 OFFCURVE",
"69 460 CURVE SMOOTH",
"69 588 OFFCURVE",
"90 689 OFFCURVE",
"133 763 CURVE SMOOTH",
"178 837 OFFCURVE",
"242 873 OFFCURVE",
"327 873 CURVE SMOOTH",
"410 873 OFFCURVE",
"475 837 OFFCURVE",
"519 763 CURVE SMOOTH",
"561 689 OFFCURVE",
"583 588 OFFCURVE",
"583 460 CURVE SMOOTH",
"583 334 OFFCURVE",
"561 234 OFFCURVE",
"519 159 CURVE SMOOTH",
"475 84 OFFCURVE",
"410 47 OFFCURVE",
"327 47 CURVE SMOOTH",
"327 47 LINE SMOOTH"
);
}
);
width = 650;
}
);
note = zero.zero;
},
{
glyphname = zero.tf;
layers = (
{
layerId = "1F6A8684-966D-4E56-8239-254FA8D05321";
paths = (
{
closed = 1;
nodes = (
"380.333 -12 OFFCURVE",
"426.833 2.667 OFFCURVE",
"464.5 32 CURVE SMOOTH",
"502.167 61.333 OFFCURVE",
"530.833 103 OFFCURVE",
"550.5 157 CURVE SMOOTH",
"570.167 211 OFFCURVE",
"580 275 OFFCURVE",
"580 349 CURVE SMOOTH",
"580 423.667 OFFCURVE",
"570.167 487.833 OFFCURVE",
"550.5 541.5 CURVE SMOOTH",
"530.833 595.167 OFFCURVE",
"502.167 636.667 OFFCURVE",
"464.5 666 CURVE SMOOTH",
"426.833 695.333 OFFCURVE",
"380.333 710 OFFCURVE",
"325 710 CURVE SMOOTH",
"269.667 710 OFFCURVE",
"223 695.333 OFFCURVE",
"185 666 CURVE SMOOTH",
"147 636.667 OFFCURVE",
"118.167 595 OFFCURVE",
"98.5 541 CURVE SMOOTH",
"78.833 487 OFFCURVE",
"69 423 OFFCURVE",
"69 349 CURVE SMOOTH",
"69 275.667 OFFCURVE",
"78.833 212 OFFCURVE",
"98.5 158 CURVE SMOOTH",
"118.167 104 OFFCURVE",
"147 62.167 OFFCURVE",
"185 32.5 CURVE SMOOTH",
"223 2.833 OFFCURVE",
"269.667 -12 OFFCURVE",
"325 -12 CURVE",
"325 -12 LINE"
);
},
{
closed = 1;
nodes = (
"257.667 33 OFFCURVE",
"206.667 61.5 OFFCURVE",
"172 118.5 CURVE SMOOTH",
"137.333 175.5 OFFCURVE",
"120 252.333 OFFCURVE",
"120 349 CURVE SMOOTH",
"120 447 OFFCURVE",
"137.333 524.167 OFFCURVE",
"172 580.5 CURVE SMOOTH",
"206.667 636.833 OFFCURVE",
"257.667 665 OFFCURVE",
"325 665 CURVE SMOOTH",
"392.333 665 OFFCURVE",
"443.167 636.833 OFFCURVE",
"477.5 580.5 CURVE SMOOTH",
"511.833 524.167 OFFCURVE",
"529 447 OFFCURVE",
"529 349 CURVE SMOOTH",
"529 252.333 OFFCURVE",
"511.833 175.5 OFFCURVE",
"477.5 118.5 CURVE SMOOTH",
"443.167 61.5 OFFCURVE",
"392.333 33 OFFCURVE",
"325 33 CURVE SMOOTH",
"325 33 LINE SMOOTH"
);
}
);
width = 650;
}
);
note = zero.tf;
},
{
glyphname = one.tf;
lastChange = "2023-07-17 14:10:54 +0000";
layers = (
{
layerId = "1F6A8684-966D-4E56-8239-254FA8D05321";
paths = (
{
closed = 1;
nodes = (
"360 -230 LINE",
"429 -230 LINE",
"429 937 LINE",
"377 937 LINE",
"1 613 LINE",
"1 507 LINE",
"360 839 LINE",
"360 -230 LINE"
);
},
{
closed = 1;
nodes = (
"1 -230 LINE",
"648 -230 LINE",
"648 -155 LINE",
"1 -155 LINE",
"1 -230 LINE"
);
}
);
width = 650;
}
);
note = one.tf;
},
{
glyphname = four.tf;
layers = (
{
layerId = "1F6A8684-966D-4E56-8239-254FA8D05321";
paths = (
{
closed = 1;
nodes = (
"424 0 LINE",
"471 0 LINE",
"471 181 LINE",
"597 181 LINE",
"597 226 LINE",
"471 226 LINE",
"471 698 LINE",
"407 698 LINE",
"54 219 LINE",
"54 181 LINE",
"424 181 LINE",
"424 0 LINE"
);
},
{
closed = 1;
nodes = (
"113 226 LINE",
"424 649 LINE",
"424 226 LINE",
"113 226 LINE"
);
}
);
width = 650;
}
);
note = four.tf;
},
{
glyphname = seven.tf;
layers = (
{
layerId = "1F6A8684-966D-4E56-8239-254FA8D05321";
paths = (
{
closed = 1;
nodes = (
"237 0 LINE",
"290 0 LINE",
"300 67.333 OFFCURVE",
"311.833 129.667 OFFCURVE",
"325.5 187 CURVE SMOOTH",
"339.167 244.333 OFFCURVE",
"356.667 299.167 OFFCURVE",
"378 351.5 CURVE SMOOTH",
"399.333 403.833 OFFCURVE",
"426.333 455.333 OFFCURVE",
"459 506 CURVE SMOOTH",
"491.667 556.667 OFFCURVE",
"532 608.333 OFFCURVE",
"580 661 CURVE",
"580 699 LINE",
"92 699 LINE",
"92 654 LINE",
"522 654 LINE",
"482.667 616 OFFCURVE",
"447.5 573.5 OFFCURVE",
"416.5 526.5 CURVE SMOOTH",
"385.5 479.5 OFFCURVE",
"358.5 428.5 OFFCURVE",
"335.5 373.5 CURVE SMOOTH",
"312.5 318.5 OFFCURVE",
"292.833 259.833 OFFCURVE",
"276.5 197.5 CURVE SMOOTH",
"260.167 135.167 OFFCURVE",
"247 69.333 OFFCURVE",
"237 0 CURVE"
);
},
{
closed = 1;
nodes = (
"92 666 LINE",
"92 506 LINE",
"139 506 LINE",
"139 666 LINE",
"92 666 LINE"
);
}
);
width = 650;
}
);
note = seven.tf;
},
{
glyphname = zero.dnom;
layers = (
{
layerId = "1F6A8684-966D-4E56-8239-254FA8D05321";
paths = (
{
closed = 1;
nodes = (
"361 -8 OFFCURVE",
"391.5 1.5 OFFCURVE",
"416.5 20.5 CURVE SMOOTH",
"441.5 39.5 OFFCURVE",
"460.5 66.333 OFFCURVE",
"473.5 101 CURVE SMOOTH",
"486.5 135.667 OFFCURVE",
"493 176.333 OFFCURVE",
"493 223 CURVE SMOOTH",
"493 270.333 OFFCURVE",
"486.5 311.333 OFFCURVE",
"473.5 346 CURVE SMOOTH",
"460.5 380.667 OFFCURVE",
"441.5 407.5 OFFCURVE",
"416.5 426.5 CURVE SMOOTH",
"391.5 445.5 OFFCURVE",
"361 455 OFFCURVE",
"325 455 CURVE SMOOTH",
"289 455 OFFCURVE",
"258.5 445.5 OFFCURVE",
"233.5 426.5 CURVE SMOOTH",
"208.5 407.5 OFFCURVE",
"189.5 380.667 OFFCURVE",
"176.5 346 CURVE SMOOTH",
"163.5 311.333 OFFCURVE",
"157 270.333 OFFCURVE",
"157 223 CURVE SMOOTH",
"157 177 OFFCURVE",
"163.5 136.667 OFFCURVE",
"176.5 102 CURVE SMOOTH",
"189.5 67.333 OFFCURVE",
"208.5 40.333 OFFCURVE",
"233.5 21 CURVE SMOOTH",
"258.5 1.667 OFFCURVE",
"289 -8 OFFCURVE",
"325 -8 CURVE",
"325 -8 LINE"
);
},
{
closed = 1;
nodes = (
"285 31 OFFCURVE",
"254.667 48.333 OFFCURVE",
"234 83 CURVE SMOOTH",
"213.333 117.667 OFFCURVE",
"203 164.333 OFFCURVE",
"203 223 CURVE SMOOTH",
"203 283 OFFCURVE",
"213.333 330.167 OFFCURVE",
"234 364.5 CURVE SMOOTH",
"254.667 398.833 OFFCURVE",
"285 416 OFFCURVE",
"325 416 CURVE SMOOTH",
"365.667 416 OFFCURVE",
"396.167 398.833 OFFCURVE",
"416.5 364.5 CURVE SMOOTH",
"436.833 330.167 OFFCURVE",
"447 283 OFFCURVE",
"447 223 CURVE SMOOTH",
"447 164.333 OFFCURVE",
"436.833 117.667 OFFCURVE",
"416.5 83 CURVE SMOOTH",
"396.167 48.333 OFFCURVE",
"365.667 31 OFFCURVE",
"325 31 CURVE SMOOTH",
"325 31 LINE SMOOTH"
);
}
);
width = 650;
}
);
note = zero.dnom;
},
{
glyphname = one.dnom;
layers = (
{
layerId = "1F6A8684-966D-4E56-8239-254FA8D05321";
paths = (
{
closed = 1;
nodes = (
"320 0 LINE",
"364 0 LINE",
"364 448 LINE",
"326 448 LINE",
"165 322 LINE",
"165 270 LINE",
"320 395 LINE",
"320 0 LINE"
);
},
{
closed = 1;
nodes = (
"141 39 LINE",
"141 0 LINE",
"507 0 LINE",
"507 39 LINE",
"141 39 LINE"
);
}
);
width = 650;
}
);
note = one.dnom;
},
{
glyphname = two.dnom;
layers = (
{
layerId = "1F6A8684-966D-4E56-8239-254FA8D05321";
paths = (
{
closed = 1;
nodes = (
"170 0 LINE",
"472 0 LINE",
"472 39 LINE",
"232 39 LINE",
"290 80.333 OFFCURVE",
"336.333 117.667 OFFCURVE",
"371 151 CURVE SMOOTH",
"405.667 184.333 OFFCURVE",
"430.833 215.167 OFFCURVE",
"446.5 243.5 CURVE SMOOTH",
"462.167 271.833 OFFCURVE",
"470 299.333 OFFCURVE",
"470 326 CURVE SMOOTH",
"470 364 OFFCURVE",
"457.167 395 OFFCURVE",
"431.5 419 CURVE SMOOTH",
"405.833 443 OFFCURVE",
"370.333 455 OFFCURVE",
"325 455 CURVE SMOOTH",
"282.333 455 OFFCURVE",
"247.167 442.667 OFFCURVE",
"219.5 418 CURVE SMOOTH",
"191.833 393.333 OFFCURVE",
"176 357.333 OFFCURVE",
"172 310 CURVE",
"217 310 LINE",
"219.667 346 OFFCURVE",
"231.167 372.667 OFFCURVE",
"251.5 390 CURVE SMOOTH",
"271.833 407.333 OFFCURVE",
"296.333 416 OFFCURVE",
"325 416 CURVE SMOOTH",
"356.333 416 OFFCURVE",
"380.833 407.667 OFFCURVE",
"398.5 391 CURVE SMOOTH",
"416.167 374.333 OFFCURVE",
"425 352.667 OFFCURVE",
"425 326 CURVE SMOOTH",
"425 304 OFFCURVE",
"416.5 279.333 OFFCURVE",
"399.5 252 CURVE SMOOTH",
"382.5 224.667 OFFCURVE",
"355.333 193.167 OFFCURVE",
"318 157.5 CURVE SMOOTH",
"280.667 121.833 OFFCURVE",
"231.333 80.333 OFFCURVE",
"170 33 CURVE",
"170 0 LINE"
);
}
);
width = 650;
}
);
note = two.dnom;
},
{
glyphname = three.dnom;
layers = (
{
layerId = "1F6A8684-966D-4E56-8239-254FA8D05321";
paths = (
{
closed = 1;
nodes = (
"378 -8 OFFCURVE",
"415.333 4.167 OFFCURVE",
"444 28.5 CURVE SMOOTH",
"472.667 52.833 OFFCURVE",
"487 84.333 OFFCURVE",
"487 123 CURVE SMOOTH",
"487 154.333 OFFCURVE",
"477 180.167 OFFCURVE",
"457 200.5 CURVE SMOOTH",
"437 220.833 OFFCURVE",
"411.333 233.333 OFFCURVE",
"380 238 CURVE",
"404.667 242 OFFCURVE",
"425.167 253.833 OFFCURVE",
"441.5 273.5 CURVE SMOOTH",
"457.833 293.167 OFFCURVE",
"466 315.333 OFFCURVE",
"466 340 CURVE SMOOTH",
"466 375.333 OFFCURVE",
"453.833 403.333 OFFCURVE",
"429.5 424 CURVE SMOOTH",
"405.167 444.667 OFFCURVE",
"372.667 455 OFFCURVE",
"332 455 CURVE SMOOTH",
"308 455 OFFCURVE",
"285 450 OFFCURVE",
"263 440 CURVE SMOOTH",
"241 430 OFFCURVE",
"222.667 414.5 OFFCURVE",
"208 393.5 CURVE SMOOTH",
"193.333 372.5 OFFCURVE",
"184.667 345.333 OFFCURVE",
"182 312 CURVE",
"227 312 LINE",
"229 346.667 OFFCURVE",
"239.833 372.667 OFFCURVE",
"259.5 390 CURVE SMOOTH",
"279.167 407.333 OFFCURVE",
"303.333 416 OFFCURVE",
"332 416 CURVE SMOOTH",
"358.667 416 OFFCURVE",
"379.833 409.167 OFFCURVE",
"395.5 395.5 CURVE SMOOTH",
"411.167 381.833 OFFCURVE",
"419 363.667 OFFCURVE",
"419 341 CURVE SMOOTH",
"419 318.333 OFFCURVE",
"410.167 298.167 OFFCURVE",
"392.5 280.5 CURVE SMOOTH",
"374.833 262.833 OFFCURVE",
"350 254 OFFCURVE",
"318 254 CURVE SMOOTH",
"292 254 LINE",
"292 216 LINE",
"316 216 LINE SMOOTH",
"350 216 OFFCURVE",
"379.333 208.167 OFFCURVE",
"404 192.5 CURVE SMOOTH",
"428.667 176.833 OFFCURVE",
"441 153.333 OFFCURVE",
"441 122 CURVE SMOOTH",
"441 95.333 OFFCURVE",
"430.667 73.667 OFFCURVE",
"410 57 CURVE SMOOTH",
"389.333 40.333 OFFCURVE",
"363.333 32 OFFCURVE",
"332 32 CURVE SMOOTH",
"302 32 OFFCURVE",
"276.167 41.5 OFFCURVE",
"254.5 60.5 CURVE SMOOTH",
"232.833 79.5 OFFCURVE",
"221.667 105 OFFCURVE",
"221 137 CURVE",
"177 137 LINE",
"177.667 107 OFFCURVE",
"185 81.167 OFFCURVE",
"199 59.5 CURVE SMOOTH",
"213 37.833 OFFCURVE",
"231.667 21.167 OFFCURVE",
"255 9.5 CURVE SMOOTH",
"278.333 -2.167 OFFCURVE",
"304 -8 OFFCURVE",
"332 -8 CURVE",
"332 -8 LINE"
);
}
);
width = 650;
}
);
note = three.dnom;
},
{
glyphname = four.dnom;
layers = (
{
layerId = "1F6A8684-966D-4E56-8239-254FA8D05321";
paths = (
{
closed = 1;
nodes = (
"378 0 LINE",
"421 0 LINE",
"421 113 LINE",
"515 113 LINE",
"515 151 LINE",
"421 151 LINE",
"421 448 LINE",
"361 448 LINE",
"140 145 LINE",
"140 113 LINE",
"378 113 LINE",
"378 0 LINE"
);
},
{
closed = 1;
nodes = (
"189 151 LINE",
"378 408 LINE",
"378 151 LINE",
"189 151 LINE"
);
}
);
width = 650;
}
);
note = four.dnom;
},
{
glyphname = five.dnom;
layers = (
{
layerId = "1F6A8684-966D-4E56-8239-254FA8D05321";
paths = (
{
closed = 1;
nodes = (
"375.667 -8 OFFCURVE",
"413.167 7 OFFCURVE",
"441.5 37 CURVE SMOOTH",
"469.833 67 OFFCURVE",
"484 105.667 OFFCURVE",
"484 153 CURVE SMOOTH",
"484 182.333 OFFCURVE",
"478 208 OFFCURVE",
"466 230 CURVE SMOOTH",
"454 252 OFFCURVE",
"437.333 269.167 OFFCURVE",
"416 281.5 CURVE SMOOTH",
"394.667 293.833 OFFCURVE",
"369.667 300 OFFCURVE",
"341 300 CURVE SMOOTH",
"321 300 OFFCURVE",
"301 294.833 OFFCURVE",
"281 284.5 CURVE SMOOTH",
"261 274.167 OFFCURVE",
"245.333 261.667 OFFCURVE",
"234 247 CURVE",
"259 409 LINE",
"464 409 LINE",
"464 448 LINE",
"224 448 LINE",
"187 202 LINE",
"228 202 LINE",
"240 220 OFFCURVE",
"255.5 234.167 OFFCURVE",
"274.5 244.5 CURVE SMOOTH",
"293.5 254.833 OFFCURVE",
"312.667 260 OFFCURVE",
"332 260 CURVE SMOOTH",
"363.333 260 OFFCURVE",
"388.833 250 OFFCURVE",
"408.5 230 CURVE SMOOTH",
"428.167 210 OFFCURVE",
"438 184.333 OFFCURVE",
"438 153 CURVE SMOOTH",
"438 117 OFFCURVE",
"428.167 87.667 OFFCURVE",
"408.5 65 CURVE SMOOTH",
"388.833 42.333 OFFCURVE",
"362.333 31 OFFCURVE",
"329 31 CURVE SMOOTH",
"298.333 31 OFFCURVE",
"274 39.167 OFFCURVE",
"256 55.5 CURVE SMOOTH",
"238 71.833 OFFCURVE",
"227.333 92.667 OFFCURVE",
"224 118 CURVE",
"182 118 LINE",
"184 80.667 OFFCURVE",
"198.833 50.333 OFFCURVE",
"226.5 27 CURVE SMOOTH",
"254.167 3.667 OFFCURVE",
"288.333 -8 OFFCURVE",
"329 -8 CURVE",
"329 -8 LINE"
);
}
);
width = 650;
}
);
note = five.dnom;
},
{
glyphname = six.dnom;
layers = (
{
layerId = "1F6A8684-966D-4E56-8239-254FA8D05321";
paths = (
{
closed = 1;
nodes = (
"313 294 OFFCURVE",
"288.167 287.5 OFFCURVE",
"266.5 274.5 CURVE SMOOTH",
"244.833 261.5 OFFCURVE",
"228 243.333 OFFCURVE",
"216 220 CURVE",
"218 279.333 OFFCURVE",
"229.833 326.833 OFFCURVE",
"251.5 362.5 CURVE SMOOTH",
"273.167 398.167 OFFCURVE",
"302.333 416 OFFCURVE",
"339 416 CURVE SMOOTH",
"362.333 416 OFFCURVE",
"382.667 410 OFFCURVE",
"400 398 CURVE SMOOTH",
"417.333 386 OFFCURVE",
"428 368.667 OFFCURVE",
"432 346 CURVE",
"476 346 LINE",
"474 361.333 OFFCURVE",
"469.333 375.667 OFFCURVE",
"462 389 CURVE SMOOTH",
"454.667 402.333 OFFCURVE",
"445.167 414 OFFCURVE",
"433.5 424 CURVE SMOOTH",
"421.833 434 OFFCURVE",
"408.167 441.667 OFFCURVE",
"392.5 447 CURVE SMOOTH",
"376.833 452.333 OFFCURVE",
"359.333 455 OFFCURVE",
"340 455 CURVE SMOOTH",
"306 455 OFFCURVE",
"276.333 444 OFFCURVE",
"251 422 CURVE SMOOTH",
"225.667 400 OFFCURVE",
"206 370 OFFCURVE",
"192 332 CURVE SMOOTH",
"178 294 OFFCURVE",
"171 250.667 OFFCURVE",
"171 202 CURVE SMOOTH",
"171 160.667 OFFCURVE",
"177.667 124.167 OFFCURVE",
"191 92.5 CURVE SMOOTH",
"204.333 60.833 OFFCURVE",
"223.167 36.167 OFFCURVE",
"247.5 18.5 CURVE SMOOTH",
"271.833 0.833 OFFCURVE",
"300 -8 OFFCURVE",
"332 -8 CURVE SMOOTH",
"364 -8 OFFCURVE",
"391.5 -1.333 OFFCURVE",
"414.5 12 CURVE SMOOTH",
"437.5 25.333 OFFCURVE",
"455.333 44 OFFCURVE",
"468 68 CURVE SMOOTH",
"480.667 92 OFFCURVE",
"487 120 OFFCURVE",
"487 152 CURVE SMOOTH",
"487 180.667 OFFCURVE",
"480.5 205.5 OFFCURVE",
"467.5 226.5 CURVE SMOOTH",
"454.5 247.5 OFFCURVE",
"437 264 OFFCURVE",
"415 276 CURVE SMOOTH",
"393 288 OFFCURVE",
"368.333 294 OFFCURVE",
"341 294 CURVE SMOOTH",
"341 294 LINE SMOOTH"
);
},
{
closed = 1;
nodes = (
"302 31 OFFCURVE",
"276.667 43 OFFCURVE",
"256 67 CURVE SMOOTH",
"235.333 91 OFFCURVE",
"222.333 123.333 OFFCURVE",
"217 164 CURVE",
"225 190.667 OFFCURVE",
"239.333 212.5 OFFCURVE",
"260 229.5 CURVE SMOOTH",
"280.667 246.5 OFFCURVE",
"306 255 OFFCURVE",
"336 255 CURVE SMOOTH",
"367.333 255 OFFCURVE",
"392.833 244.833 OFFCURVE",
"412.5 224.5 CURVE SMOOTH",
"432.167 204.167 OFFCURVE",
"442 177.333 OFFCURVE",
"442 144 CURVE SMOOTH",
"442 111.333 OFFCURVE",
"431.667 84.333 OFFCURVE",
"411 63 CURVE SMOOTH",
"390.333 41.667 OFFCURVE",
"364 31 OFFCURVE",
"332 31 CURVE SMOOTH",
"332 31 LINE SMOOTH"
);
}
);
width = 650;
}
);
note = six.dnom;
},
{
glyphname = seven.dnom;
layers = (
{
layerId = "1F6A8684-966D-4E56-8239-254FA8D05321";
paths = (
{
closed = 1;
nodes = (
"249 0 LINE",
"295 0 LINE",
"301 40 OFFCURVE",
"308.167 77.833 OFFCURVE",
"316.5 113.5 CURVE SMOOTH",
"324.833 149.167 OFFCURVE",
"335.833 183.667 OFFCURVE",
"349.5 217 CURVE SMOOTH",
"363.167 250.333 OFFCURVE",
"380.667 283.167 OFFCURVE",
"402 315.5 CURVE SMOOTH",
"423.333 347.833 OFFCURVE",
"449.333 381 OFFCURVE",
"480 415 CURVE",
"480 448 LINE",
"162 448 LINE",
"162 409 LINE",
"428 409 LINE",
"396.667 378.333 OFFCURVE",
"369 342 OFFCURVE",
"345 300 CURVE SMOOTH",
"321 258 OFFCURVE",
"301 211.833 OFFCURVE",
"285 161.5 CURVE SMOOTH",
"269 111.167 OFFCURVE",
"257 57.333 OFFCURVE",
"249 0 CURVE"
);
},
{
closed = 1;
nodes = (
"162 448 LINE",
"162 350 LINE",
"205 350 LINE",
"205 448 LINE",
"162 448 LINE"
);
}
);
width = 650;
}
);
note = seven.dnom;
},
{
glyphname = eight.dnom;
layers = (
{
layerId = "1F6A8684-966D-4E56-8239-254FA8D05321";
paths = (
{
closed = 1;
nodes = (
"354.333 -8 OFFCURVE",
"380.333 -2.5 OFFCURVE",
"403 8.5 CURVE SMOOTH",
"425.667 19.5 OFFCURVE",
"443.5 34.833 OFFCURVE",
"456.5 54.5 CURVE SMOOTH",
"469.5 74.167 OFFCURVE",
"476 96.667 OFFCURVE",
"476 122 CURVE SMOOTH",
"476 149.333 OFFCURVE",
"466.833 173.667 OFFCURVE",
"448.5 195 CURVE SMOOTH",
"430.167 216.333 OFFCURVE",
"407.333 230.333 OFFCURVE",
"380 237 CURVE",
"270 237 LINE",
"243.333 230.333 OFFCURVE",
"220.667 216.5 OFFCURVE",
"202 195.5 CURVE SMOOTH",
"183.333 174.5 OFFCURVE",
"174 150 OFFCURVE",
"174 122 CURVE SMOOTH",
"174 96.667 OFFCURVE",
"180.5 74.167 OFFCURVE",
"193.5 54.5 CURVE SMOOTH",
"206.5 34.833 OFFCURVE",
"224.333 19.5 OFFCURVE",
"247 8.5 CURVE SMOOTH",
"269.667 -2.5 OFFCURVE",
"295.667 -8 OFFCURVE",
"325 -8 CURVE",
"325 -8 LINE"
);
},
{
closed = 1;
nodes = (
"296.333 31 OFFCURVE",
"271.833 39.5 OFFCURVE",
"251.5 56.5 CURVE SMOOTH",
"231.167 73.5 OFFCURVE",
"221 95.333 OFFCURVE",
"221 122 CURVE SMOOTH",
"221 148.667 OFFCURVE",
"230.833 170 OFFCURVE",
"250.5 186 CURVE SMOOTH",
"270.167 202 OFFCURVE",
"295 211.333 OFFCURVE",
"325 214 CURVE",
"352.333 211.333 OFFCURVE",
"376.5 202.333 OFFCURVE",
"397.5 187 CURVE SMOOTH",
"418.5 171.667 OFFCURVE",
"429 150.333 OFFCURVE",
"429 123 CURVE SMOOTH",
"429 95.667 OFFCURVE",
"419 73.5 OFFCURVE",
"399 56.5 CURVE SMOOTH",
"379 39.5 OFFCURVE",
"354.333 31 OFFCURVE",
"325 31 CURVE SMOOTH",
"325 31 LINE SMOOTH"
);
},
{
closed = 1;
nodes = (
"298.333 250 OFFCURVE",
"275.5 258.167 OFFCURVE",
"256.5 272.5 CURVE SMOOTH",
"237.5 286.833 OFFCURVE",
"228 307 OFFCURVE",
"228 333 CURVE SMOOTH",
"228 358.333 OFFCURVE",
"237.5 378.667 OFFCURVE",
"256.5 394 CURVE SMOOTH",
"275.5 409.333 OFFCURVE",
"298.333 417 OFFCURVE",
"325 417 CURVE SMOOTH",
"352.333 417 OFFCURVE",
"375.333 409.333 OFFCURVE",
"394 394 CURVE SMOOTH",
"412.667 378.667 OFFCURVE",
"422 358.333 OFFCURVE",
"422 333 CURVE SMOOTH",
"422 307 OFFCURVE",
"412.333 286.833 OFFCURVE",
"393 272.5 CURVE SMOOTH",
"373.667 258.167 OFFCURVE",
"351 250 OFFCURVE",
"325 248 CURVE",
"325 248 LINE"
);
},
{
closed = 1;
nodes = (
"273 227 LINE",
"376 227 LINE",
"402 232.333 OFFCURVE",
"423.667 244.833 OFFCURVE",
"441 264.5 CURVE SMOOTH",
"458.333 284.167 OFFCURVE",
"467 307 OFFCURVE",
"467 333 CURVE SMOOTH",
"467 357 OFFCURVE",
"460.833 378.167 OFFCURVE",
"448.5 396.5 CURVE SMOOTH",
"436.167 414.833 OFFCURVE",
"419.333 429.167 OFFCURVE",
"398 439.5 CURVE SMOOTH",
"376.667 449.833 OFFCURVE",
"352.333 455 OFFCURVE",
"325 455 CURVE SMOOTH",
"284.333 455 OFFCURVE",
"250.5 443.5 OFFCURVE",
"223.5 420.5 CURVE SMOOTH",
"196.5 397.5 OFFCURVE",
"183 368.333 OFFCURVE",
"183 333 CURVE SMOOTH",
"183 307.667 OFFCURVE",
"191.667 285 OFFCURVE",
"209 265 CURVE SMOOTH",
"226.333 245 OFFCURVE",
"247.667 232.333 OFFCURVE",
"273 227 CURVE"
);
}
);
width = 650;
}
);
note = eight.dnom;
},
{
glyphname = fraction;
layers = (
{
layerId = "1F6A8684-966D-4E56-8239-254FA8D05321";
paths = (
{
closed = 1;
nodes = (
"79 0 LINE",
"130 0 LINE",
"571 698 LINE",
"521 698 LINE",
"79 0 LINE"
);
}
);
width = 650;
}
);
note = fraction;
unicode = 2044;
},
{
glyphname = zero.dnom.zero;
layers = (
{
layerId = "1F6A8684-966D-4E56-8239-254FA8D05321";
paths = (
{
closed = 1;
nodes = (
"361 -8 OFFCURVE",
"391.5 1.5 OFFCURVE",
"416.5 20.5 CURVE SMOOTH",
"441.5 39.5 OFFCURVE",
"460.5 66.333 OFFCURVE",
"473.5 101 CURVE SMOOTH",
"486.5 135.667 OFFCURVE",
"493 176.333 OFFCURVE",
"493 223 CURVE SMOOTH",
"493 270.333 OFFCURVE",
"486.5 311.333 OFFCURVE",
"473.5 346 CURVE SMOOTH",
"460.5 380.667 OFFCURVE",
"441.5 407.5 OFFCURVE",
"416.5 426.5 CURVE SMOOTH",
"391.5 445.5 OFFCURVE",
"361 455 OFFCURVE",
"325 455 CURVE SMOOTH",
"289 455 OFFCURVE",
"258.5 445.5 OFFCURVE",
"233.5 426.5 CURVE SMOOTH",
"208.5 407.5 OFFCURVE",
"189.5 380.667 OFFCURVE",
"176.5 346 CURVE SMOOTH",
"163.5 311.333 OFFCURVE",
"157 270.333 OFFCURVE",
"157 223 CURVE SMOOTH",
"157 177 OFFCURVE",
"163.5 136.667 OFFCURVE",
"176.5 102 CURVE SMOOTH",
"189.5 67.333 OFFCURVE",
"208.5 40.333 OFFCURVE",
"233.5 21 CURVE SMOOTH",
"258.5 1.667 OFFCURVE",
"289 -8 OFFCURVE",
"325 -8 CURVE",
"325 -8 LINE"
);
},
{
closed = 1;
nodes = (
"285 31 OFFCURVE",
"254.667 48.333 OFFCURVE",
"234 83 CURVE SMOOTH",
"213.333 117.667 OFFCURVE",
"203 164.333 OFFCURVE",
"203 223 CURVE SMOOTH",
"203 283 OFFCURVE",
"213.333 330.167 OFFCURVE",
"234 364.5 CURVE SMOOTH",
"254.667 398.833 OFFCURVE",
"285 416 OFFCURVE",
"325 416 CURVE SMOOTH",
"365.667 416 OFFCURVE",
"396.167 398.833 OFFCURVE",
"416.5 364.5 CURVE SMOOTH",
"436.833 330.167 OFFCURVE",
"447 283 OFFCURVE",
"447 223 CURVE SMOOTH",
"447 164.333 OFFCURVE",
"436.833 117.667 OFFCURVE",
"416.5 83 CURVE SMOOTH",
"396.167 48.333 OFFCURVE",
"365.667 31 OFFCURVE",
"325 31 CURVE SMOOTH",
"325 31 LINE SMOOTH"
);
},
{
closed = 1;
nodes = (
"271 23 LINE",
"415 412 LINE",
"381 425 LINE",
"236 30 LINE",
"271 23 LINE"
);
}
);
width = 650;
}
);
note = zero.dnom.zero;
},
{
glyphname = period;
layers = (
{
layerId = "1F6A8684-966D-4E56-8239-254FA8D05321";
paths = (
{
closed = 1;
nodes = (
"291 0 LINE",
"359 0 LINE",
"359 74 LINE",
"291 74 LINE",
"291 0 LINE"
);
}
);
width = 650;
}
);
note = period;
unicode = 002E;
},
{
glyphname = comma;
layers = (
{
layerId = "1F6A8684-966D-4E56-8239-254FA8D05321";
paths = (
{
closed = 1;
nodes = (
"290 0 LINE",
"335 0 LINE",
"285 -131 LINE",
"275 -164 LINE",
"312 -164 LINE",
"358 0 LINE",
"358 73 LINE",
"290 73 LINE",
"290 0 LINE"
);
}
);
width = 650;
}
);
note = comma;
unicode = 002C;
},
{
glyphname = semicolon;
layers = (
{
layerId = "1F6A8684-966D-4E56-8239-254FA8D05321";
paths = (
{
closed = 1;
nodes = (
"289 0 LINE",
"324 0 LINE",
"266 -178 LINE",
"311 -178 LINE",
"359 0 LINE",
"359 81 LINE",
"289 81 LINE",
"289 0 LINE"
);
},
{
closed = 1;
nodes = (
"290 400 LINE",
"358 400 LINE",
"358 474 LINE",
"290 474 LINE",
"290 400 LINE"
);
}
);
width = 650;
}
);
note = semicolon;
unicode = 003B;
},
{
glyphname = ellipsis;
layers = (
{
layerId = "1F6A8684-966D-4E56-8239-254FA8D05321";
paths = (
{
closed = 1;
nodes = (
"86 0 LINE",
"156 0 LINE",
"156 81 LINE",
"86 81 LINE",
"86 0 LINE"
);
},
{
closed = 1;
nodes = (
"290 0 LINE",
"360 0 LINE",
"360 81 LINE",
"290 81 LINE",
"290 0 LINE"
);
},
{
closed = 1;
nodes = (
"494 0 LINE",
"564 0 LINE",
"564 81 LINE",
"494 81 LINE",
"494 0 LINE"
);
}
);
width = 650;
}
);
note = ellipsis;
unicode = 2026;
},
{
glyphname = exclam;
layers = (
{
layerId = "1F6A8684-966D-4E56-8239-254FA8D05321";
paths = (
{
closed = 1;
nodes = (
"308 168 LINE",
"343 168 LINE",
"354 576 LINE",
"354 698 LINE",
"297 698 LINE",
"297 576 LINE",
"308 168 LINE"
);
},
{
closed = 1;
nodes = (
"291 0 LINE",
"359 0 LINE",
"359 74 LINE",
"291 74 LINE",
"291 0 LINE"
);
}
);
width = 650;
}
);
note = exclam;
unicode = 0021;
},
{
glyphname = exclamdown;
layers = (
{
layerId = "1F6A8684-966D-4E56-8239-254FA8D05321";
paths = (
{
closed = 1;
nodes = (
"290 545 LINE",
"290 464 LINE",
"360 464 LINE",
"360 545 LINE",
"290 545 LINE"
);
},
{
closed = 1;
nodes = (
"343 377 LINE",
"308 377 LINE",
"297 -31 LINE",
"297 -153 LINE",
"354 -153 LINE",
"354 -31 LINE",
"343 377 LINE"
);
}
);
width = 650;
}
);
note = exclamdown;
unicode = 00A1;
},
{
glyphname = question;
layers = (
{
layerId = "1F6A8684-966D-4E56-8239-254FA8D05321";
paths = (
{
closed = 1;
nodes = (
"303 155 LINE",
"348 155 LINE",
"348 192 LINE SMOOTH",
"348 217.333 OFFCURVE",
"352.5 238.667 OFFCURVE",
"361.5 256 CURVE SMOOTH",
"370.5 273.333 OFFCURVE",
"382.167 288.833 OFFCURVE",
"396.5 302.5 CURVE SMOOTH",
"410.833 316.167 OFFCURVE",
"426.167 329.5 OFFCURVE",
"442.5 342.5 CURVE SMOOTH",
"458.833 355.5 OFFCURVE",
"474.167 370 OFFCURVE",
"488.5 386 CURVE SMOOTH",
"502.833 402 OFFCURVE",
"514.5 421.167 OFFCURVE",
"523.5 443.5 CURVE SMOOTH",
"532.5 465.833 OFFCURVE",
"537 493 OFFCURVE",
"537 525 CURVE SMOOTH",
"537 560.333 OFFCURVE",
"528.5 592 OFFCURVE",
"511.5 620 CURVE SMOOTH",
"494.5 648 OFFCURVE",
"471 670 OFFCURVE",
"441 686 CURVE SMOOTH",
"411 702 OFFCURVE",
"376.333 710 OFFCURVE",
"337 710 CURVE SMOOTH",
"295 710 OFFCURVE",
"257.333 700.833 OFFCURVE",
"224 682.5 CURVE SMOOTH",
"190.667 664.167 OFFCURVE",
"164.167 638.5 OFFCURVE",
"144.5 605.5 CURVE SMOOTH",
"124.833 572.5 OFFCURVE",
"114 533.667 OFFCURVE",
"112 489 CURVE",
"162 489 LINE",
"162.667 542.333 OFFCURVE",
"179.167 585 OFFCURVE",
"211.5 617 CURVE SMOOTH",
"243.833 649 OFFCURVE",
"285.333 665 OFFCURVE",
"336 665 CURVE SMOOTH",
"365.333 665 OFFCURVE",
"391.333 658.833 OFFCURVE",
"414 646.5 CURVE SMOOTH",
"436.667 634.167 OFFCURVE",
"454.5 617.5 OFFCURVE",
"467.5 596.5 CURVE SMOOTH",
"480.5 575.5 OFFCURVE",
"487 551.333 OFFCURVE",
"487 524 CURVE SMOOTH",
"487 495.333 OFFCURVE",
"482.5 471.333 OFFCURVE",
"473.5 452 CURVE SMOOTH",
"464.5 432.667 OFFCURVE",
"453.167 416 OFFCURVE",
"439.5 402 CURVE SMOOTH",
"425.833 388 OFFCURVE",
"411 374.833 OFFCURVE",
"395 362.5 CURVE SMOOTH",
"379 350.167 OFFCURVE",
"364.167 336.667 OFFCURVE",
"350.5 322 CURVE SMOOTH",
"336.833 307.333 OFFCURVE",
"325.5 289.667 OFFCURVE",
"316.5 269 CURVE SMOOTH",
"307.5 248.333 OFFCURVE",
"303 222.667 OFFCURVE",
"303 192 CURVE SMOOTH",
"303 155 LINE"
);
},
{
closed = 1;
nodes = (
"291 0 LINE",
"359 0 LINE",
"359 74 LINE",
"291 74 LINE",
"291 0 LINE"
);
}
);
width = 650;
}
);
note = question;
unicode = 003F;
},
